<svg width="181" height="68" viewBox="0 0 181 68" fill="none" preserveAspectRatio="none" xmlns="http://www.w3.org/2000/svg">
<path d="M2.89966 23.0723C2.89966 12.0266 11.854 3.07227 22.8997 3.07227H157.9C168.945 3.07227 177.9 12.0266 177.9 23.0723V44.0723C177.9 55.118 168.945 64.0723 157.9 64.0723H22.8997C11.854 64.0723 2.89966 55.118 2.89966 44.0723V23.0723Z" fill="#282828" fill-opacity="0.5"/>
<path d="M26.6497 2.69585L26.3196 0.723275L26.6497 2.69585ZM28.1497 2.44486L28.4797 4.41743L28.1497 2.44486ZM29.6497 2.51275L29.1503 4.44941L29.6497 2.51275ZM31.1497 2.89953L31.649 0.962881L31.1497 2.89953ZM35.6497 2.96887L36.2322 4.88214L35.6497 2.96887ZM38.6497 2.62824L37.8149 4.44569L38.6497 2.62824ZM40.1497 3.31721L40.9844 1.49976L40.1497 3.31721ZM41.6497 3.25261L42.6074 5.00841L41.6497 3.25261ZM43.1497 2.43444L42.192 0.678643L43.1497 2.43444ZM46.1497 2.82524L45.4797 4.7097L46.1497 2.82524ZM55.1497 2.4699L54.9034 0.485126L55.1497 2.4699ZM56.6497 2.30445L56.8418 4.2952L56.6497 2.30445ZM57.3997 2.23207L57.2075 0.24132L57.3997 2.23207ZM58.1497 2.15969L57.9575 0.16894L58.1497 2.15969ZM64.1497 3.82546L63.8293 1.85128L64.1497 3.82546ZM65.6497 3.4218L66.3534 5.29389L65.6497 3.4218ZM66.3997 3.13985L65.6959 1.26777L66.3997 3.13985ZM68.6497 2.99606L67.6722 4.74096L68.6497 2.99606ZM69.3997 3.41618L70.3771 1.67129L69.3997 3.41618ZM84.3997 2.82464L83.3824 4.54662L84.3997 2.82464ZM85.1497 3.26769L86.1669 1.54571L85.1497 3.26769ZM86.6497 3.52096L86.159 1.58207L86.6497 3.52096ZM87.3997 3.33117L87.8903 5.27005L87.3997 3.33117ZM89.6497 3.24197L90.3718 1.37689L89.6497 3.24197ZM91.1497 3.82274L90.4275 5.68782L91.1497 3.82274ZM95.6497 2.35167L94.6143 4.06283L95.6497 2.35167ZM101.65 3.9257L101.802 5.9199L101.65 3.9257ZM103.15 3.81126L102.998 1.81705L103.15 3.81126ZM107.65 2.32392L106.686 4.07663L107.65 2.32392ZM113.65 2.34656L112.932 4.21347L113.65 2.34656ZM116.65 2.90199L117.412 4.75105L116.65 2.90199ZM117.4 2.59283L116.637 0.743766L117.4 2.59283ZM118.15 2.28366L117.387 0.434602L118.15 2.28366ZM122.65 2.41114L121.853 4.24562L122.65 2.41114ZM131.65 2.59431L132.596 0.832534L131.65 2.59431ZM133.15 3.4003L132.203 5.16208L133.15 3.4003ZM134.65 3.62776L134.194 1.68038L134.65 3.62776ZM136.15 3.27669L136.605 5.22407L136.15 3.27669ZM137.65 3.23163L137.307 5.20204L137.65 3.23163ZM139.15 3.49256L139.492 1.52215L139.15 3.49256ZM140.65 3.46884L140.247 1.50981L140.65 3.46884ZM142.15 3.16048L142.552 5.11951L142.15 3.16048ZM146.65 3.12897L146.259 5.09054L146.65 3.12897ZM148.15 3.42733L148.54 1.46576L148.15 3.42733ZM149.65 3.25619L148.864 1.41692L149.65 3.25619ZM151.15 2.61553L151.935 4.4548L151.15 2.61553ZM152.65 2.32549L152.73 0.327119L152.65 2.32549ZM154.15 2.38607L154.069 4.38444L154.15 2.38607ZM155.65 2.30144L155.953 4.27837L155.65 2.30144ZM157.15 2.07161L156.847 0.0946772L157.15 2.07161ZM158.661 2.19791L158.057 4.1045L158.661 2.19791ZM160.184 2.68035L160.788 0.77376L160.184 2.68035ZM162.492 3.07315L162.687 1.08269L162.492 3.07315ZM163.265 3.14894L163.07 5.13941L163.265 3.14894ZM164.613 3.82093L163.172 5.20779L164.613 3.82093ZM168.748 5.93096L168.484 7.91347L168.748 5.93096ZM170.194 6.48105L171.331 4.83562L170.194 6.48105ZM170.835 6.924L169.698 8.56943L170.835 6.924ZM171.476 7.36694L172.613 5.72151L171.476 7.36694ZM172.302 8.6583L170.348 9.08375V9.08375L172.302 8.6583ZM172.487 9.50673L170.533 9.93217L172.487 9.50673ZM172.671 10.3552L174.626 9.92971L172.671 10.3552ZM173.221 11.8168L174.94 10.7944L173.221 11.8168ZM173.586 12.43L171.867 13.4524L173.586 12.43ZM173.95 13.0432L175.669 12.0208L173.95 13.0432ZM174.888 14.9502L176.717 14.1409L174.888 14.9502ZM175.174 15.5971L173.345 16.4065L175.174 15.5971ZM175.94 16.8575L177.515 15.6257L175.94 16.8575ZM176.899 18.0844L175.323 19.3163L176.899 18.0844ZM177.244 19.4549L179.213 19.806L177.244 19.4549ZM177.109 20.2118L179.078 20.563L177.109 20.2118ZM176.974 20.9688L175.005 20.6176L176.974 20.9688ZM176.906 22.458L178.898 22.2749L176.906 22.458ZM177.041 23.9227L175.049 24.1059L177.041 23.9227ZM177.527 25.4051L179.273 24.4293L177.527 25.4051ZM178.366 26.9051L176.62 27.8808L178.366 26.9051ZM177.935 29.9051L176.064 29.1986V29.1986L177.935 29.9051ZM177.931 31.4051L176.057 32.1034L177.931 31.4051ZM178.49 32.9051L180.364 32.2068L178.49 32.9051ZM178.563 34.4051L180.491 34.9369L178.563 34.4051ZM178.356 35.1551L180.284 35.6869L178.356 35.1551ZM178.149 35.9051L176.221 35.3733L178.149 35.9051ZM178.103 37.4051L176.147 37.8239L178.103 37.4051ZM178.424 38.9051L180.38 38.4863L178.424 38.9051ZM178.608 40.4051L176.609 40.4659L178.608 40.4051ZM178.653 41.9051L180.652 41.8442L178.653 41.9051ZM178.313 43.393L176.519 42.5098L178.313 43.393ZM177.586 44.8689L179.381 45.7521L177.586 44.8689ZM177.096 46.3207L175.127 45.9707L177.096 46.3207ZM176.97 47.0346L178.939 47.3846L176.97 47.0346ZM176.843 47.7485L178.812 48.0985L176.843 47.7485ZM176.4 49.1133L178.2 49.9853L176.4 49.1133ZM176.085 49.7643L177.885 50.6362L176.085 49.7643ZM175.77 50.4152L173.97 49.5432L175.77 50.4152ZM175.206 51.7381L177.081 52.4326L175.206 51.7381ZM174.957 52.4101L176.832 53.1046L174.957 52.4101ZM174.708 53.0821L172.832 52.3876L174.708 53.0821ZM174.219 54.4818L176.119 55.1075L174.219 54.4818ZM173.98 55.2095L172.08 54.5837L173.98 55.2095ZM173.74 55.9371L175.64 56.5629L173.74 55.9371ZM172.912 57.1319L174.156 58.6979L172.912 57.1319ZM171.736 58.0661L170.492 56.5002L171.736 58.0661ZM170.493 58.8726L171.413 60.6484L170.493 58.8726ZM169.183 59.5512L168.263 57.7753L169.183 59.5512ZM167.946 60.3237L166.752 58.7187L167.946 60.3237ZM166.781 61.1899L167.974 62.7949L166.781 61.1899ZM165.537 61.9417L164.669 60.1399L165.537 61.9417ZM164.214 62.5788L165.082 64.3806L164.214 62.5788ZM162.166 63.5765L161.287 61.7803L162.166 63.5765ZM161.473 63.916L162.353 65.7122L161.473 63.916ZM160.018 64.1888L159.844 66.1812L160.018 64.1888ZM158.495 64.0556L158.67 62.0632L158.495 64.0556ZM156.984 64.0141L156.917 62.0153L156.984 64.0141ZM156.234 64.0393L156.167 62.0405L156.234 64.0393ZM155.484 64.0646L155.551 66.0634L155.484 64.0646ZM153.984 63.9547L153.629 65.923L153.984 63.9547ZM152.484 63.6844L152.129 65.6528L152.484 63.6844ZM150.984 63.57L151.039 65.5692L150.984 63.57ZM149.484 63.6113L149.429 61.612L149.484 63.6113ZM147.984 63.7456L148.284 65.723L147.984 63.7456ZM147.234 63.8593L147.534 65.8367L147.234 63.8593ZM146.484 63.973L146.184 61.9956L146.484 63.973ZM144.984 64.058L144.907 66.0565L144.984 64.058ZM143.484 64.0004L143.407 65.999L143.484 64.0004ZM141.984 63.8381L142.335 61.8691L141.984 63.8381ZM140.484 63.5708L140.835 61.6018L140.484 63.5708ZM138.984 63.7638L139.782 65.5975L138.984 63.7638ZM137.484 64.4168L138.282 66.2506L137.484 64.4168ZM135.984 64.7493L135.968 62.7494L135.984 64.7493ZM134.484 64.7613L134.5 66.7612L134.484 64.7613ZM132.984 64.517L132.351 66.4142L132.984 64.517ZM132.234 64.2667L132.867 62.3696L132.234 64.2667ZM131.484 64.0165L132.117 62.1193L131.484 64.0165ZM129.984 63.7886L129.924 61.7895L129.984 63.7886ZM129.234 63.811L129.174 61.8119L129.234 63.811ZM128.484 63.8334L128.544 65.8325L128.484 63.8334ZM126.234 63.6944L126.02 65.6829L126.234 63.6944ZM125.484 63.6137L125.698 61.6251L125.484 63.6137ZM123.984 63.6181L123.758 61.6309L123.984 63.6181ZM122.484 63.7885L122.71 65.7757L122.484 63.7885ZM120.984 63.7437L121.326 61.773L120.984 63.7437ZM120.234 63.6137L119.892 65.5843L120.234 63.6137ZM117.984 63.451L117.727 61.4676L117.984 63.451ZM116.484 63.6456L116.741 65.629L116.484 63.6456ZM114.984 63.6996L115.099 61.7029L114.984 63.6996ZM113.484 63.6129L113.369 65.6095L113.484 63.6129ZM111.984 63.8724L112.733 65.7269L111.984 63.8724ZM111.234 64.1752L110.485 62.3206L111.234 64.1752ZM110.484 64.478L109.735 62.6235L110.484 64.478ZM105.984 64.7549L104.9 66.436L105.984 64.7549ZM105.234 64.2715L104.15 65.9525L105.234 64.2715ZM102.984 63.6913L102.067 61.9137L102.984 63.6913ZM101.484 64.4647L102.401 66.2424L101.484 64.4647ZM98.484 64.1132L99.1076 62.2129L98.484 64.1132ZM93.984 64.0948L94.501 66.0269L93.984 64.0948ZM93.234 64.2955L93.751 66.2276L93.234 64.2955ZM92.484 64.4962L91.967 62.5642L92.484 64.4962ZM90.984 64.5369L91.4012 62.5809L90.984 64.5369ZM89.484 64.217L89.0668 66.173L89.484 64.217ZM87.984 63.9502L88.2659 61.9702L87.984 63.9502ZM86.484 63.7366L86.2021 65.7167L86.484 63.7366ZM84.984 64.0283L84.0456 62.2622L84.984 64.0283ZM84.234 64.4268L85.1724 66.193L84.234 64.4268ZM83.484 64.8253L82.5456 63.0591L83.484 64.8253ZM81.984 64.6589L83.1873 63.0614L81.984 64.6589ZM80.484 63.5292L79.2808 65.1267L80.484 63.5292ZM78.984 62.9552L79.0081 60.9554L78.984 62.9552ZM78.234 62.9462L78.2581 60.9464L78.234 62.9462ZM77.484 62.9372L77.4599 64.937L77.484 62.9372ZM75.984 63.4433L77.1163 65.0919L75.984 63.4433ZM75.234 63.9584L74.1017 62.3098L75.234 63.9584ZM74.484 64.4736L75.6163 66.1221L74.484 64.4736ZM72.984 65.0212L73.0706 67.0193L72.984 65.0212ZM71.484 65.0862L71.3974 63.0881L71.484 65.0862ZM69.984 64.7328L70.8992 62.9544L69.984 64.7328ZM68.484 63.9609L69.3992 62.1825L68.484 63.9609ZM66.984 63.5334L67.0945 61.5365L66.984 63.5334ZM66.234 63.4919L66.1236 65.4889L66.234 63.4919ZM65.484 63.4504L65.5945 61.4535L65.484 63.4504ZM63.984 63.8477L62.9741 62.1214L63.984 63.8477ZM62.484 64.7252L61.4741 62.9989L62.484 64.7252ZM60.984 64.61L62.1723 63.0013L60.984 64.61ZM59.484 63.5019L58.2957 65.1106L59.484 63.5019ZM57.984 63.0264L58.1921 65.0155L57.984 63.0264ZM56.484 63.1833L56.2759 61.1942L56.484 63.1833ZM54.984 63.2507L55.0135 61.2509L54.984 63.2507ZM53.484 63.2286L53.5135 61.2288L53.484 63.2286ZM51.984 63.4473L52.5699 65.3595L51.984 63.4473ZM51.234 63.677L50.6482 61.7648L51.234 63.677ZM50.484 63.9068L49.8982 61.9945L50.484 63.9068ZM48.984 63.8895L48.3581 65.789L48.984 63.8895ZM48.234 63.6423L47.6081 65.5418L48.234 63.6423ZM47.484 63.3952L48.1099 61.4956L47.484 63.3952ZM45.984 63.579L46.9805 65.3131L45.984 63.579ZM45.234 64.01L44.2375 62.276L45.234 64.01ZM44.484 64.441L43.4875 62.707L44.484 64.441ZM42.984 64.4801L43.9103 62.7076L42.984 64.4801ZM41.484 63.6963L40.5578 65.4689L41.484 63.6963ZM39.984 63.4424L40.3459 65.4094L39.984 63.4424ZM38.484 63.7184L38.1221 61.7514L38.484 63.7184ZM36.234 63.919L36.3174 65.9173L36.234 63.919ZM35.484 63.9503L35.4006 61.9521L35.484 63.9503ZM33.984 64.1255L34.3609 66.0897L33.984 64.1255ZM32.484 64.4133L32.1072 62.4491L32.484 64.4133ZM30.984 64.2783L31.6811 62.4037L30.984 64.2783ZM29.484 63.7206L30.1811 61.846L29.484 63.7206ZM27.984 63.4942L27.8444 61.499L27.984 63.4942ZM26.484 63.5991L26.6236 65.5943L26.484 63.5991ZM24.983 63.858L24.4531 61.9294L24.983 63.858ZM24.232 64.0643L23.7021 62.1358L24.232 64.0643ZM23.4809 64.2706L24.0108 66.1992L23.4809 64.2706ZM21.9785 64.3483L22.3161 62.377L21.9785 64.3483ZM20.4758 64.091L20.1383 66.0623L20.4758 64.091ZM18.9633 63.873L18.7301 65.8594L18.9633 63.873ZM18.2021 63.7836L18.4353 61.7973L18.2021 63.7836ZM17.441 63.6943L17.2078 65.6807L17.441 63.6943ZM16.008 63.2358L15.0448 64.9886L16.008 63.2358ZM14.6645 62.4975L15.6278 60.7447L14.6645 62.4975ZM12.7918 61.221L11.5862 62.8168L12.7918 61.221ZM12.1912 60.7673L13.3968 59.1715L12.1912 60.7673ZM11.1579 59.6955L12.7963 58.5484L11.1579 59.6955ZM10.2922 58.459L8.65386 59.606L10.2922 58.459ZM9.05627 57.5688L8.41488 59.4632L9.05627 57.5688ZM8.25312 57.2969L8.8945 55.4025L8.25312 57.2969ZM7.44997 57.025L6.80858 58.9193L7.44997 57.025ZM6.50938 55.9464L8.48096 55.6105L6.50938 55.9464ZM6.37193 55.1398L8.34352 54.8038L6.37193 55.1398ZM6.23449 54.3332L4.26291 54.6691L6.23449 54.3332ZM5.70323 52.9059L7.39198 51.8344L5.70323 52.9059ZM5.30941 52.2852L3.62066 53.3567L5.30941 52.2852ZM4.91559 51.6645L3.22684 52.736L4.91559 51.6645ZM4.4275 50.3133L2.44395 50.5692L4.4275 50.3133ZM4.23897 48.8522L6.22252 48.5963L4.23897 48.8522ZM3.55665 47.44L2.04221 48.7463L3.55665 47.44ZM2.38055 46.0765L3.89499 44.7702L2.38055 46.0765ZM2.28709 44.627L0.605758 43.5439L2.28709 44.627ZM3.27625 43.0915L4.95758 44.1746L3.27625 43.0915ZM3.83791 40.0738L1.83879 40.0142L3.83791 40.0738ZM2.15543 35.5738L3.94765 36.4615L2.15543 35.5738ZM3.04328 31.0738L1.05334 31.2742L3.04328 31.0738ZM2.49828 28.8238L0.589582 29.4212L2.49828 28.8238ZM2.51831 26.5738L0.843485 25.4806L2.51831 26.5738ZM3.49734 25.0738L5.17217 26.1669L3.49734 25.0738ZM3.75636 16.8383L1.76334 17.0053L3.75636 16.8383ZM4.14962 14.6154L2.6626 13.2779L4.14962 14.6154ZM5.2099 13.4365L3.72288 12.0991V12.0991L5.2099 13.4365ZM6.976 11.9311L5.78517 10.3243L6.976 11.9311ZM7.59398 11.4731L8.78481 13.08L7.59398 11.4731ZM8.54303 10.3217L6.73819 9.45999L8.54303 10.3217ZM8.8741 9.6283L7.06927 8.76658L8.8741 9.6283ZM9.20518 8.93488L11.01 9.79661L9.20518 8.93488ZM10.6414 7.2082L12.0073 8.66911L10.6414 7.2082ZM11.1939 6.69157L9.82801 5.23066L11.1939 6.69157ZM13.138 5.57997L12.3517 3.74102L13.138 5.57997ZM13.8337 5.28249L13.0474 3.44354L13.8337 5.28249ZM15.2557 4.81664L14.8039 2.86832L15.2557 4.81664ZM21.5969 3.70798L21.5461 5.70733L21.5969 3.70798ZM23.6497 3.00954L23.483 1.0165L23.6497 3.00954ZM24.3997 2.94681L24.5664 4.93985L25.3164 4.87712L25.1497 2.88408L24.983 0.891036L24.233 0.953766L24.3997 2.94681ZM25.1497 2.88408L25.3164 4.87712C25.8716 4.83067 26.4261 4.76106 26.9797 4.66843L26.6497 2.69585L26.3196 0.723275C25.8732 0.797972 25.4277 0.85384 24.983 0.891036L25.1497 2.88408ZM26.6497 2.69585L26.9797 4.66843L27.7297 4.54293L27.3997 2.57035L27.0696 0.597779L26.3196 0.723275L26.6497 2.69585ZM27.3997 2.57035L27.7297 4.54293L28.4797 4.41743L28.1497 2.44486L27.8196 0.472282L27.0696 0.597779L27.3997 2.57035ZM28.1497 2.44486L28.4797 4.41743C28.6986 4.38082 28.916 4.389 29.1503 4.44941L29.6497 2.51275L30.149 0.576099C29.3833 0.378646 28.6008 0.34157 27.8196 0.472282L28.1497 2.44486ZM29.6497 2.51275L29.1503 4.44941L29.9003 4.6428L30.3997 2.70614L30.899 0.76949L30.149 0.576099L29.6497 2.51275ZM30.3997 2.70614L29.9003 4.6428L30.6503 4.83619L31.1497 2.89953L31.649 0.962881L30.899 0.76949L30.3997 2.70614ZM31.1497 2.89953L30.6503 4.83619C31.2864 5.00021 31.9304 5.0952 32.5802 5.1178L32.6497 3.11901L32.7192 1.12021C32.3689 1.10803 32.0129 1.05672 31.649 0.962881L31.1497 2.89953ZM32.6497 3.11901L32.5802 5.1178L33.3302 5.14388L33.3997 3.14509L33.4692 1.14629L32.7192 1.12021L32.6497 3.11901ZM33.3997 3.14509L33.3302 5.14388L34.0802 5.16996L34.1497 3.17117L34.2192 1.17238L33.4692 1.14629L33.3997 3.14509ZM34.1497 3.17117L34.0802 5.16996C34.8105 5.19536 35.5306 5.09579 36.2322 4.88214L35.6497 2.96887L35.0671 1.05561C34.7687 1.14646 34.4888 1.18175 34.2192 1.17238L34.1497 3.17117ZM35.6497 2.96887L36.2322 4.88214L36.9822 4.65377L36.3997 2.7405L35.8171 0.827232L35.0671 1.05561L35.6497 2.96887ZM36.3997 2.7405L36.9822 4.65377L37.7322 4.42539L37.1497 2.51212L36.5671 0.598857L35.8171 0.827232L36.3997 2.7405ZM37.1497 2.51212L37.7322 4.42539C37.739 4.42335 37.7436 4.42224 37.7464 4.42167C37.7478 4.42138 37.7487 4.42121 37.7494 4.42111C37.75 4.42101 37.7503 4.42097 37.7503 4.42097C37.7503 4.42097 37.7501 4.42099 37.7497 4.42102C37.7494 4.42104 37.7489 4.42106 37.7483 4.42107C37.7471 4.4211 37.746 4.42105 37.7453 4.421C37.7434 4.42085 37.7466 4.42085 37.7563 4.42345C37.7662 4.42612 37.7856 4.43224 37.8149 4.44569L38.6497 2.62824L39.4844 0.810783C38.5652 0.388581 37.5616 0.296017 36.5671 0.598857L37.1497 2.51212ZM38.6497 2.62824L37.8149 4.44569L38.5649 4.79018L39.3997 2.97272L40.2344 1.15527L39.4844 0.810783L38.6497 2.62824ZM39.3997 2.97272L38.5649 4.79018L39.3149 5.13466L40.1497 3.31721L40.9844 1.49976L40.2344 1.15527L39.3997 2.97272ZM40.1497 3.31721L39.3149 5.13466C40.4119 5.63853 41.576 5.57098 42.6074 5.00841L41.6497 3.25261L40.692 1.49681C40.673 1.50716 40.7187 1.47924 40.8136 1.47516C40.9111 1.47096 40.9753 1.49557 40.9844 1.49976L40.1497 3.31721ZM41.6497 3.25261L42.6074 5.00841L43.3574 4.59932L42.3997 2.84353L41.442 1.08773L40.692 1.49681L41.6497 3.25261ZM42.3997 2.84353L43.3574 4.59932L44.1074 4.19024L43.1497 2.43444L42.192 0.678643L41.442 1.08773L42.3997 2.84353ZM43.1497 2.43444L44.1074 4.19024C44.1307 4.17752 44.1396 4.17525 44.1346 4.17686C44.129 4.17865 44.113 4.18302 44.0887 4.18532C44.0642 4.18766 44.0391 4.18711 44.0163 4.18414C43.9939 4.18122 43.9811 4.17693 43.9797 4.17644L44.6497 2.29198L45.3196 0.407524C44.2407 0.0239818 43.1503 0.155941 42.192 0.678643L43.1497 2.43444ZM44.6497 2.29198L43.9797 4.17644L44.7297 4.44307L45.3997 2.55861L46.0696 0.674154L45.3196 0.407524L44.6497 2.29198ZM45.3997 2.55861L44.7297 4.44307L45.4797 4.7097L46.1497 2.82524L46.8196 0.940783L46.0696 0.674154L45.3997 2.55861ZM46.1497 2.82524L45.4797 4.7097C46.1589 4.95115 46.8585 5.09177 47.5727 5.11928L47.6497 3.12076L47.7266 1.12224C47.4408 1.11123 47.1404 1.05484 46.8196 0.940783L46.1497 2.82524ZM47.6497 3.12076L47.5727 5.11928L48.3227 5.14817L48.3997 3.14965L48.4766 1.15113L47.7266 1.12224L47.6497 3.12076ZM48.3997 3.14965L48.3227 5.14817L49.0727 5.17706L49.1497 3.17854L49.2266 1.18002L48.4766 1.15113L48.3997 3.14965ZM49.1497 3.17854L49.0727 5.17706C49.7008 5.20126 50.3277 5.16525 50.9517 5.06991L50.6497 3.09285L50.3476 1.11579C49.9716 1.17323 49.5985 1.19435 49.2266 1.18002L49.1497 3.17854ZM50.6497 3.09285L50.9517 5.06991L51.7017 4.95533L51.3997 2.97827L51.0976 1.00121L50.3476 1.11579L50.6497 3.09285ZM51.3997 2.97827L51.7017 4.95533L52.4517 4.84075L52.1497 2.86369L51.8476 0.886632L51.0976 1.00121L51.3997 2.97827ZM52.1497 2.86369L52.4517 4.84075C52.9332 4.76719 53.4146 4.70055 53.896 4.64082L53.6497 2.65604L53.4034 0.671267C52.8847 0.735632 52.3661 0.807423 51.8476 0.886632L52.1497 2.86369ZM53.6497 2.65604L53.896 4.64082L54.646 4.54775L54.3997 2.56297L54.1534 0.578197L53.4034 0.671267L53.6497 2.65604ZM54.3997 2.56297L54.646 4.54775L55.396 4.45468L55.1497 2.4699L54.9034 0.485126L54.1534 0.578197L54.3997 2.56297ZM55.1497 2.4699L55.396 4.45468C55.878 4.39486 56.3599 4.34171 56.8418 4.2952L56.6497 2.30445L56.4575 0.313701C55.9394 0.363706 55.4213 0.420849 54.9034 0.485126L55.1497 2.4699ZM56.6497 2.30445L56.8418 4.2952L57.5918 4.22282L57.3997 2.23207L57.2075 0.24132L56.4575 0.313701L56.6497 2.30445ZM57.3997 2.23207L57.5918 4.22282L58.3418 4.15044L58.1497 2.15969L57.9575 0.16894L57.2075 0.24132L57.3997 2.23207ZM58.1497 2.15969L58.3418 4.15044C58.322 4.15235 58.3103 4.14809 58.3209 4.1513C58.3366 4.15604 58.3967 4.17728 58.5015 4.25075L59.6497 2.61312L60.7978 0.975496C59.9951 0.412744 59.0288 0.0655541 57.9575 0.16894L58.1497 2.15969ZM59.6497 2.61312L58.5015 4.25075L59.2515 4.77657L60.3997 3.13894L61.5478 1.50131L60.7978 0.975496L59.6497 2.61312ZM60.3997 3.13894L59.2515 4.77657L60.0015 5.30238L61.1497 3.66475L62.2978 2.02712L61.5478 1.50131L60.3997 3.13894ZM61.1497 3.66475L60.0015 5.30238C60.8351 5.88675 61.8528 6.22433 62.97 6.04304L62.6497 4.06886L62.3293 2.09469C62.3439 2.09232 62.3621 2.09106 62.3816 2.09211C62.401 2.09315 62.4145 2.09607 62.4199 2.09754C62.431 2.10052 62.3906 2.09218 62.2978 2.02712L61.1497 3.66475ZM62.6497 4.06886L62.97 6.04304L63.72 5.92134L63.3997 3.94716L63.0793 1.97298L62.3293 2.09469L62.6497 4.06886ZM63.3997 3.94716L63.72 5.92134L64.47 5.79964L64.1497 3.82546L63.8293 1.85128L63.0793 1.97298L63.3997 3.94716ZM64.1497 3.82546L64.47 5.79964C65.1078 5.69614 65.7361 5.52598 66.3534 5.29389L65.6497 3.4218L64.9459 1.54972C64.5633 1.69356 64.1915 1.79251 63.8293 1.85128L64.1497 3.82546ZM65.6497 3.4218L66.3534 5.29389L67.1034 5.01193L66.3997 3.13985L65.6959 1.26777L64.9459 1.54972L65.6497 3.4218ZM66.3997 3.13985L67.1034 5.01193L67.8534 4.72998L67.1497 2.8579L66.4459 0.985817L65.6959 1.26777L66.3997 3.13985ZM67.1497 2.8579L67.8534 4.72998C67.8497 4.73138 67.8332 4.73706 67.8057 4.74096C67.7777 4.74493 67.7468 4.74585 67.7162 4.74303C67.6504 4.73697 67.6322 4.71855 67.6722 4.74096L68.6497 2.99606L69.6271 1.25117C68.6555 0.706914 67.5418 0.573807 66.4459 0.985817L67.1497 2.8579ZM68.6497 2.99606L67.6722 4.74096L68.4222 5.16108L69.3997 3.41618L70.3771 1.67129L69.6271 1.25117L68.6497 2.99606ZM69.3997 3.41618L68.4222 5.16108L69.1722 5.5812L70.1497 3.8363L71.1271 2.09141L70.3771 1.67129L69.3997 3.41618ZM70.1497 3.8363L69.1722 5.5812C70.0736 6.08612 71.107 6.27128 72.1665 5.98789L71.6497 4.05581L71.1329 2.12374C71.1326 2.1238 71.1346 2.12328 71.1384 2.12264C71.1423 2.122 71.1475 2.12136 71.1537 2.12098C71.167 2.12018 71.1796 2.1209 71.1893 2.12232C71.1986 2.12369 71.1996 2.12488 71.1908 2.12177C71.1816 2.11853 71.1605 2.11011 71.1271 2.09141L70.1497 3.8363ZM71.6497 4.05581L72.1665 5.98789L72.9165 5.78728L72.3997 3.8552L71.8829 1.92313L71.1329 2.12374L71.6497 4.05581ZM72.3997 3.8552L72.9165 5.78728L73.6665 5.58667L73.1497 3.6546L72.6329 1.72252L71.8829 1.92313L72.3997 3.8552ZM73.1497 3.6546L73.6665 5.58667C73.9216 5.51843 74.1592 5.50403 74.3938 5.53429L74.6497 3.55073L74.9055 1.56716C74.1401 1.46843 73.3777 1.52328 72.6329 1.72252L73.1497 3.6546ZM74.6497 3.55073L74.3938 5.53429L75.1438 5.63104L75.3997 3.64747L75.6555 1.66391L74.9055 1.56716L74.6497 3.55073ZM75.3997 3.64747L75.1438 5.63104L75.8938 5.72778L76.1497 3.74422L76.4055 1.76065L75.6555 1.66391L75.3997 3.64747ZM76.1497 3.74422L75.8938 5.72778C76.5745 5.81558 77.2571 5.81005 77.9366 5.71154L77.6497 3.73223L77.3627 1.75292C77.0422 1.79938 76.7248 1.80184 76.4055 1.76065L76.1497 3.74422ZM77.6497 3.73223L77.9366 5.71154L78.6866 5.60282L78.3997 3.62351L78.1127 1.6442L77.3627 1.75292L77.6497 3.73223ZM78.3997 3.62351L78.6866 5.60282L79.4366 5.49409L79.1497 3.51478L78.8627 1.53547L78.1127 1.6442L78.3997 3.62351ZM79.1497 3.51478L79.4366 5.49409C80.162 5.38894 80.8607 5.1624 81.5285 4.83574L80.6497 3.03917L79.7708 1.24261C79.4386 1.40513 79.1374 1.49566 78.8627 1.53547L79.1497 3.51478ZM80.6497 3.03917L81.5285 4.83574L82.2785 4.46886L81.3997 2.67229L80.5208 0.875728L79.7708 1.24261L80.6497 3.03917ZM81.3997 2.67229L82.2785 4.46886L83.0285 4.10197L82.1497 2.30541L81.2708 0.508844L80.5208 0.875728L81.3997 2.67229ZM82.1497 2.30541L83.0285 4.10197C83.0088 4.11162 82.9234 4.14479 82.7982 4.13844C82.677 4.13228 82.6162 4.09399 82.6324 4.10356L83.6497 2.38158L84.6669 0.6596C83.6178 0.0398254 82.4059 -0.0464194 81.2708 0.508844L82.1497 2.30541ZM83.6497 2.38158L82.6324 4.10356L83.3824 4.54662L84.3997 2.82464L85.4169 1.10266L84.6669 0.6596L83.6497 2.38158ZM84.3997 2.82464L83.3824 4.54662L84.1324 4.98967L85.1497 3.26769L86.1669 1.54571L85.4169 1.10266L84.3997 2.82464ZM85.1497 3.26769L84.1324 4.98967C85.0244 5.51659 86.0625 5.73257 87.1403 5.45984L86.6497 3.52096L86.159 1.58207C86.163 1.58105 86.1742 1.57876 86.1905 1.57807C86.2069 1.57738 86.2217 1.57861 86.2326 1.58045C86.2432 1.58223 86.2443 1.58361 86.2348 1.57997C86.2248 1.57618 86.2022 1.56655 86.1669 1.54571L85.1497 3.26769ZM86.6497 3.52096L87.1403 5.45984L87.8903 5.27005L87.3997 3.33117L86.909 1.39228L86.159 1.58207L86.6497 3.52096ZM87.3997 3.33117L87.8903 5.27005L88.6403 5.08026L88.1497 3.14138L87.659 1.20249L86.909 1.39228L87.3997 3.33117ZM88.1497 3.14138L88.6403 5.08026C88.7216 5.0597 88.7981 5.05693 88.9275 5.10706L89.6497 3.24197L90.3718 1.37689C89.5013 1.03984 88.5778 0.970004 87.659 1.20249L88.1497 3.14138ZM89.6497 3.24197L88.9275 5.10706L89.6775 5.39744L90.3997 3.53236L91.1218 1.66727L90.3718 1.37689L89.6497 3.24197ZM90.3997 3.53236L89.6775 5.39744L90.4275 5.68782L91.1497 3.82274L91.8718 1.95765L91.1218 1.66727L90.3997 3.53236ZM91.1497 3.82274L90.4275 5.68782C91.6769 6.17153 92.8897 5.86826 93.8377 5.16822L92.6497 3.55931L91.4616 1.95041C91.4057 1.99171 91.4381 1.95253 91.5537 1.93222C91.6106 1.92224 91.6728 1.91968 91.735 1.92626C91.7966 1.93277 91.8433 1.94662 91.8718 1.95765L91.1497 3.82274ZM92.6497 3.55931L93.8377 5.16822L94.5877 4.61441L93.3997 3.0055L92.2116 1.3966L91.4616 1.95041L92.6497 3.55931ZM93.3997 3.0055L94.5877 4.61441L95.3377 4.0606L94.1497 2.45169L92.9616 0.84279L92.2116 1.3966L93.3997 3.0055ZM94.1497 2.45169L95.3377 4.0606C95.3541 4.04847 95.2464 4.1311 95.0327 4.14535C94.8084 4.16031 94.6553 4.08765 94.6143 4.06283L95.6497 2.35167L96.685 0.64051C96.144 0.31317 95.4909 0.105919 94.7666 0.154216C94.0529 0.201807 93.4452 0.48571 92.9616 0.84279L94.1497 2.45169ZM95.6497 2.35167L94.6143 4.06283L95.3643 4.51662L96.3997 2.80546L97.435 1.0943L96.685 0.64051L95.6497 2.35167ZM96.3997 2.80546L95.3643 4.51662L96.1143 4.97041L97.1497 3.25925L98.185 1.54808L97.435 1.0943L96.3997 2.80546ZM97.1497 3.25925L96.1143 4.97041C96.832 5.40466 97.6215 5.69608 98.4705 5.77246L98.6497 3.7805L98.8289 1.78855C98.6779 1.77496 98.4673 1.71889 98.185 1.54808L97.1497 3.25925ZM98.6497 3.7805L98.4705 5.77246L99.2205 5.83993L99.3997 3.84797L99.5789 1.85602L98.8289 1.78855L98.6497 3.7805ZM99.3997 3.84797L99.2205 5.83993L99.9705 5.9074L100.15 3.91544L100.329 1.92349L99.5789 1.85602L99.3997 3.84797ZM100.15 3.91544L99.9705 5.9074C100.581 5.96228 101.191 5.96647 101.802 5.9199L101.65 3.9257L101.498 1.93149C101.108 1.96121 100.719 1.95857 100.329 1.92349L100.15 3.91544ZM101.65 3.9257L101.802 5.9199L102.552 5.86268L102.4 3.86848L102.248 1.87427L101.498 1.93149L101.65 3.9257ZM102.4 3.86848L102.552 5.86268L103.302 5.80546L103.15 3.81126L102.998 1.81705L102.248 1.87427L102.4 3.86848ZM103.15 3.81126L103.302 5.80546C104.169 5.73933 104.971 5.44286 105.696 4.99774L104.65 3.29345L103.603 1.58917C103.328 1.75815 103.131 1.80689 102.998 1.81705L103.15 3.81126ZM104.65 3.29345L105.696 4.99774L106.446 4.53715L105.4 2.83287L104.353 1.12858L103.603 1.58917L104.65 3.29345ZM105.4 2.83287L106.446 4.53715L107.196 4.07657L106.15 2.37228L105.103 0.667999L104.353 1.12858L105.4 2.83287ZM106.15 2.37228L107.196 4.07657C107.202 4.07327 107.117 4.12392 106.964 4.12886C106.808 4.13391 106.706 4.08725 106.686 4.07663L107.65 2.32392L108.613 0.571208C107.461 -0.0618832 106.194 -0.00201893 105.103 0.667999L106.15 2.37228ZM107.65 2.32392L106.686 4.07663L107.436 4.48884L108.4 2.73614L109.363 0.983427L108.613 0.571208L107.65 2.32392ZM108.4 2.73614L107.436 4.48884L108.186 4.90106L109.15 3.14836L110.113 1.39565L109.363 0.983427L108.4 2.73614ZM109.15 3.14836L108.186 4.90106C109.248 5.48482 110.443 5.52514 111.545 4.97335L110.65 3.18502L109.754 1.39669C109.762 1.39285 109.834 1.36143 109.949 1.36423C110.061 1.36698 110.122 1.40067 110.113 1.39565L109.15 3.14836ZM110.65 3.18502L111.545 4.97335L112.295 4.59779L111.4 2.80947L110.504 1.02114L109.754 1.39669L110.65 3.18502ZM111.4 2.80947L112.295 4.59779L113.045 4.22224L112.15 2.43391L111.254 0.645587L110.504 1.02114L111.4 2.80947ZM112.15 2.43391L113.045 4.22224C113.064 4.21255 113.07 4.21179 113.063 4.2138C113.055 4.21596 113.039 4.21958 113.016 4.22091C112.993 4.22226 112.971 4.22083 112.953 4.21789C112.935 4.21501 112.928 4.21177 112.932 4.21347L113.65 2.34656L114.367 0.479647C113.317 0.076051 112.232 0.156017 111.254 0.645587L112.15 2.43391ZM113.65 2.34656L112.932 4.21347L113.682 4.50167L114.4 2.63476L115.117 0.767846L114.367 0.479647L113.65 2.34656ZM114.4 2.63476L113.682 4.50167L114.432 4.78987L115.15 2.92295L115.867 1.05604L115.117 0.767846L114.4 2.63476ZM115.15 2.92295L114.432 4.78987C115.415 5.16739 116.444 5.14995 117.412 4.75105L116.65 2.90199L115.887 1.05293C115.868 1.06107 115.858 1.0631 115.858 1.06316C115.858 1.06322 115.859 1.06293 115.862 1.06263C115.864 1.06232 115.868 1.06206 115.872 1.06201C115.876 1.06195 115.879 1.0621 115.883 1.06238C115.886 1.06266 115.888 1.06301 115.889 1.06314C115.891 1.06347 115.884 1.06243 115.867 1.05604L115.15 2.92295ZM116.65 2.90199L117.412 4.75105L118.162 4.44189L117.4 2.59283L116.637 0.743766L115.887 1.05293L116.65 2.90199ZM117.4 2.59283L118.162 4.44189L118.912 4.13272L118.15 2.28366L117.387 0.434602L116.637 0.743766L117.4 2.59283ZM118.15 2.28366L118.912 4.13272C119.169 4.02681 119.385 3.9938 119.576 4.00087L119.65 2.00223L119.724 0.00359988C118.915 -0.0263078 118.131 0.128301 117.387 0.434602L118.15 2.28366ZM119.65 2.00223L119.576 4.00087L120.326 4.0286L120.4 2.02997L120.474 0.0313337L119.724 0.00359988L119.65 2.00223ZM120.4 2.02997L120.326 4.0286L121.076 4.05634L121.15 2.0577L121.224 0.0590672L120.474 0.0313337L120.4 2.02997ZM121.15 2.0577L121.076 4.05634C121.305 4.06482 121.561 4.11884 121.853 4.24562L122.65 2.41114L123.446 0.576652C122.738 0.269164 121.994 0.087558 121.224 0.0590672L121.15 2.0577ZM122.65 2.41114L121.853 4.24562L122.603 4.57132L123.4 2.73684L124.196 0.902353L123.446 0.576652L122.65 2.41114ZM123.4 2.73684L122.603 4.57132L123.353 4.89702L124.15 3.06254L124.946 1.22805L124.196 0.902353L123.4 2.73684ZM124.15 3.06254L123.353 4.89702C124.103 5.22263 124.9 5.38966 125.725 5.35853L125.65 3.35995L125.574 1.36137C125.4 1.36796 125.197 1.33672 124.946 1.22805L124.15 3.06254ZM125.65 3.35995L125.725 5.35853L126.475 5.33024L126.4 3.33166L126.324 1.33308L125.574 1.36137L125.65 3.35995ZM126.4 3.33166L126.475 5.33024L127.225 5.30194L127.15 3.30337L127.074 1.30479L126.324 1.33308L126.4 3.33166ZM127.15 3.30337L127.225 5.30194C127.944 5.27483 128.647 5.13151 129.329 4.88516L128.65 3.00414L127.97 1.12311C127.652 1.23801 127.355 1.29418 127.074 1.30479L127.15 3.30337ZM128.65 3.00414L129.329 4.88516L130.079 4.61422L129.4 2.7332L128.72 0.852175L127.97 1.12311L128.65 3.00414ZM129.4 2.7332L130.079 4.61422L130.829 4.34329L130.15 2.46226L129.47 0.581237L128.72 0.852175L129.4 2.7332ZM130.15 2.46226L130.829 4.34329C130.829 4.34324 130.826 4.34433 130.82 4.34583C130.814 4.34734 130.806 4.34908 130.795 4.35051C130.773 4.35352 130.749 4.35425 130.724 4.3521C130.7 4.34997 130.684 4.34571 130.678 4.3438C130.672 4.34207 130.68 4.34399 130.703 4.3561L131.65 2.59431L132.596 0.832534C131.634 0.315468 130.544 0.193306 129.47 0.581237L130.15 2.46226ZM131.65 2.59431L130.703 4.3561L131.453 4.75909L132.4 2.99731L133.346 1.23552L132.596 0.832534L131.65 2.59431ZM132.4 2.99731L131.453 4.75909L132.203 5.16208L133.15 3.4003L134.096 1.63852L133.346 1.23552L132.4 2.99731ZM133.15 3.4003L132.203 5.16208C133.084 5.63522 134.08 5.81518 135.105 5.57513L134.65 3.62776L134.194 1.68038C134.188 1.68169 134.188 1.68123 134.192 1.68106C134.194 1.68099 134.196 1.681 134.197 1.68109C134.199 1.68118 134.2 1.6813 134.2 1.68126C134.199 1.68124 134.192 1.68015 134.176 1.67469C134.16 1.66912 134.133 1.65844 134.096 1.63852L133.15 3.4003ZM134.65 3.62776L135.105 5.57513L135.855 5.3996L135.4 3.45223L134.944 1.50485L134.194 1.68038L134.65 3.62776ZM135.4 3.45223L135.855 5.3996L136.605 5.22407L136.15 3.27669L135.694 1.32932L134.944 1.50485L135.4 3.45223ZM136.15 3.27669L136.605 5.22407C136.847 5.16761 137.075 5.16172 137.307 5.20204L137.65 3.23163L137.992 1.26122C137.224 1.12759 136.453 1.15174 135.694 1.32932L136.15 3.27669ZM137.65 3.23163L137.307 5.20204L138.057 5.3325L138.4 3.36209L138.742 1.39168L137.992 1.26122L137.65 3.23163ZM138.4 3.36209L138.057 5.3325L138.807 5.46297L139.15 3.49256L139.492 1.52215L138.742 1.39168L138.4 3.36209ZM139.15 3.49256L138.807 5.46297C139.555 5.59317 140.308 5.58085 141.052 5.42788L140.65 3.46884L140.247 1.50981C139.991 1.56241 139.744 1.5659 139.492 1.52215L139.15 3.49256ZM140.65 3.46884L141.052 5.42788L141.802 5.27369L141.4 3.31466L140.997 1.35563L140.247 1.50981L140.65 3.46884ZM141.4 3.31466L141.802 5.27369L142.552 5.11951L142.15 3.16048L141.747 1.20145L140.997 1.35563L141.4 3.31466ZM142.15 3.16048L142.552 5.11951C142.928 5.04223 143.299 5.00284 143.667 4.99959L143.65 2.99967L143.632 0.999747C143 1.00533 142.371 1.07315 141.747 1.20145L142.15 3.16048ZM143.65 2.99967L143.667 4.99959L144.417 4.99296L144.4 2.99304L144.382 0.993119L143.632 0.999747L143.65 2.99967ZM144.4 2.99304L144.417 4.99296L145.167 4.98633L145.15 2.98641L145.132 0.98649L144.382 0.993119L144.4 2.99304ZM145.15 2.98641L145.167 4.98633C145.528 4.98315 145.891 5.01727 146.259 5.09054L146.65 3.12897L147.04 1.1674C146.408 1.04175 145.772 0.980838 145.132 0.98649L145.15 2.98641ZM146.65 3.12897L146.259 5.09054L147.009 5.23972L147.4 3.27815L147.79 1.31658L147.04 1.1674L146.65 3.12897ZM147.4 3.27815L147.009 5.23972L147.759 5.3889L148.15 3.42733L148.54 1.46576L147.79 1.31658L147.4 3.27815ZM148.15 3.42733L147.759 5.3889C148.682 5.57232 149.591 5.45622 150.435 5.09545L149.65 3.25619L148.864 1.41692C148.709 1.48326 148.618 1.48126 148.54 1.46576L148.15 3.42733ZM149.65 3.25619L150.435 5.09545L151.185 4.77512L150.4 2.93586L149.614 1.09659L148.864 1.41692L149.65 3.25619ZM150.4 2.93586L151.185 4.77512L151.935 4.4548L151.15 2.61553L150.364 0.776266L149.614 1.09659L150.4 2.93586ZM151.15 2.61553L151.935 4.4548C152.186 4.34773 152.391 4.31667 152.569 4.32386L152.65 2.32549L152.73 0.327119C151.908 0.293923 151.113 0.456224 150.364 0.776266L151.15 2.61553ZM152.65 2.32549L152.569 4.32386L153.319 4.35415L153.4 2.35578L153.48 0.357408L152.73 0.327119L152.65 2.32549ZM153.4 2.35578L153.319 4.35415L154.069 4.38444L154.15 2.38607L154.23 0.387696L153.48 0.357408L153.4 2.35578ZM154.15 2.38607L154.069 4.38444C154.699 4.40987 155.327 4.37421 155.953 4.27837L155.65 2.30144L155.347 0.32451C154.972 0.381891 154.601 0.402652 154.23 0.387696L154.15 2.38607ZM155.65 2.30144L155.953 4.27837L156.703 4.16345L156.4 2.18652L156.097 0.209594L155.347 0.32451L155.65 2.30144ZM156.4 2.18652L156.703 4.16345L157.453 4.04853L157.15 2.07161L156.847 0.0946772L156.097 0.209594L156.4 2.18652ZM157.15 2.07161L157.453 4.04853C157.633 4.02091 157.826 4.03148 158.057 4.1045L158.661 2.19791L159.265 0.291317C158.48 0.042712 157.666 -0.0309191 156.847 0.0946772L157.15 2.07161ZM158.661 2.19791L158.057 4.1045L158.818 4.34573L159.422 2.43913L160.026 0.532539L159.265 0.291317L158.661 2.19791ZM159.422 2.43913L158.818 4.34573L159.58 4.58695L160.184 2.68035L160.788 0.77376L160.026 0.532539L159.422 2.43913ZM160.184 2.68035L159.58 4.58695C160.217 4.78875 160.865 4.92332 161.523 4.98783L161.719 2.99736L161.914 1.0069C161.541 0.970353 161.166 0.893589 160.788 0.77376L160.184 2.68035ZM161.719 2.99736L161.523 4.98783L162.297 5.06362L162.492 3.07315L162.687 1.08269L161.914 1.0069L161.719 2.99736ZM162.492 3.07315L162.297 5.06362L163.07 5.13941L163.265 3.14894L163.46 1.15848L162.687 1.08269L162.492 3.07315ZM163.265 3.14894L163.07 5.13941C163.084 5.14075 163.091 5.14253 163.092 5.143C163.094 5.14343 163.095 5.14374 163.096 5.14455C163.097 5.14495 163.123 5.1574 163.172 5.20779L164.613 3.82093L166.054 2.43406C165.364 1.71752 164.482 1.2586 163.46 1.15848L163.265 3.14894ZM164.613 3.82093L163.172 5.20779L163.745 5.80398L165.186 4.41712L166.627 3.03026L166.054 2.43406L164.613 3.82093ZM165.186 4.41712L163.745 5.80398L164.319 6.40018L165.76 5.01331L167.201 3.62645L166.627 3.03026L165.186 4.41712ZM165.76 5.01331L164.319 6.40018C165.009 7.11681 165.881 7.56679 166.875 7.69916L167.139 5.71666L167.403 3.73415C167.324 3.72366 167.277 3.70474 167.201 3.62645L165.76 5.01331ZM167.139 5.71666L166.875 7.69916L167.68 7.80631L167.944 5.82381L168.208 3.8413L167.403 3.73415L167.139 5.71666ZM167.944 5.82381L167.68 7.80631L168.484 7.91347L168.748 5.93096L169.012 3.94846L168.208 3.8413L167.944 5.82381ZM168.748 5.93096L168.484 7.91347C168.721 7.94496 168.901 8.01862 169.057 8.12648L170.194 6.48105L171.331 4.83562C170.632 4.3529 169.849 4.05983 169.012 3.94846L168.748 5.93096ZM170.194 6.48105L169.057 8.12648L169.698 8.56943L170.835 6.924L171.972 5.27856L171.331 4.83562L170.194 6.48105ZM170.835 6.924L169.698 8.56943L170.339 9.01237L171.476 7.36694L172.613 5.72151L171.972 5.27856L170.835 6.924ZM171.476 7.36694L170.339 9.01237C170.341 9.01362 170.338 9.01124 170.331 9.0049C170.325 8.99849 170.321 8.99237 170.318 8.98871C170.316 8.98528 170.319 8.98861 170.324 9.00216C170.33 9.01606 170.339 9.04217 170.348 9.08375L172.302 8.6583L174.256 8.23286C174.039 7.23304 173.507 6.33895 172.613 5.72151L171.476 7.36694ZM172.302 8.6583L170.348 9.08375L170.533 9.93217L172.487 9.50673L174.441 9.08128L174.256 8.23286L172.302 8.6583ZM172.487 9.50673L170.533 9.93217L170.717 10.7806L172.671 10.3552L174.626 9.92971L174.441 9.08128L172.487 9.50673ZM172.671 10.3552L170.717 10.7806C170.877 11.5125 171.128 12.2102 171.502 12.8392L173.221 11.8168L174.94 10.7944C174.828 10.6057 174.713 10.329 174.626 9.92971L172.671 10.3552ZM173.221 11.8168L171.502 12.8392L171.867 13.4524L173.586 12.43L175.305 11.4076L174.94 10.7944L173.221 11.8168ZM173.586 12.43L171.867 13.4524L172.231 14.0656L173.95 13.0432L175.669 12.0208L175.305 11.4076L173.586 12.43ZM173.95 13.0432L172.231 14.0656C172.434 14.4062 172.614 14.7551 172.772 15.1126L174.601 14.3033L176.43 13.4939C176.207 12.9889 175.953 12.4977 175.669 12.0208L173.95 13.0432ZM174.601 14.3033L172.772 15.1126L173.059 15.7595L174.888 14.9502L176.717 14.1409L176.43 13.4939L174.601 14.3033ZM174.888 14.9502L173.059 15.7595L173.345 16.4065L175.174 15.5971L177.003 14.7878L176.717 14.1409L174.888 14.9502ZM175.174 15.5971L173.345 16.4065C173.609 17.0027 173.953 17.5634 174.364 18.0893L175.94 16.8575L177.515 15.6257C177.287 15.3336 177.121 15.054 177.003 14.7878L175.174 15.5971ZM175.94 16.8575L174.364 18.0893L174.844 18.7028L176.419 17.471L177.995 16.2391L177.515 15.6257L175.94 16.8575ZM176.419 17.471L174.844 18.7028L175.323 19.3163L176.899 18.0844L178.475 16.8526L177.995 16.2391L176.419 17.471ZM176.899 18.0844L175.323 19.3163C175.329 19.3235 175.303 19.2903 175.285 19.2215C175.277 19.19 175.274 19.1609 175.273 19.137C175.273 19.1137 175.275 19.1017 175.275 19.1037L177.244 19.4549L179.213 19.806C179.404 18.7337 179.139 17.7029 178.475 16.8526L176.899 18.0844ZM177.244 19.4549L175.275 19.1037L175.14 19.8606L177.109 20.2118L179.078 20.563L179.213 19.806L177.244 19.4549ZM177.109 20.2118L175.14 19.8606L175.005 20.6176L176.974 20.9688L178.943 21.3199L179.078 20.563L177.109 20.2118ZM176.974 20.9688L175.005 20.6176C174.885 21.2905 174.852 21.9667 174.914 22.6412L176.906 22.458L178.898 22.2749C178.87 21.9729 178.883 21.6563 178.943 21.3199L176.974 20.9688ZM176.906 22.458L174.914 22.6412L174.982 23.3736L176.973 23.1904L178.965 23.0072L178.898 22.2749L176.906 22.458ZM176.973 23.1904L174.982 23.3736L175.049 24.1059L177.041 23.9227L179.032 23.7396L178.965 23.0072L176.973 23.1904ZM177.041 23.9227L175.049 24.1059C175.124 24.9156 175.388 25.6774 175.781 26.3808L177.527 25.4051L179.273 24.4293C179.107 24.1328 179.048 23.9064 179.032 23.7396L177.041 23.9227ZM177.527 25.4051L175.781 26.3808L176.201 27.1308L177.946 26.1551L179.692 25.1793L179.273 24.4293L177.527 25.4051ZM177.946 26.1551L176.201 27.1308L176.62 27.8808L178.366 26.9051L180.111 25.9293L179.692 25.1793L177.946 26.1551ZM178.366 26.9051L176.62 27.8808C176.642 27.9204 176.623 27.9018 176.617 27.8357C176.615 27.8049 176.616 27.774 176.62 27.7461C176.623 27.7186 176.629 27.7022 176.63 27.6986L178.502 28.4051L180.373 29.1116C180.786 28.0163 180.655 26.9021 180.111 25.9293L178.366 26.9051ZM178.502 28.4051L176.63 27.6986L176.347 28.4486L178.218 29.1551L180.089 29.8616L180.373 29.1116L178.502 28.4051ZM178.218 29.1551L176.347 28.4486L176.064 29.1986L177.935 29.9051L179.806 30.6116L180.089 29.8616L178.218 29.1551ZM177.935 29.9051L176.064 29.1986C175.705 30.1503 175.702 31.1493 176.057 32.1034L177.931 31.4051L179.806 30.7068C179.797 30.685 179.795 30.6718 179.794 30.6662C179.792 30.6608 179.793 30.6592 179.793 30.6601C179.793 30.6609 179.792 30.6592 179.794 30.6535C179.795 30.6475 179.798 30.6338 179.806 30.6116L177.935 29.9051ZM177.931 31.4051L176.057 32.1034L176.337 32.8534L178.211 32.1551L180.085 31.4568L179.806 30.7068L177.931 31.4051ZM178.211 32.1551L176.337 32.8534L176.616 33.6034L178.49 32.9051L180.364 32.2068L180.085 31.4568L178.211 32.1551ZM178.49 32.9051L176.616 33.6034C176.66 33.7214 176.658 33.7911 176.635 33.8733L178.563 34.4051L180.491 34.9369C180.744 34.0191 180.693 33.0888 180.364 32.2068L178.49 32.9051ZM178.563 34.4051L176.635 33.8733L176.428 34.6233L178.356 35.1551L180.284 35.6869L180.491 34.9369L178.563 34.4051ZM178.356 35.1551L176.428 34.6233L176.221 35.3733L178.149 35.9051L180.077 36.4369L180.284 35.6869L178.356 35.1551ZM178.149 35.9051L176.221 35.3733C175.999 36.1787 175.972 37.0048 176.147 37.8239L178.103 37.4051L180.059 36.9863C180.02 36.8054 180.024 36.6315 180.077 36.4369L178.149 35.9051ZM178.103 37.4051L176.147 37.8239L176.308 38.5739L178.264 38.1551L180.219 37.7363L180.059 36.9863L178.103 37.4051ZM178.264 38.1551L176.308 38.5739L176.469 39.3239L178.424 38.9051L180.38 38.4863L180.219 37.7363L178.264 38.1551ZM178.424 38.9051L176.469 39.3239C176.551 39.7088 176.597 40.089 176.609 40.4659L178.608 40.4051L180.607 40.3442C180.588 39.7212 180.512 39.1014 180.38 38.4863L178.424 38.9051ZM178.608 40.4051L176.609 40.4659L176.631 41.2159L178.63 41.1551L180.63 41.0942L180.607 40.3442L178.608 40.4051ZM178.63 41.1551L176.631 41.2159L176.654 41.9659L178.653 41.9051L180.652 41.8442L180.63 41.0942L178.63 41.1551ZM178.653 41.9051L176.654 41.9659C176.659 42.1086 176.63 42.2823 176.519 42.5098L178.313 43.393L180.107 44.2763C180.48 43.5198 180.678 42.7016 180.652 41.8442L178.653 41.9051ZM178.313 43.393L176.519 42.5098L176.155 43.2477L177.95 44.1309L179.744 45.0142L180.107 44.2763L178.313 43.393ZM177.95 44.1309L176.155 43.2477L175.792 43.9856L177.586 44.8689L179.381 45.7521L179.744 45.0142L177.95 44.1309ZM177.586 44.8689L175.792 43.9856C175.478 44.624 175.249 45.2868 175.127 45.9707L177.096 46.3207L179.066 46.6707C179.113 46.4027 179.211 46.0976 179.381 45.7521L177.586 44.8689ZM177.096 46.3207L175.127 45.9707L175 46.6846L176.97 47.0346L178.939 47.3846L179.066 46.6707L177.096 46.3207ZM176.97 47.0346L175 46.6846L174.873 47.3985L176.843 47.7485L178.812 48.0985L178.939 47.3846L176.97 47.0346ZM176.843 47.7485L174.873 47.3985C174.821 47.694 174.73 47.9732 174.601 48.2414L176.4 49.1133L178.2 49.9853C178.491 49.3855 178.695 48.7549 178.812 48.0985L176.843 47.7485ZM176.4 49.1133L174.601 48.2414L174.285 48.8923L176.085 49.7643L177.885 50.6362L178.2 49.9853L176.4 49.1133ZM176.085 49.7643L174.285 48.8923L173.97 49.5432L175.77 50.4152L177.57 51.2871L177.885 50.6362L176.085 49.7643ZM175.77 50.4152L173.97 49.5432C173.732 50.0345 173.518 50.5347 173.33 51.0436L175.206 51.7381L177.081 52.4326C177.224 52.0455 177.387 51.6637 177.57 51.2871L175.77 50.4152ZM175.206 51.7381L173.33 51.0436L173.081 51.7156L174.957 52.4101L176.832 53.1046L177.081 52.4326L175.206 51.7381ZM174.957 52.4101L173.081 51.7156L172.832 52.3876L174.708 53.0821L176.583 53.7766L176.832 53.1046L174.957 52.4101ZM174.708 53.0821L172.832 52.3876C172.657 52.8599 172.487 53.3494 172.32 53.8561L174.219 54.4818L176.119 55.1075C176.272 54.6439 176.427 54.2003 176.583 53.7766L174.708 53.0821ZM174.219 54.4818L172.32 53.8561L172.08 54.5837L173.98 55.2095L175.879 55.8352L176.119 55.1075L174.219 54.4818ZM173.98 55.2095L172.08 54.5837L171.84 55.3114L173.74 55.9371L175.64 56.5629L175.879 55.8352L173.98 55.2095ZM173.74 55.9371L171.84 55.3114C171.8 55.4339 171.748 55.5025 171.668 55.566L172.912 57.1319L174.156 58.6979C174.86 58.1386 175.36 57.4107 175.64 56.5629L173.74 55.9371ZM172.912 57.1319L171.668 55.566L171.08 56.0331L172.324 57.599L173.568 59.165L174.156 58.6979L172.912 57.1319ZM172.324 57.599L171.08 56.0331L170.492 56.5002L171.736 58.0661L172.98 59.6321L173.568 59.165L172.324 57.599ZM171.736 58.0661L170.492 56.5002C170.199 56.7328 169.893 56.9309 169.573 57.0967L170.493 58.8726L171.413 60.6484C171.967 60.3618 172.489 60.0223 172.98 59.6321L171.736 58.0661ZM170.493 58.8726L169.573 57.0967L168.918 57.436L169.838 59.2119L170.758 60.9878L171.413 60.6484L170.493 58.8726ZM169.838 59.2119L168.918 57.436L168.263 57.7753L169.183 59.5512L170.103 61.3271L170.758 60.9878L169.838 59.2119ZM169.183 59.5512L168.263 57.7753C167.733 58.0503 167.229 58.3647 166.752 58.7187L167.946 60.3237L169.139 61.9286C169.44 61.7051 169.761 61.5046 170.103 61.3271L169.183 59.5512ZM167.946 60.3237L166.752 58.7187L166.17 59.1518L167.363 60.7568L168.557 62.3618L169.139 61.9286L167.946 60.3237ZM167.363 60.7568L166.17 59.1518L165.587 59.585L166.781 61.1899L167.974 62.7949L168.557 62.3618L167.363 60.7568ZM166.781 61.1899L165.587 59.585C165.302 59.7971 164.997 59.982 164.669 60.1399L165.537 61.9417L166.405 63.7435C166.959 63.4765 167.483 63.1603 167.974 62.7949L166.781 61.1899ZM165.537 61.9417L164.669 60.1399L164.008 60.4585L164.876 62.2603L165.744 64.062L166.405 63.7435L165.537 61.9417ZM164.876 62.2603L164.008 60.4585L163.346 60.7771L164.214 62.5788L165.082 64.3806L165.744 64.062L164.876 62.2603ZM164.214 62.5788L163.346 60.7771C162.901 60.9914 162.446 61.2126 161.98 61.4407L162.86 63.2369L163.739 65.0331C164.198 64.8086 164.646 64.5911 165.082 64.3806L164.214 62.5788ZM162.86 63.2369L161.98 61.4407L161.287 61.7803L162.166 63.5765L163.046 65.3727L163.739 65.0331L162.86 63.2369ZM162.166 63.5765L161.287 61.7803L160.593 62.1198L161.473 63.916L162.353 65.7122L163.046 65.3727L162.166 63.5765ZM161.473 63.916L160.593 62.1198C160.455 62.1877 160.334 62.2088 160.193 62.1965L160.018 64.1888L159.844 66.1812C160.718 66.2577 161.567 66.0969 162.353 65.7122L161.473 63.916ZM160.018 64.1888L160.193 62.1965L159.431 62.1298L159.257 64.1222L159.083 66.1146L159.844 66.1812L160.018 64.1888ZM159.257 64.1222L159.431 62.1298L158.67 62.0632L158.495 64.0556L158.321 66.048L159.083 66.1146L159.257 64.1222ZM158.495 64.0556L158.67 62.0632C158.083 62.0119 157.499 61.9957 156.917 62.0153L156.984 64.0141L157.051 66.013C157.469 65.999 157.892 66.0104 158.321 66.048L158.495 64.0556ZM156.984 64.0141L156.917 62.0153L156.167 62.0405L156.234 64.0393L156.301 66.0382L157.051 66.013L156.984 64.0141ZM156.234 64.0393L156.167 62.0405L155.417 62.0657L155.484 64.0646L155.551 66.0634L156.301 66.0382L156.234 64.0393ZM155.484 64.0646L155.417 62.0657C155.06 62.0777 154.702 62.0517 154.339 61.9863L153.984 63.9547L153.629 65.923C154.266 66.0377 154.908 66.0851 155.551 66.0634L155.484 64.0646ZM153.984 63.9547L154.339 61.9863L153.589 61.8512L153.234 63.8195L152.879 65.7879L153.629 65.923L153.984 63.9547ZM153.234 63.8195L153.589 61.8512L152.839 61.7161L152.484 63.6844L152.129 65.6528L152.879 65.7879L153.234 63.8195ZM152.484 63.6844L152.839 61.7161C152.206 61.6021 151.568 61.5531 150.929 61.5707L150.984 63.57L151.039 65.5692C151.4 65.5593 151.762 65.5866 152.129 65.6528L152.484 63.6844ZM150.984 63.57L150.929 61.5707L150.179 61.5914L150.234 63.5906L150.289 65.5899L151.039 65.5692L150.984 63.57ZM150.234 63.5906L150.179 61.5914L149.429 61.612L149.484 63.6113L149.539 65.6105L150.289 65.5899L150.234 63.5906ZM149.484 63.6113L149.429 61.612C148.846 61.628 148.264 61.6802 147.684 61.7682L147.984 63.7456L148.284 65.723C148.704 65.6594 149.122 65.622 149.539 65.6105L149.484 63.6113ZM147.984 63.7456L147.684 61.7682L146.934 61.8819L147.234 63.8593L147.534 65.8367L148.284 65.723L147.984 63.7456ZM147.234 63.8593L146.934 61.8819L146.184 61.9956L146.484 63.973L146.784 65.9504L147.534 65.8367L147.234 63.8593ZM146.484 63.973L146.184 61.9956C145.807 62.0527 145.433 62.0737 145.061 62.0594L144.984 64.058L144.907 66.0565C145.535 66.0805 146.161 66.0449 146.784 65.9504L146.484 63.973ZM144.984 64.058L145.061 62.0594L144.311 62.0307L144.234 64.0292L144.157 66.0277L144.907 66.0565L144.984 64.058ZM144.234 64.0292L144.311 62.0307L143.561 62.0019L143.484 64.0004L143.407 65.999L144.157 66.0277L144.234 64.0292ZM143.484 64.0004L143.561 62.0019C143.154 61.9863 142.746 61.9422 142.335 61.8691L141.984 63.8381L141.633 65.8071C142.222 65.912 142.814 65.9762 143.407 65.999L143.484 64.0004ZM141.984 63.8381L142.335 61.8691L141.585 61.7355L141.234 63.7045L140.883 65.6735L141.633 65.8071L141.984 63.8381ZM141.234 63.7045L141.585 61.7355L140.835 61.6018L140.484 63.5708L140.133 65.5398L140.883 65.6735L141.234 63.7045ZM140.484 63.5708L140.835 61.6018C139.918 61.4385 139.019 61.5672 138.186 61.93L138.984 63.7638L139.782 65.5975C139.949 65.525 140.05 65.5251 140.133 65.5398L140.484 63.5708ZM138.984 63.7638L138.186 61.93L137.436 62.2565L138.234 64.0903L139.032 65.924L139.782 65.5975L138.984 63.7638ZM138.234 64.0903L137.436 62.2565L136.686 62.5831L137.484 64.4168L138.282 66.2506L139.032 65.924L138.234 64.0903ZM137.484 64.4168L136.686 62.5831C136.41 62.703 136.175 62.7477 135.968 62.7494L135.984 64.7493L136 66.7493C136.793 66.7429 137.558 66.5659 138.282 66.2506L137.484 64.4168ZM135.984 64.7493L135.968 62.7494L135.218 62.7554L135.234 64.7553L135.25 66.7552L136 66.7493L135.984 64.7493ZM135.234 64.7553L135.218 62.7554L134.468 62.7613L134.484 64.7613L134.5 66.7612L135.25 66.7552L135.234 64.7553ZM134.484 64.7613L134.468 62.7613C134.2 62.7635 133.919 62.7207 133.617 62.6198L132.984 64.517L132.351 66.4142C133.049 66.647 133.768 66.7671 134.5 66.7612L134.484 64.7613ZM132.984 64.517L133.617 62.6198L132.867 62.3696L132.234 64.2667L131.601 66.1639L132.351 66.4142L132.984 64.517ZM132.234 64.2667L132.867 62.3696L132.117 62.1193L131.484 64.0165L130.851 65.9136L131.601 66.1639L132.234 64.2667ZM131.484 64.0165L132.117 62.1193C131.406 61.882 130.672 61.7671 129.924 61.7895L129.984 63.7886L130.044 65.7877C130.296 65.7802 130.562 65.8172 130.851 65.9136L131.484 64.0165ZM129.984 63.7886L129.924 61.7895L129.174 61.8119L129.234 63.811L129.294 65.8101L130.044 65.7877L129.984 63.7886ZM129.234 63.811L129.174 61.8119L128.424 61.8343L128.484 63.8334L128.544 65.8325L129.294 65.8101L129.234 63.811ZM128.484 63.8334L128.424 61.8343C128.016 61.8465 127.608 61.8306 127.198 61.7866L126.984 63.7751L126.77 65.7636C127.36 65.8271 127.952 65.8502 128.544 65.8325L128.484 63.8334ZM126.984 63.7751L127.198 61.7866L126.448 61.7058L126.234 63.6944L126.02 65.6829L126.77 65.7636L126.984 63.7751ZM126.234 63.6944L126.448 61.7058L125.698 61.6251L125.484 63.6137L125.27 65.6022L126.02 65.6829L126.234 63.6944ZM125.484 63.6137L125.698 61.6251C125.052 61.5556 124.404 61.5576 123.758 61.6309L123.984 63.6181L124.21 65.6054C124.564 65.5652 124.916 65.5641 125.27 65.6022L125.484 63.6137ZM123.984 63.6181L123.758 61.6309L123.008 61.7161L123.234 63.7033L123.46 65.6905L124.21 65.6054L123.984 63.6181ZM123.234 63.7033L123.008 61.7161L122.258 61.8012L122.484 63.7885L122.71 65.7757L123.46 65.6905L123.234 63.7033ZM122.484 63.7885L122.258 61.8012C121.949 61.8364 121.64 61.8275 121.326 61.773L120.984 63.7437L120.642 65.7143C121.328 65.8331 122.019 65.8541 122.71 65.7757L122.484 63.7885ZM120.984 63.7437L121.326 61.773L120.576 61.643L120.234 63.6137L119.892 65.5843L120.642 65.7143L120.984 63.7437ZM120.234 63.6137L120.576 61.643L119.826 61.5131L119.484 63.4837L119.142 65.4543L119.892 65.5843L120.234 63.6137ZM119.484 63.4837L119.826 61.5131C119.129 61.3924 118.427 61.3768 117.727 61.4676L117.984 63.451L118.241 65.4344C118.541 65.3955 118.839 65.4017 119.142 65.4543L119.484 63.4837ZM117.984 63.451L117.727 61.4676L116.977 61.5649L117.234 63.5483L117.491 65.5317L118.241 65.4344L117.984 63.451ZM117.234 63.5483L116.977 61.5649L116.227 61.6622L116.484 63.6456L116.741 65.629L117.491 65.5317L117.234 63.5483ZM116.484 63.6456L116.227 61.6622C115.849 61.7112 115.474 61.7245 115.099 61.7029L114.984 63.6996L114.869 65.6962C115.494 65.7323 116.119 65.7098 116.741 65.629L116.484 63.6456ZM114.984 63.6996L115.099 61.7029L114.349 61.6595L114.234 63.6562L114.119 65.6529L114.869 65.6962L114.984 63.6996ZM114.234 63.6562L114.349 61.6595L113.599 61.6162L113.484 63.6129L113.369 65.6095L114.119 65.6529L114.234 63.6562ZM113.484 63.6129L113.599 61.6162C112.782 61.569 111.988 61.7139 111.235 62.0178L111.984 63.8724L112.733 65.7269C112.98 65.627 113.186 65.599 113.369 65.6095L113.484 63.6129ZM111.984 63.8724L111.235 62.0178L110.485 62.3206L111.234 64.1752L111.983 66.0297L112.733 65.7269L111.984 63.8724ZM111.234 64.1752L110.485 62.3206L109.735 62.6235L110.484 64.478L111.233 66.3325L111.983 66.0297L111.234 64.1752ZM110.484 64.478L109.735 62.6235C109.37 62.7711 109.019 62.8667 108.682 62.9181L108.984 64.8952L109.286 66.8723C109.949 66.7712 110.598 66.5887 111.233 66.3325L110.484 64.478ZM108.984 64.8952L108.682 62.9181L107.932 63.0324L108.234 65.0096L108.536 66.9867L109.286 66.8723L108.984 64.8952ZM108.234 65.0096L107.932 63.0324L107.182 63.1468L107.484 65.124L107.786 67.1011L108.536 66.9867L108.234 65.0096ZM107.484 65.124L107.182 63.1468C107.187 63.1462 107.194 63.1456 107.202 63.146C107.211 63.1464 107.214 63.1475 107.212 63.1468C107.207 63.1457 107.16 63.1334 107.068 63.0739L105.984 64.7549L104.9 66.436C105.734 66.9734 106.72 67.2636 107.786 67.1011L107.484 65.124ZM105.984 64.7549L107.068 63.0739L106.318 62.5904L105.234 64.2715L104.15 65.9525L104.9 66.436L105.984 64.7549ZM105.234 64.2715L106.318 62.5904L105.568 62.107L104.484 63.788L103.4 65.4691L104.15 65.9525L105.234 64.2715ZM104.484 63.788L105.568 62.107C104.509 61.4244 103.247 61.3055 102.067 61.9137L102.984 63.6913L103.901 65.4689C103.869 65.4853 103.76 65.528 103.605 65.518C103.457 65.5084 103.383 65.4579 103.4 65.4691L104.484 63.788ZM102.984 63.6913L102.067 61.9137L101.317 62.3004L102.234 64.078L103.151 65.8556L103.901 65.4689L102.984 63.6913ZM102.234 64.078L101.317 62.3004L100.567 62.6871L101.484 64.4647L102.401 66.2424L103.151 65.8556L102.234 64.078ZM101.484 64.4647L100.567 62.6871C100.541 62.7006 100.528 62.7049 100.526 62.7054C100.525 62.7057 100.533 62.7034 100.547 62.702C100.562 62.7006 100.578 62.7008 100.592 62.7024C100.605 62.704 100.611 62.7063 100.608 62.705L99.984 64.6054L99.3605 66.5057C100.407 66.8492 101.461 66.7269 102.401 66.2424L101.484 64.4647ZM99.984 64.6054L100.608 62.705L99.8576 62.4589L99.234 64.3593L98.6105 66.2596L99.3605 66.5057L99.984 64.6054ZM99.234 64.3593L99.8576 62.4589L99.1076 62.2129L98.484 64.1132L97.8605 66.0135L98.6105 66.2596L99.234 64.3593ZM98.484 64.1132L99.1076 62.2129C98.4115 61.9844 97.695 61.8673 96.9659 61.8739L96.984 63.8738L97.0021 65.8738C97.273 65.8713 97.5566 65.9138 97.8605 66.0135L98.484 64.1132ZM96.984 63.8738L96.9659 61.8739L96.2159 61.8807L96.234 63.8806L96.2521 65.8805L97.0021 65.8738L96.984 63.8738ZM96.234 63.8806L96.2159 61.8807L95.4659 61.8875L95.484 63.8874L95.5021 65.8873L96.2521 65.8805L96.234 63.8806ZM95.484 63.8874L95.4659 61.8875C94.7916 61.8936 94.1241 61.987 93.467 62.1628L93.984 64.0948L94.501 66.0269C94.8439 65.9351 95.1764 65.8903 95.5021 65.8873L95.484 63.8874ZM93.984 64.0948L93.467 62.1628L92.717 62.3635L93.234 64.2955L93.751 66.2276L94.501 66.0269L93.984 64.0948ZM93.234 64.2955L92.717 62.3635L91.967 62.5642L92.484 64.4962L93.001 66.4282L93.751 66.2276L93.234 64.2955ZM92.484 64.4962L91.967 62.5642C91.7682 62.6174 91.5883 62.6208 91.4012 62.5809L90.984 64.5369L90.5668 66.4929C91.3797 66.6663 92.1998 66.6426 93.001 66.4282L92.484 64.4962ZM90.984 64.5369L91.4012 62.5809L90.6512 62.4209L90.234 64.3769L89.8168 66.3329L90.5668 66.4929L90.984 64.5369ZM90.234 64.3769L90.6512 62.4209L89.9012 62.261L89.484 64.217L89.0668 66.173L89.8168 66.3329L90.234 64.3769ZM89.484 64.217L89.9012 62.261C89.357 62.1449 88.8118 62.0479 88.2659 61.9702L87.984 63.9502L87.7021 65.9302C88.1562 65.9949 88.6111 66.0758 89.0668 66.173L89.484 64.217ZM87.984 63.9502L88.2659 61.9702L87.5159 61.8634L87.234 63.8434L86.9521 65.8235L87.7021 65.9302L87.984 63.9502ZM87.234 63.8434L87.5159 61.8634L86.7659 61.7566L86.484 63.7366L86.2021 65.7167L86.9521 65.8235L87.234 63.8434ZM86.484 63.7366L86.7659 61.7566C85.7966 61.6186 84.8721 61.823 84.0456 62.2622L84.984 64.0283L85.9224 65.7945C86.0959 65.7023 86.1714 65.7123 86.2021 65.7167L86.484 63.7366ZM84.984 64.0283L84.0456 62.2622L83.2956 62.6606L84.234 64.4268L85.1724 66.193L85.9224 65.7945L84.984 64.0283ZM84.234 64.4268L83.2956 62.6606L82.5456 63.0591L83.484 64.8253L84.4224 66.5915L85.1724 66.193L84.234 64.4268ZM83.484 64.8253L82.5456 63.0591C82.6046 63.0278 82.7557 62.9731 82.9545 62.9952C83.1387 63.0156 83.2201 63.0861 83.1873 63.0614L81.984 64.6589L80.7808 66.2565C81.2479 66.6084 81.8294 66.8949 82.5135 66.9708C83.2124 67.0483 83.8634 66.8885 84.4224 66.5915L83.484 64.8253ZM81.984 64.6589L83.1873 63.0614L82.4373 62.4965L81.234 64.094L80.0308 65.6916L80.7808 66.2565L81.984 64.6589ZM81.234 64.094L82.4373 62.4965L81.6873 61.9316L80.484 63.5292L79.2808 65.1267L80.0308 65.6916L81.234 64.094ZM80.484 63.5292L81.6873 61.9316C80.9338 61.3641 80.031 60.9677 79.0081 60.9554L78.984 62.9552L78.9599 64.9551C78.9607 64.9551 78.9641 64.9552 78.9718 64.9567C78.9797 64.9582 78.9953 64.962 79.0193 64.9712C79.068 64.9898 79.1556 65.0324 79.2808 65.1267L80.484 63.5292ZM78.984 62.9552L79.0081 60.9554L78.2581 60.9464L78.234 62.9462L78.2099 64.9461L78.9599 64.9551L78.984 62.9552ZM78.234 62.9462L78.2581 60.9464L77.5081 60.9373L77.484 62.9372L77.4599 64.937L78.2099 64.9461L78.234 62.9462ZM77.484 62.9372L77.5081 60.9373C76.5144 60.9254 75.618 61.2684 74.8517 61.7947L75.984 63.4433L77.1163 65.0919C77.35 64.9313 77.4536 64.937 77.4599 64.937L77.484 62.9372ZM75.984 63.4433L74.8517 61.7947L74.1017 62.3098L75.234 63.9584L76.3663 65.607L77.1163 65.0919L75.984 63.4433ZM75.234 63.9584L74.1017 62.3098L73.3517 62.825L74.484 64.4736L75.6163 66.1221L76.3663 65.607L75.234 63.9584ZM74.484 64.4736L73.3517 62.825C73.0948 63.0014 72.9505 63.0208 72.8974 63.0231L72.984 65.0212L73.0706 67.0193C74.0176 66.9783 74.8732 66.6325 75.6163 66.1221L74.484 64.4736ZM72.984 65.0212L72.8974 63.0231L72.1474 63.0556L72.234 65.0537L72.3206 67.0519L73.0706 67.0193L72.984 65.0212ZM72.234 65.0537L72.1474 63.0556L71.3974 63.0881L71.484 65.0862L71.5706 67.0844L72.3206 67.0519L72.234 65.0537ZM71.484 65.0862L71.3974 63.0881C71.2861 63.0929 71.129 63.0727 70.8992 62.9544L69.984 64.7328L69.0688 66.5111C69.839 66.9075 70.682 67.1229 71.5706 67.0844L71.484 65.0862ZM69.984 64.7328L70.8992 62.9544L70.1492 62.5685L69.234 64.3468L68.3188 66.1252L69.0688 66.5111L69.984 64.7328ZM69.234 64.3468L70.1492 62.5685L69.3992 62.1825L68.484 63.9609L67.5688 65.7392L68.3188 66.1252L69.234 64.3468ZM68.484 63.9609L69.3992 62.1825C68.6801 61.8125 67.9077 61.5814 67.0945 61.5365L66.984 63.5334L66.8736 65.5304C67.0603 65.5407 67.288 65.5946 67.5688 65.7392L68.484 63.9609ZM66.984 63.5334L67.0945 61.5365L66.3445 61.495L66.234 63.4919L66.1236 65.4889L66.8736 65.5304L66.984 63.5334ZM66.234 63.4919L66.3445 61.495L65.5945 61.4535L65.484 63.4504L65.3736 65.4474L66.1236 65.4889L66.234 63.4919ZM65.484 63.4504L65.5945 61.4535C64.6439 61.4009 63.7584 61.6626 62.9741 62.1214L63.984 63.8477L64.9939 65.574C65.2096 65.4478 65.3241 65.4447 65.3736 65.4474L65.484 63.4504ZM63.984 63.8477L62.9741 62.1214L62.2241 62.5602L63.234 64.2865L64.2439 66.0128L64.9939 65.574L63.984 63.8477ZM63.234 64.2865L62.2241 62.5602L61.4741 62.9989L62.484 64.7252L63.4939 66.4515L64.2439 66.0128L63.234 64.2865ZM62.484 64.7252L61.4741 62.9989C61.5193 62.9725 61.6709 62.9051 61.8872 62.9217C62.092 62.9374 62.1925 63.0162 62.1723 63.0013L60.984 64.61L59.7957 66.2187C60.2755 66.5731 60.876 66.8558 61.5808 66.9099C62.2971 66.965 62.9487 66.7705 63.4939 66.4515L62.484 64.7252ZM60.984 64.61L62.1723 63.0013L61.4223 62.4473L60.234 64.056L59.0457 65.6647L59.7957 66.2187L60.984 64.61ZM60.234 64.056L61.4223 62.4473L60.6723 61.8933L59.484 63.5019L58.2957 65.1106L59.0457 65.6647L60.234 64.056ZM59.484 63.5019L60.6723 61.8933C59.87 61.3006 58.883 60.9214 57.7759 61.0373L57.984 63.0264L58.1921 65.0155C58.1777 65.017 58.1621 65.017 58.1478 65.0155C58.1337 65.014 58.127 65.0117 58.1296 65.0125C58.1352 65.0143 58.1907 65.0331 58.2957 65.1106L59.484 63.5019ZM57.984 63.0264L57.7759 61.0373L57.0259 61.1157L57.234 63.1049L57.4421 65.094L58.1921 65.0155L57.984 63.0264ZM57.234 63.1049L57.0259 61.1157L56.2759 61.1942L56.484 63.1833L56.6921 65.1725L57.4421 65.094L57.234 63.1049ZM56.484 63.1833L56.2759 61.1942C55.8544 61.2383 55.4338 61.2571 55.0135 61.2509L54.984 63.2507L54.9545 65.2505C55.5343 65.2591 56.1136 65.233 56.6921 65.1725L56.484 63.1833ZM54.984 63.2507L55.0135 61.2509L54.2635 61.2399L54.234 63.2396L54.2045 65.2394L54.9545 65.2505L54.984 63.2507ZM54.234 63.2396L54.2635 61.2399L53.5135 61.2288L53.484 63.2286L53.4545 65.2284L54.2045 65.2394L54.234 63.2396ZM53.484 63.2286L53.5135 61.2288C52.7957 61.2182 52.0883 61.3236 51.3982 61.535L51.984 63.4473L52.5699 65.3595C52.8797 65.2646 53.1723 65.2242 53.4545 65.2284L53.484 63.2286ZM51.984 63.4473L51.3982 61.535L50.6482 61.7648L51.234 63.677L51.8199 65.5893L52.5699 65.3595L51.984 63.4473ZM51.234 63.677L50.6482 61.7648L49.8982 61.9945L50.484 63.9068L51.0699 65.8191L51.8199 65.5893L51.234 63.677ZM50.484 63.9068L49.8982 61.9945C49.7965 62.0257 49.7199 62.0261 49.6099 61.9899L48.984 63.8895L48.3581 65.789C49.2481 66.0823 50.1715 66.0943 51.0699 65.8191L50.484 63.9068ZM48.984 63.8895L49.6099 61.9899L48.8599 61.7428L48.234 63.6423L47.6081 65.5418L48.3581 65.789L48.984 63.8895ZM48.234 63.6423L48.8599 61.7428L48.1099 61.4956L47.484 63.3952L46.8581 65.2947L47.6081 65.5418L48.234 63.6423ZM47.484 63.3952L48.1099 61.4956C47.0151 61.1349 45.9276 61.3047 44.9875 61.845L45.984 63.579L46.9805 65.3131C47.0321 65.2834 47.0283 65.2965 46.9773 65.3027C46.9536 65.3056 46.9279 65.3059 46.9032 65.3034C46.8787 65.3008 46.863 65.2963 46.8581 65.2947L47.484 63.3952ZM45.984 63.579L44.9875 61.845L44.2375 62.276L45.234 64.01L46.2305 65.7441L46.9805 65.3131L45.984 63.579ZM45.234 64.01L44.2375 62.276L43.4875 62.707L44.484 64.441L45.4805 66.1751L46.2305 65.7441L45.234 64.01ZM44.484 64.441L43.4875 62.707C43.481 62.7107 43.5523 62.6704 43.6819 62.667C43.8136 62.6636 43.8979 62.7011 43.9103 62.7076L42.984 64.4801L42.0578 66.2527C43.1794 66.8388 44.4042 66.7936 45.4805 66.1751L44.484 64.441ZM42.984 64.4801L43.9103 62.7076L43.1603 62.3157L42.234 64.0882L41.3078 65.8608L42.0578 66.2527L42.984 64.4801ZM42.234 64.0882L43.1603 62.3157L42.4103 61.9238L41.484 63.6963L40.5578 65.4689L41.3078 65.8608L42.234 64.0882ZM41.484 63.6963L42.4103 61.9238C41.5605 61.4797 40.6095 61.2938 39.6221 61.4755L39.984 63.4424L40.3459 65.4094C40.3585 65.4071 40.4075 65.3904 40.5578 65.4689L41.484 63.6963ZM39.984 63.4424L39.6221 61.4755L38.8721 61.6134L39.234 63.5804L39.5959 65.5474L40.3459 65.4094L39.984 63.4424ZM39.234 63.5804L38.8721 61.6134L38.1221 61.7514L38.484 63.7184L38.8459 65.6854L39.5959 65.5474L39.234 63.5804ZM38.484 63.7184L38.1221 61.7514C37.7126 61.8268 37.3057 61.8726 36.9006 61.8895L36.984 63.8877L37.0674 65.886C37.6623 65.8612 38.2554 65.7941 38.8459 65.6854L38.484 63.7184ZM36.984 63.8877L36.9006 61.8895L36.1506 61.9208L36.234 63.919L36.3174 65.9173L37.0674 65.886L36.984 63.8877ZM36.234 63.919L36.1506 61.9208L35.4006 61.9521L35.484 63.9503L35.5674 65.9486L36.3174 65.9173L36.234 63.919ZM35.484 63.9503L35.4006 61.9521C34.8004 61.9771 34.2023 62.0471 33.6072 62.1613L33.984 64.1255L34.3609 66.0897C34.7657 66.012 35.1676 65.9653 35.5674 65.9486L35.484 63.9503ZM33.984 64.1255L33.6072 62.1613L32.8572 62.3052L33.234 64.2694L33.6109 66.2336L34.3609 66.0897L33.984 64.1255ZM33.234 64.2694L32.8572 62.3052L32.1072 62.4491L32.484 64.4133L32.8609 66.3775L33.6109 66.2336L33.234 64.2694ZM32.484 64.4133L32.1072 62.4491C31.9841 62.4727 31.8552 62.4685 31.6811 62.4037L30.984 64.2783L30.287 66.1529C31.1128 66.46 31.9839 66.5457 32.8609 66.3775L32.484 64.4133ZM30.984 64.2783L31.6811 62.4037L30.9311 62.1248L30.234 63.9994L29.537 65.874L30.287 66.1529L30.984 64.2783ZM30.234 63.9994L30.9311 62.1248L30.1811 61.846L29.484 63.7206L28.787 65.5951L29.537 65.874L30.234 63.9994ZM29.484 63.7206L30.1811 61.846C29.4314 61.5672 28.6467 61.4429 27.8444 61.499L27.984 63.4942L28.1236 65.4893C28.3213 65.4754 28.5366 65.5021 28.787 65.5951L29.484 63.7206ZM27.984 63.4942L27.8444 61.499L27.0944 61.5515L27.234 63.5466L27.3736 65.5418L28.1236 65.4893L27.984 63.4942ZM27.234 63.5466L27.0944 61.5515L26.3444 61.604L26.484 63.5991L26.6236 65.5943L27.3736 65.5418L27.234 63.5466ZM26.484 63.5991L26.3444 61.604C25.7078 61.6486 25.0768 61.7581 24.4531 61.9294L24.983 63.858L25.5128 65.7865C25.8905 65.6827 26.2602 65.6197 26.6236 65.5943L26.484 63.5991ZM24.983 63.858L24.4531 61.9294L23.7021 62.1358L24.232 64.0643L24.7618 65.9928L25.5128 65.7865L24.983 63.858ZM24.232 64.0643L23.7021 62.1358L22.9511 62.3421L23.4809 64.2706L24.0108 66.1992L24.7618 65.9928L24.232 64.0643ZM23.4809 64.2706L22.9511 62.3421C22.7266 62.4038 22.5218 62.4122 22.3161 62.377L21.9785 64.3483L21.641 66.3196C22.4371 66.4559 23.2339 66.4126 24.0108 66.1992L23.4809 64.2706ZM21.9785 64.3483L22.3161 62.377L21.5647 62.2483L21.2272 64.2197L20.8896 66.191L21.641 66.3196L21.9785 64.3483ZM21.2272 64.2197L21.5647 62.2483L20.8134 62.1197L20.4758 64.091L20.1383 66.0623L20.8896 66.191L21.2272 64.2197ZM20.4758 64.091L20.8134 62.1197C20.2776 62.028 19.7386 61.9503 19.1965 61.8866L18.9633 63.873L18.7301 65.8594C19.2028 65.9149 19.6722 65.9825 20.1383 66.0623L20.4758 64.091ZM18.9633 63.873L19.1965 61.8866L18.4353 61.7973L18.2021 63.7836L17.969 65.77L18.7301 65.8594L18.9633 63.873ZM18.2021 63.7836L18.4353 61.7973L17.6741 61.7079L17.441 63.6943L17.2078 65.6807L17.969 65.77L18.2021 63.7836ZM17.441 63.6943L17.6741 61.7079C17.4229 61.6784 17.1931 61.6049 16.9713 61.483L16.008 63.2358L15.0448 64.9886C15.7186 65.3589 16.4442 65.591 17.2078 65.6807L17.441 63.6943ZM16.008 63.2358L16.9713 61.483L16.2995 61.1139L15.3363 62.8666L14.373 64.6194L15.0448 64.9886L16.008 63.2358ZM15.3363 62.8666L16.2995 61.1139L15.6278 60.7447L14.6645 62.4975L13.7013 64.2502L14.373 64.6194L15.3363 62.8666ZM14.6645 62.4975L15.6278 60.7447C15.2628 60.5441 14.9199 60.3221 14.5978 60.0788L13.3923 61.6746L12.1867 63.2705C12.6653 63.632 13.1706 63.9586 13.7013 64.2502L14.6645 62.4975ZM13.3923 61.6746L14.5978 60.0788L13.9973 59.6252L12.7918 61.221L11.5862 62.8168L12.1867 63.2705L13.3923 61.6746ZM12.7918 61.221L13.9973 59.6252L13.3968 59.1715L12.1912 60.7673L10.9857 62.3632L11.5862 62.8168L12.7918 61.221ZM12.1912 60.7673L13.3968 59.1715C13.1638 58.9955 12.9653 58.7898 12.7963 58.5484L11.1579 59.6955L9.51953 60.8425C9.92767 61.4255 10.418 61.9343 10.9857 62.3632L12.1912 60.7673ZM11.1579 59.6955L12.7963 58.5484L12.3635 57.9302L10.7251 59.0772L9.08669 60.2243L9.51953 60.8425L11.1579 59.6955ZM10.7251 59.0772L12.3635 57.9302L11.9306 57.3119L10.2922 58.459L8.65386 59.606L9.08669 60.2243L10.7251 59.0772ZM10.2922 58.459L11.9306 57.3119C11.368 56.5083 10.5844 55.9747 9.69765 55.6744L9.05627 57.5688L8.41488 59.4632C8.59904 59.5255 8.63938 59.5853 8.65386 59.606L10.2922 58.459ZM9.05627 57.5688L9.69765 55.6744L8.8945 55.4025L8.25312 57.2969L7.61173 59.1912L8.41488 59.4632L9.05627 57.5688ZM8.25312 57.2969L8.8945 55.4025L8.09135 55.1306L7.44997 57.025L6.80858 58.9193L7.61173 59.1912L8.25312 57.2969ZM7.44997 57.025L8.09135 55.1306C8.09616 55.1322 8.20529 55.1726 8.32057 55.3048C8.43876 55.4404 8.47403 55.5698 8.48096 55.6105L6.50938 55.9464L4.53779 56.2824C4.63635 56.8608 4.8742 57.4388 5.30592 57.9339C5.73473 58.4256 6.26835 58.7364 6.80858 58.9193L7.44997 57.025ZM6.50938 55.9464L8.48096 55.6105L8.34352 54.8038L6.37193 55.1398L4.40035 55.4757L4.53779 56.2824L6.50938 55.9464ZM6.37193 55.1398L8.34352 54.8038L8.20608 53.9972L6.23449 54.3332L4.26291 54.6691L4.40035 55.4757L6.37193 55.1398ZM6.23449 54.3332L8.20608 53.9972C8.07493 53.2276 7.81191 52.4962 7.39198 51.8344L5.70323 52.9059L4.01448 53.9774C4.11964 54.1431 4.21079 54.3633 4.26291 54.6691L6.23449 54.3332ZM5.70323 52.9059L7.39198 51.8344L6.99816 51.2137L5.30941 52.2852L3.62066 53.3567L4.01448 53.9774L5.70323 52.9059ZM5.30941 52.2852L6.99816 51.2137L6.60434 50.593L4.91559 51.6645L3.22684 52.736L3.62066 53.3567L5.30941 52.2852ZM4.91559 51.6645L6.60434 50.593C6.49886 50.4267 6.43654 50.2548 6.41106 50.0573L4.4275 50.3133L2.44395 50.5692C2.54415 51.3458 2.80723 52.0747 3.22684 52.736L4.91559 51.6645ZM4.4275 50.3133L6.41106 50.0573L6.31679 49.3268L4.33324 49.5828L2.34968 49.8387L2.44395 50.5692L4.4275 50.3133ZM4.33324 49.5828L6.31679 49.3268L6.22252 48.5963L4.23897 48.8522L2.25541 49.1082L2.34968 49.8387L4.33324 49.5828ZM4.23897 48.8522L6.22252 48.5963C6.09938 47.642 5.66166 46.8183 5.07109 46.1337L3.55665 47.44L2.04221 48.7463C2.23571 48.9706 2.25287 49.0884 2.25541 49.1082L4.23897 48.8522ZM3.55665 47.44L5.07109 46.1337L4.48304 45.4519L2.9686 46.7582L1.45416 48.0646L2.04221 48.7463L3.55665 47.44ZM2.9686 46.7582L4.48304 45.4519L3.89499 44.7702L2.38055 46.0765L0.866112 47.3828L1.45416 48.0646L2.9686 46.7582ZM2.38055 46.0765L3.89499 44.7702C3.91391 44.7921 4.04043 44.9563 4.05902 45.2446C4.07738 45.5294 3.97501 45.6999 3.96841 45.7101L2.28709 44.627L0.605758 43.5439C0.269444 44.066 0.017782 44.7339 0.0673063 45.502C0.117047 46.2733 0.455165 46.9064 0.866112 47.3828L2.38055 46.0765ZM2.28709 44.627L3.96841 45.7101L4.463 44.9424L2.78167 43.8593L1.10034 42.7762L0.605758 43.5439L2.28709 44.627ZM2.78167 43.8593L4.463 44.9424L4.95758 44.1746L3.27625 43.0915L1.59492 42.0084L1.10034 42.7762L2.78167 43.8593ZM3.27625 43.0915L4.95758 44.1746C5.44156 43.4234 5.76442 42.5687 5.7923 41.6334L3.79319 41.5738L1.79408 41.5142C1.79215 41.5788 1.77038 41.736 1.59492 42.0084L3.27625 43.0915ZM3.79319 41.5738L5.7923 41.6334L5.81466 40.8834L3.81555 40.8238L1.81644 40.7642L1.79408 41.5142L3.79319 41.5738ZM3.81555 40.8238L5.81466 40.8834L5.83702 40.1334L3.83791 40.0738L1.83879 40.0142L1.81644 40.7642L3.81555 40.8238ZM3.83791 40.0738L5.83702 40.1334C5.86719 39.1212 5.52126 38.2094 4.98573 37.4356L3.34119 38.5738L1.69664 39.712C1.77749 39.8288 1.81189 39.909 1.8263 39.9525C1.83956 39.9926 1.83892 40.0099 1.83879 40.0142L3.83791 40.0738ZM3.34119 38.5738L4.98573 37.4356L4.46666 36.6856L2.82211 37.8238L1.17757 38.962L1.69664 39.712L3.34119 38.5738ZM2.82211 37.8238L4.46666 36.6856L3.94758 35.9356L2.30304 37.0738L0.658493 38.212L1.17757 38.962L2.82211 37.8238ZM2.30304 37.0738L3.94758 35.9356C3.92757 35.9067 3.98195 35.9751 3.99698 36.1279C4.01302 36.2909 3.97104 36.4142 3.94765 36.4615L2.15543 35.5738L0.363211 34.6861C-0.241348 35.9067 -0.0559897 37.1796 0.658493 38.212L2.30304 37.0738ZM2.15543 35.5738L3.94765 36.4615L4.31912 35.7115L2.5269 34.8238L0.734678 33.9361L0.363211 34.6861L2.15543 35.5738ZM2.5269 34.8238L4.31912 35.7115L4.69058 34.9615L2.89836 34.0738L1.10615 33.1861L0.734678 33.9361L2.5269 34.8238ZM2.89836 34.0738L4.69058 34.9615C5.08608 34.1629 5.27633 33.2879 5.18425 32.3734L3.19431 32.5738L1.20438 32.7742C1.21299 32.8597 1.20594 32.9846 1.10615 33.1861L2.89836 34.0738ZM3.19431 32.5738L5.18425 32.3734L5.10873 31.6234L3.11879 31.8238L1.12886 32.0242L1.20438 32.7742L3.19431 32.5738ZM3.11879 31.8238L5.10873 31.6234L5.03321 30.8734L3.04328 31.0738L1.05334 31.2742L1.12886 32.0242L3.11879 31.8238ZM3.04328 31.0738L5.03321 30.8734C4.96874 30.2331 4.83694 29.6002 4.64171 28.9764L2.73302 29.5738L0.824323 30.1712C0.942079 30.5474 1.01713 30.9145 1.05334 31.2742L3.04328 31.0738ZM2.73302 29.5738L4.64171 28.9764L4.40697 28.2264L2.49828 28.8238L0.589582 29.4212L0.824323 30.1712L2.73302 29.5738ZM2.49828 28.8238L4.40697 28.2264L4.17223 27.4764L2.26354 28.0738L0.354842 28.6712L0.589582 29.4212L2.49828 28.8238ZM2.26354 28.0738L4.17223 27.4764C4.17725 27.4924 4.18374 27.5198 4.18633 27.556C4.18894 27.5925 4.18686 27.6278 4.18162 27.6587C4.17074 27.7227 4.15367 27.7274 4.19314 27.6669L2.51831 26.5738L0.843485 25.4806C0.241813 26.4025 -0.00632143 27.5173 0.354842 28.6712L2.26354 28.0738ZM2.51831 26.5738L4.19314 27.6669L4.68266 26.9169L3.00783 25.8238L1.333 24.7306L0.843485 25.4806L2.51831 26.5738ZM3.00783 25.8238L4.68266 26.9169L5.17217 26.1669L3.49734 25.0738L1.82252 23.9806L1.333 24.7306L3.00783 25.8238ZM3.49734 25.0738L5.17217 26.1669C5.66559 25.4109 5.98987 24.534 5.97687 23.5681L3.97705 23.5951L1.97723 23.622C1.97731 23.6277 1.98178 23.7366 1.82252 23.9806L3.49734 25.0738ZM3.97705 23.5951L5.97687 23.5681L5.96706 22.8394L3.96724 22.8663L1.96742 22.8933L1.97723 23.622L3.97705 23.5951ZM3.96724 22.8663L5.96706 22.8394L5.95724 22.1107L3.95743 22.1376L1.95761 22.1646L1.96742 22.8933L3.96724 22.8663ZM3.95743 22.1376L5.95724 22.1107C5.95066 21.6215 5.9428 21.1305 5.93368 20.6376L3.93402 20.6746L1.93436 20.7117C1.94336 21.1978 1.95111 21.6821 1.95761 22.1646L3.95743 22.1376ZM3.93402 20.6746L5.93368 20.6376L5.92008 19.9033L3.92043 19.9404L1.92077 19.9774L1.93436 20.7117L3.93402 20.6746ZM3.92043 19.9404L5.92008 19.9033L5.90649 19.1691L3.90683 19.2061L1.90717 19.2431L1.92077 19.9774L3.92043 19.9404ZM3.90683 19.2061L5.90649 19.1691C5.89654 18.6315 5.86665 18.0709 5.81781 17.4881L3.8248 17.6551L1.83178 17.8221C1.87419 18.3282 1.899 18.8016 1.90717 19.2431L3.90683 19.2061ZM3.8248 17.6551L5.81781 17.4881L5.74937 16.6713L3.75636 16.8383L1.76334 17.0053L1.83178 17.8221L3.8248 17.6551ZM3.75636 16.8383L5.74937 16.6713L5.68093 15.8545L3.68792 16.0216L1.6949 16.1886L1.76334 17.0053L3.75636 16.8383ZM3.68792 16.0216L5.68093 15.8545C5.67936 15.8357 5.68066 15.8317 5.67979 15.8399C5.67886 15.8485 5.67614 15.8648 5.66932 15.8855C5.66246 15.9064 5.65378 15.9248 5.64543 15.939C5.63727 15.9529 5.63262 15.9573 5.63664 15.9528L4.14962 14.6154L2.6626 13.2779C1.92634 14.0965 1.60496 15.1153 1.6949 16.1886L3.68792 16.0216ZM4.14962 14.6154L5.63664 15.9528L6.16678 15.3634L4.67976 14.0259L3.19274 12.6885L2.6626 13.2779L4.14962 14.6154ZM4.67976 14.0259L6.16678 15.3634L6.69693 14.774L5.2099 13.4365L3.72288 12.0991L3.19274 12.6885L4.67976 14.0259ZM5.2099 13.4365L6.69693 14.774C6.96362 14.4774 7.24761 14.2192 7.54885 13.9959L6.35802 12.3891L5.16719 10.7823C4.64447 11.1696 4.16304 11.6097 3.72288 12.0991L5.2099 13.4365ZM6.35802 12.3891L7.54885 13.9959L8.16683 13.5379L6.976 11.9311L5.78517 10.3243L5.16719 10.7823L6.35802 12.3891ZM6.976 11.9311L8.16683 13.5379L8.78481 13.08L7.59398 11.4731L6.40314 9.86628L5.78517 10.3243L6.976 11.9311ZM7.59398 11.4731L8.78481 13.08C9.45896 12.5803 9.98625 11.9408 10.3479 11.1834L8.54303 10.3217L6.73819 9.45999C6.65837 9.62717 6.55296 9.75525 6.40314 9.86628L7.59398 11.4731ZM8.54303 10.3217L10.3479 11.1834L10.6789 10.49L8.8741 9.6283L7.06927 8.76658L6.73819 9.45999L8.54303 10.3217ZM8.8741 9.6283L10.6789 10.49L11.01 9.79661L9.20518 8.93488L7.40034 8.07316L7.06927 8.76658L8.8741 9.6283ZM9.20518 8.93488L11.01 9.79661C11.1249 9.55607 11.2717 9.35686 11.4547 9.18574L10.0888 7.72483L8.72289 6.26392C8.16916 6.78165 7.72693 7.38914 7.40034 8.07316L9.20518 8.93488ZM10.0888 7.72483L11.4547 9.18574L12.0073 8.66911L10.6414 7.2082L9.27545 5.74729L8.72289 6.26392L10.0888 7.72483ZM10.6414 7.2082L12.0073 8.66911L12.5599 8.15248L11.1939 6.69157L9.82801 5.23066L9.27545 5.74729L10.6414 7.2082ZM11.1939 6.69157L12.5599 8.15248C12.7584 7.96683 12.9783 7.82337 13.2285 7.7164L12.4422 5.87745L11.6559 4.0385C10.9785 4.32817 10.3662 4.72745 9.82801 5.23066L11.1939 6.69157ZM12.4422 5.87745L13.2285 7.7164L13.9243 7.41892L13.138 5.57997L12.3517 3.74102L11.6559 4.0385L12.4422 5.87745ZM13.138 5.57997L13.9243 7.41892L14.62 7.12144L13.8337 5.28249L13.0474 3.44354L12.3517 3.74102L13.138 5.57997ZM13.8337 5.28249L14.62 7.12144C14.9774 6.96864 15.3395 6.85026 15.7074 6.76496L15.2557 4.81664L14.8039 2.86832C14.2036 3.00752 13.6177 3.1997 13.0474 3.44354L13.8337 5.28249ZM15.2557 4.81664L15.7074 6.76496L16.4336 6.59658L15.9819 4.64826L15.5301 2.69994L14.8039 2.86832L15.2557 4.81664ZM15.9819 4.64826L16.4336 6.59658L17.1598 6.42821L16.7081 4.47989L16.2563 2.53157L15.5301 2.69994L15.9819 4.64826ZM16.7081 4.47989L17.1598 6.42821C17.6383 6.31726 18.113 6.20938 18.5838 6.10456L18.1492 4.15235L17.7146 2.20014C17.2322 2.30755 16.7461 2.41802 16.2563 2.53157L16.7081 4.47989ZM18.1492 4.15235L18.5838 6.10456L19.2988 5.94539L18.8642 3.99318L18.4296 2.04097L17.7146 2.20014L18.1492 4.15235ZM18.8642 3.99318L19.2988 5.94539L20.0138 5.78623L19.5792 3.83402L19.1446 1.88181L18.4296 2.04097L18.8642 3.99318ZM19.5792 3.83402L20.0138 5.78623C20.3505 5.71126 20.6423 5.68435 20.8947 5.69077L20.9455 3.69141L20.9964 1.69206C20.3803 1.67639 19.7611 1.74455 19.1446 1.88181L19.5792 3.83402ZM20.9455 3.69141L20.8947 5.69077L21.5461 5.70733L21.5969 3.70798L21.6477 1.70862L20.9964 1.69206L20.9455 3.69141ZM21.5969 3.70798L21.5461 5.70733L22.1974 5.72389L22.2483 3.72454L22.2991 1.72518L21.6477 1.70862L21.5969 3.70798ZM22.2483 3.72454L22.1974 5.72389C22.4558 5.73046 22.8248 5.7276 23.1875 5.64373C23.3587 5.60412 23.7068 5.50824 24.0535 5.25011C24.4657 4.94315 24.8997 4.3715 24.8997 3.57389H22.8997H20.8997C20.8997 2.83202 21.3065 2.30845 21.6644 2.04192C21.9568 1.8242 22.2235 1.76108 22.2862 1.74659C22.4317 1.71293 22.475 1.72966 22.2991 1.72518L22.2483 3.72454ZM22.8997 3.57389H24.8997V3.40668H22.8997H20.8997V3.57389H22.8997ZM22.8997 3.40668H24.8997V3.23947H22.8997H20.8997V3.40668H22.8997ZM22.8997 3.23947H24.8997C24.8997 4.0679 24.4045 4.56826 24.1491 4.7605C23.9113 4.93942 23.7045 5.00099 23.6734 5.01054C23.5888 5.03647 23.6041 5.02033 23.8164 5.00258L23.6497 3.00954L23.483 1.0165C23.1952 1.04057 22.8355 1.08365 22.5009 1.18623C22.3448 1.23411 22.0443 1.33835 21.744 1.5643C21.426 1.80357 20.8997 2.35532 20.8997 3.23947H22.8997ZM23.6497 3.00954L23.8164 5.00258L24.5664 4.93985L24.3997 2.94681L24.233 0.953766L23.483 1.0165L23.6497 3.00954Z" fill="white"/>
</svg>
