<svg width="162" height="64" viewBox="0 0 162 64" fill="none" xmlns="http://www.w3.org/2000/svg">
<path d="M20.3224 2.53545L20.0505 1.0603L20.3224 2.53545ZM21.8224 2.74691L22.4564 1.38744L21.8224 2.74691ZM22.5724 3.09663L21.9385 4.4561L22.5724 3.09663ZM23.3224 3.44634L23.9564 2.08687L23.3224 3.44634ZM24.8224 3.30798L25.6406 4.56521L24.8224 3.30798ZM25.5724 2.81991L24.7543 1.56268L25.5724 2.81991ZM26.3224 2.33183L25.5043 1.07461L26.3224 2.33183ZM27.8224 2.5559L28.8553 1.46815L27.8224 2.5559ZM28.5724 3.26805L27.5396 4.35581L28.5724 3.26805ZM29.3224 3.9802L28.2896 5.06795L29.3224 3.9802ZM30.8224 4.21444L31.6285 5.47944L30.8224 4.21444ZM32.3224 3.25861L31.5164 1.99361L32.3224 3.25861ZM33.8224 2.89038L33.6054 4.37459L33.8224 2.89038ZM35.3224 3.10972L35.5395 1.62551L35.3224 3.10972ZM38.3224 3.07206L38.2244 1.57527L38.3224 3.07206ZM39.8224 3.22482L40.2123 1.77636L39.8224 3.22482ZM40.5724 3.42668L40.1826 4.87513L40.5724 3.42668ZM41.3224 3.62854L40.9326 5.077L41.3224 3.62854ZM42.8224 3.84741L42.7884 5.34703L42.8224 3.84741ZM45.8224 3.36224L44.9501 2.14201L45.8224 3.36224ZM47.3224 2.28987L48.1948 3.51011L47.3224 2.28987ZM48.8224 1.71943L48.754 0.22099L48.8224 1.71943ZM51.8224 1.9258L51.2508 3.31261L51.8224 1.9258ZM53.3224 2.54405L53.8941 1.15723L53.3224 2.54405ZM56.3224 2.67125L56.2016 1.17613L56.3224 2.67125ZM57.8224 2.82199L58.2294 1.37824L57.8224 2.82199ZM58.5724 3.03337L58.1655 4.47713L58.5724 3.03337ZM59.3224 3.24476L58.9155 4.68851L59.3224 3.24476ZM60.8224 3.6559L60.4364 5.10537L60.8224 3.6559ZM62.3224 4.05543L62.7085 2.60597L62.3224 4.05543ZM64.5724 4.09003L64.7366 5.58102L64.5724 4.09003ZM65.3224 4.00745L65.1583 2.51646L65.3224 4.00745ZM66.8224 3.98654L66.9454 2.49159L66.8224 3.98654ZM68.3224 4.1099L68.1995 5.60486L68.3224 4.1099ZM69.8224 4.00712L70.1438 5.4723L69.8224 4.00712ZM71.3224 3.67818L71.0011 2.21299L71.3224 3.67818ZM72.8224 3.18714L72.2236 1.81186L72.8224 3.18714ZM74.3224 2.53401L74.9213 3.9093L74.3224 2.53401ZM78.8224 2.77526L78.1855 1.41724L78.8224 2.77526ZM80.3224 2.07168L80.9594 3.4297L80.3224 2.07168ZM81.8224 2.44283L82.8634 1.36287L81.8224 2.44283ZM83.3224 3.88872L82.2814 4.96868L83.3224 3.88872ZM84.8224 3.84396L85.8954 4.89218L84.8224 3.84396ZM85.5724 3.07626L84.4995 2.02804L85.5724 3.07626ZM86.3224 2.30855L87.3954 3.35676L86.3224 2.30855ZM87.8224 2.11748L86.9082 3.30663L87.8224 2.11748ZM88.5724 2.69412L89.4867 1.50497L88.5724 2.69412ZM89.3224 3.27077L90.2367 2.08161L89.3224 3.27077ZM90.8224 3.36545L91.6334 4.62737L90.8224 3.36545ZM91.5724 2.8835L90.7615 1.62159L91.5724 2.8835ZM92.3224 2.40155L93.1334 3.66346L92.3224 2.40155ZM93.8224 2.02595L93.6118 3.51109L93.8224 2.02595ZM95.3224 2.23866L95.5331 0.753523L95.3224 2.23866ZM96.8224 2.09424L96.3468 0.671659L96.8224 2.09424ZM97.5724 1.84345L98.0481 3.26603L97.5724 1.84345ZM98.3224 1.59267L97.8468 0.170092L98.3224 1.59267ZM99.8224 1.77061L100.567 0.468358L99.8224 1.77061ZM101.322 2.62806L100.578 3.93031L101.322 2.62806ZM102.822 3.29118L103.27 1.85948L102.822 3.29118ZM104.322 3.75999L103.875 5.1917L104.322 3.75999ZM105.822 3.81376L106.174 5.27206V5.27206L105.822 3.81376ZM107.322 3.45249L106.971 1.99419V1.99419L107.322 3.45249ZM108.822 3.05037L109.247 4.48896L108.822 3.05037ZM109.572 2.8289L109.148 1.39031L109.572 2.8289ZM110.322 2.60742L110.747 4.04601L110.322 2.60742ZM111.822 2.1402L111.355 0.714767L111.822 2.1402ZM113.322 1.64872L113.789 3.07415L113.322 1.64872ZM114.822 1.9448L113.944 3.1607V3.1607L114.822 1.9448ZM115.572 2.48662L116.451 1.27072L115.572 2.48662ZM116.322 3.02844L115.444 4.24434L116.322 3.02844ZM117.822 3.75799L118.187 2.30288L117.822 3.75799ZM119.322 4.13345L118.958 5.58856L119.322 4.13345ZM120.822 3.72304L121.758 4.89576L120.822 3.72304ZM122.322 2.52677L121.387 1.35405L122.322 2.52677ZM123.822 2.26049L124.429 0.888778L123.822 2.26049ZM125.322 2.92422L124.715 4.29593L125.322 2.92422ZM126.822 3.12101L127.088 4.59726L126.822 3.12101ZM127.572 2.98594L127.307 1.50969L127.572 2.98594ZM128.322 2.85088L128.588 4.32713L128.322 2.85088ZM129.822 2.63376L129.659 1.14266L129.822 2.63376ZM132.822 2.33192L132.934 3.8278L132.822 2.33192ZM134.322 2.22055L134.211 0.72467L134.322 2.22055ZM135.822 2.15214L135.797 0.65236L135.822 2.15214ZM137.322 2.12669L137.348 3.62648L137.322 2.12669ZM138.822 2.197L138.987 0.706104L138.822 2.197ZM140.322 2.36305L140.487 0.87216L140.322 2.36305ZM141.822 2.91991L142.624 1.65179L141.822 2.91991ZM142.572 3.39374L141.771 4.66186L142.572 3.39374ZM143.322 3.86757L142.521 5.13569L143.322 3.86757ZM144.845 3.93083L144.141 2.60617L144.845 3.93083ZM146.391 3.1097L147.095 4.43436L146.391 3.1097ZM147.679 3.46436L146.435 4.30228L147.679 3.46436ZM148.71 4.99482L149.954 4.1569L148.71 4.99482ZM149.935 5.88719L150.199 4.41072L149.935 5.88719ZM151.353 6.14148L151.089 7.61795L151.353 6.14148ZM152.897 6.43891L152.596 7.90858L152.897 6.43891ZM154.564 6.7795L154.864 5.30983L154.564 6.7795ZM155.481 7.82865L153.988 7.96998V7.96998L155.481 7.82865ZM157.557 14.8358L156.17 14.2647L157.557 14.8358ZM158.048 16.3575L157.106 17.5252L158.048 16.3575ZM159.726 17.7107L160.668 16.543L159.726 17.7107ZM160.417 19.1373L161.889 19.4276L160.417 19.1373ZM160.121 20.6373L158.65 20.347L160.121 20.6373ZM159.779 22.1373L161.23 22.5148L159.779 22.1373ZM159.389 23.6373L157.937 23.2599L159.389 23.6373ZM159.309 26.6373L157.811 26.7145L159.309 26.6373ZM159.236 28.1373L157.752 27.9149L159.236 28.1373ZM159.011 29.6373L160.494 29.8597L159.011 29.6373ZM158.678 31.1373L157.239 30.7139L158.678 31.1373ZM157.995 34.1373L156.495 34.0956L157.995 34.1373ZM157.974 34.8873L156.475 34.8456L157.974 34.8873ZM157.953 35.6373L159.453 35.679L157.953 35.6373ZM157.977 37.1373L156.479 37.2258L157.977 37.1373ZM158.065 38.6373L159.563 38.5489L158.065 38.6373ZM158.081 40.1373L159.58 40.1948L158.081 40.1373ZM158.023 41.6373L156.524 41.5798L158.023 41.6373ZM158.107 43.1331L159.591 42.9085L158.107 43.1331ZM158.333 44.6248L156.85 44.8494L158.333 44.6248ZM158.371 46.0864L159.863 46.2432L158.371 46.0864ZM158.221 47.5179L156.729 47.3611L158.221 47.5179ZM157.881 48.9017L156.486 48.3503L157.881 48.9017ZM157.353 50.2378L158.748 50.7892L157.353 50.2378ZM156.814 51.5849L155.424 51.0219L156.814 51.5849ZM155.248 53.8967L154.727 52.49L155.248 53.8967ZM154.506 54.1713L153.985 52.7646L154.506 54.1713ZM153.765 54.4458L154.285 55.8525L153.765 54.4458ZM152.839 55.6902L154.313 55.9699L152.839 55.6902ZM152.655 56.6601L154.129 56.9398L152.655 56.6601ZM152.471 57.6299L150.997 57.3502L152.471 57.6299ZM151.513 58.7862L151.162 57.3279L151.513 58.7862ZM150.74 58.9725L150.388 57.5142L150.74 58.9725ZM149.966 59.1589L150.317 60.6171L149.966 59.1589ZM148.382 59.0323L148.922 57.633L148.382 59.0323ZM146.761 58.4066L146.221 59.8059L146.761 58.4066ZM145.262 58.8959L144.124 57.9193L145.262 58.8959ZM143.886 60.5003L145.025 61.4769L143.886 60.5003ZM142.448 60.8193L143.261 59.5583L142.448 60.8193ZM141.698 60.336L140.886 61.5969L141.698 60.336ZM140.948 59.8527L141.761 58.5918L140.948 59.8527ZM139.448 59.5224L139.149 58.0526L139.448 59.5224ZM138.698 59.6752L138.998 61.145L138.698 59.6752ZM137.948 59.8281L137.649 58.3583L137.948 59.8281ZM136.448 59.8567L136.693 58.3769L136.448 59.8567ZM134.948 59.6083L134.703 61.0882L134.948 59.6083ZM132.698 59.6711L132.513 58.1826L132.698 59.6711ZM131.948 59.7645L132.134 61.253L131.948 59.7645ZM130.448 60.2802L131.184 61.5874L130.448 60.2802ZM128.948 61.1246L128.212 59.8175L128.948 61.1246ZM127.448 60.8087L128.5 59.7396L127.448 60.8087ZM125.948 59.3325L124.896 60.4016L125.948 59.3325ZM124.448 58.8532L124.938 60.2711V60.2711L124.448 58.8532ZM121.448 59.7501L121.21 58.2691L121.448 59.7501ZM119.948 59.9912L120.186 61.4722L119.948 59.9912ZM118.448 60.4081L118.999 61.8032L118.448 60.4081ZM116.948 61.0007L117.499 62.3958L116.948 61.0007ZM115.448 60.8491L114.679 62.137L115.448 60.8491ZM114.698 60.4013L115.467 59.1134V59.1134L114.698 60.4013ZM113.948 59.9535L114.717 58.6656L113.948 59.9535ZM111.698 59.7609L111.95 61.2396L111.698 59.7609ZM110.948 59.8885L110.697 58.4098L110.948 59.8885ZM109.448 60.0567L109.529 61.5545L109.448 60.0567ZM108.698 60.0973L108.617 58.5995L108.698 60.0973ZM107.948 60.1379L107.867 58.6401L107.948 60.1379ZM106.448 59.8345L107.074 58.4711L106.448 59.8345ZM105.698 59.4905L105.073 60.8539L105.698 59.4905ZM104.948 59.1465L105.574 57.7831L104.948 59.1465ZM103.448 58.8293L103.502 60.3283L103.448 58.8293ZM101.948 58.8828L101.895 57.3837L101.948 58.8828ZM100.448 59.2403L101.053 60.6128L100.448 59.2403ZM98.9482 59.9018L98.3429 58.5294L98.9482 59.9018ZM97.4482 60.505L96.9361 59.0952L97.4482 60.505ZM94.4482 61.3875L94.3185 59.8931L94.4482 61.3875ZM92.9482 61.5177L93.0779 63.0121L92.9482 61.5177ZM91.4482 61.1426L90.689 62.4363L91.4482 61.1426ZM89.9482 60.2623L90.7074 58.9687L89.9482 60.2623ZM88.4482 60.3006L89.2549 61.5652L88.4482 60.3006ZM86.9482 61.2575L86.1415 59.993L86.9482 61.2575ZM85.4482 60.9091L86.5593 59.9013L85.4482 60.9091ZM83.9482 59.2552L85.0593 58.2475L83.9482 59.2552ZM82.4482 58.4841L82.3369 56.9882L82.4482 58.4841ZM81.6982 58.5399L81.8096 60.0358L81.6982 58.5399ZM80.9482 58.5958L81.0596 60.0916L80.9482 58.5958ZM79.4482 58.6994L79.3528 57.2024L79.4482 58.6994ZM78.6982 58.7472L78.7936 60.2441L78.6982 58.7472ZM77.9482 58.795L78.0436 60.2919L77.9482 58.795ZM76.4482 59.1823L77.0669 60.5488L76.4482 59.1823ZM75.6982 59.5219L75.0796 58.1554L75.6982 59.5219ZM74.9482 59.8614L74.3296 58.495L74.9482 59.8614ZM73.4482 59.8546L72.8192 61.2163L73.4482 59.8546ZM72.6982 59.5081L72.0692 60.8699L72.6982 59.5081ZM71.9482 59.1617L72.5772 57.8L71.9482 59.1617ZM70.4482 59.4814L71.4443 60.6029L70.4482 59.4814ZM69.6982 60.1475L70.6943 61.269L69.6982 60.1475ZM68.9482 60.8135L67.9522 59.692L68.9482 60.8135ZM67.4482 61.1479L68.055 59.7761L67.4482 61.1479ZM65.9482 60.4843L65.3414 61.8561L65.9482 60.4843ZM64.4482 60.4839L65.0544 61.856L64.4482 60.4839ZM63.6982 60.8152L63.0921 59.4432L63.6982 60.8152ZM62.9482 61.1466L62.3421 59.7745L62.9482 61.1466ZM61.4482 61.1683L62.0206 59.7818L61.4482 61.1683ZM59.9482 60.5491L59.3759 61.9356L59.9482 60.5491ZM58.4482 60.2459L58.4355 58.7459L58.4482 60.2459ZM56.9482 60.2586L56.961 61.7586L56.9482 60.2586ZM55.4482 60.5727L56.0176 61.9605L55.4482 60.5727ZM54.6982 60.8804L55.2676 62.2682L54.6982 60.8804ZM53.9482 61.1881L53.3789 59.8004L53.9482 61.1881ZM52.4482 60.9285L53.3531 59.7322L52.4482 60.9285ZM50.9482 59.794L50.0433 60.9903L50.9482 59.794ZM49.4482 59.7684L48.5699 58.5524L49.4482 59.7684ZM46.4482 60.9183L47.2511 59.6512L46.4482 60.9183ZM45.6982 60.4431L46.5011 59.176L45.6982 60.4431ZM44.9482 59.9678L44.1454 61.2349L44.9482 59.9678ZM43.4482 60.0059L44.2954 61.2438L43.4482 60.0059ZM41.9482 61.0326L41.101 59.7947L41.9482 61.0326ZM40.4482 61.4002L40.7343 59.9277L40.4482 61.4002ZM38.9482 61.1088L38.6622 62.5813L38.9482 61.1088ZM37.4482 60.8256L37.1777 62.301L37.4482 60.8256ZM35.9482 60.5506L36.2187 59.0751L35.9482 60.5506ZM34.4482 60.6488L33.9984 59.2178L34.4482 60.6488ZM32.9482 61.1202L33.398 62.5512L32.9482 61.1202ZM31.4482 61.2011L31.7516 59.7321L31.4482 61.2011ZM29.9482 60.8913L29.6448 62.3603L29.9482 60.8913ZM26.9482 60.9892L26.7807 59.4986L26.9482 60.9892ZM25.4482 61.2289L25.7526 62.6977L25.4482 61.2289ZM23.9482 61.5397L24.2526 63.0085L23.9482 61.5397ZM22.4482 61.4932L22.8381 60.0448L22.4482 61.4932ZM21.6982 61.2913L22.0881 59.8429L21.6982 61.2913ZM20.9482 61.0894L20.5583 62.5379L20.9482 61.0894ZM19.4391 60.8061L19.279 62.2975L19.4391 60.8061ZM18.6799 60.7246L18.8399 59.2332L18.6799 60.7246ZM16.3951 60.4222L16.6639 58.9464L16.3951 60.4222ZM14.8623 60.143L14.5935 61.6187L14.8623 60.143ZM12.6544 59.4293L12.0993 60.8228L12.6544 59.4293ZM10.4001 58.6472L10.0283 60.1004L10.4001 58.6472ZM9.58729 58.4392L9.2155 59.8924L9.58729 58.4392ZM8.77446 58.2313L9.14625 56.7781L8.77446 58.2313ZM7.41834 57.4084L8.5424 56.4152L7.41834 57.4084ZM6.87504 56.7936L5.75097 57.7868L6.87504 56.7936ZM6.33173 56.1787L5.20767 57.1719L6.33173 56.1787ZM5.27997 54.925L4.10635 55.8591L5.27997 54.925ZM4.7715 54.2862L3.59789 55.2203L4.7715 54.2862ZM4.26304 53.6474L5.43665 52.7132L4.26304 53.6474ZM3.44852 52.2496L4.83966 51.6886L3.44852 52.2496ZM3.14246 51.4907L1.75132 52.0517L3.14246 51.4907ZM3.13151 49.0892L1.8913 48.2455L3.13151 49.0892ZM3.73267 48.2056L4.97287 49.0493L3.73267 48.2056ZM4.33382 47.3219L5.57403 48.1656L4.33382 47.3219ZM4.46172 45.7384L5.70429 44.8982L4.46172 45.7384ZM3.51521 44.3387L2.27264 45.1789L3.51521 44.3387ZM2.82029 42.8888L1.3818 43.314L2.82029 42.8888ZM2.37694 41.3888L3.81543 40.9637L2.37694 41.3888ZM2.57003 39.8888L1.25738 39.1629L2.57003 39.8888ZM3.39955 38.3888L2.0869 37.6629L3.39955 38.3888ZM3.39033 35.3888L1.91627 35.6666L3.39033 35.3888ZM2.79348 33.8888L4.07553 33.1102L2.79348 33.8888ZM1.88243 32.3888L0.600378 33.1675L1.88243 32.3888ZM1.51414 30.8888L0.0241861 30.7155L1.51414 30.8888ZM2.49511 27.8888L3.57771 28.9271L2.49511 27.8888ZM3.93367 26.3888L2.85106 25.3506L3.93367 26.3888ZM3.96658 24.8888L2.86001 25.9015L3.96658 24.8888ZM2.59386 23.3888L3.70043 22.3762L2.59386 23.3888ZM2.52041 18.8618L1.07553 19.2647L2.52041 18.8618ZM2.08706 17.3077L0.642179 17.7105L2.08706 17.3077ZM2.67161 15.9247L3.57633 17.1212L2.67161 15.9247ZM3.47284 15.3189L2.56813 14.1224L3.47284 15.3189ZM4.27407 14.713L3.36936 13.5166L4.27407 14.713ZM5.28166 13.4553L3.85161 13.0026L5.28166 13.4553ZM5.66446 9.53433L4.17518 9.71336L5.66446 9.53433ZM6.1899 7.21773L5.56189 5.85552L6.1899 7.21773ZM6.95161 6.86657L7.57961 8.22878L6.95161 6.86657ZM7.71332 6.5154L7.08531 5.1532L7.71332 6.5154ZM9.28034 6.07362L9.44807 7.56421L9.28034 6.07362ZM10.0856 5.983L9.91791 4.49241L10.0856 5.983ZM12.2771 5.36105L11.3705 4.16606L12.2771 5.36105ZM15.3889 3.138L14.5644 1.88493L15.3889 3.138ZM17.0867 2.41536L16.3714 3.73378L17.0867 2.41536ZM17.7439 2.77192L18.4592 1.45349L17.7439 2.77192ZM19.5724 2.6737L19.8444 4.14884L20.5944 4.01059L20.3224 2.53545L20.0505 1.0603L19.3005 1.19855L19.5724 2.6737ZM20.3224 2.53545L20.5944 4.01059C20.7614 3.97981 20.9458 3.9932 21.1885 4.10639L21.8224 2.74691L22.4564 1.38744C21.6991 1.03434 20.8835 0.90675 20.0505 1.0603L20.3224 2.53545ZM21.8224 2.74691L21.1885 4.10639L21.9385 4.4561L22.5724 3.09663L23.2064 1.73716L22.4564 1.38744L21.8224 2.74691ZM22.5724 3.09663L21.9385 4.4561L22.6885 4.80582L23.3224 3.44634L23.9564 2.08687L23.2064 1.73716L22.5724 3.09663ZM23.3224 3.44634L22.6885 4.80582C23.7018 5.2783 24.749 5.14541 25.6406 4.56521L24.8224 3.30798L24.0043 2.05076C23.9613 2.07872 23.9349 2.08991 23.9251 2.09356C23.9162 2.09686 23.9203 2.09428 23.9347 2.09295C23.9496 2.09158 23.9637 2.09263 23.9732 2.09441C23.9819 2.09603 23.9768 2.09642 23.9564 2.08687L23.3224 3.44634ZM24.8224 3.30798L25.6406 4.56521L26.3906 4.07713L25.5724 2.81991L24.7543 1.56268L24.0043 2.05076L24.8224 3.30798ZM25.5724 2.81991L26.3906 4.07713L27.1406 3.58906L26.3224 2.33183L25.5043 1.07461L24.7543 1.56268L25.5724 2.81991ZM26.3224 2.33183L27.1406 3.58906C27.1479 3.58429 27.1213 3.60296 27.0622 3.61779C26.9994 3.63353 26.9252 3.63845 26.8508 3.62735C26.7033 3.60532 26.6835 3.54294 26.7896 3.64366L27.8224 2.5559L28.8553 1.46815C28.4614 1.09411 27.9416 0.756999 27.2941 0.660274C26.618 0.559277 26.0031 0.749985 25.5043 1.07461L26.3224 2.33183ZM27.8224 2.5559L26.7896 3.64366L27.5396 4.35581L28.5724 3.26805L29.6053 2.1803L28.8553 1.46815L27.8224 2.5559ZM28.5724 3.26805L27.5396 4.35581L28.2896 5.06795L29.3224 3.9802L30.3553 2.89244L29.6053 2.1803L28.5724 3.26805ZM29.3224 3.9802L28.2896 5.06795C28.6823 5.44086 29.1987 5.77657 29.841 5.87687C30.5123 5.98169 31.1265 5.79932 31.6285 5.47944L30.8224 4.21444L30.0164 2.94943C30.0104 2.95326 30.0377 2.9348 30.0967 2.92061C30.1592 2.90557 30.2319 2.90156 30.3039 2.91279C30.4462 2.93502 30.4626 2.9943 30.3553 2.89244L29.3224 3.9802ZM30.8224 4.21444L31.6285 5.47944L32.3785 5.00153L31.5724 3.73653L30.7664 2.47152L30.0164 2.94943L30.8224 4.21444ZM31.5724 3.73653L32.3785 5.00153L33.1285 4.52362L32.3224 3.25861L31.5164 1.99361L30.7664 2.47152L31.5724 3.73653ZM32.3224 3.25861L33.1285 4.52362C33.3804 4.36315 33.5218 4.36237 33.6054 4.37459L33.8224 2.89038L34.0395 1.40616C33.1231 1.27215 32.2645 1.51687 31.5164 1.99361L32.3224 3.25861ZM33.8224 2.89038L33.6054 4.37459L34.3554 4.48426L34.5724 3.00005L34.7895 1.51583L34.0395 1.40616L33.8224 2.89038ZM34.5724 3.00005L34.3554 4.48426L35.1054 4.59394L35.3224 3.10972L35.5395 1.62551L34.7895 1.51583L34.5724 3.00005ZM35.3224 3.10972L35.1054 4.59394C35.7088 4.68217 36.3144 4.70676 36.9205 4.66708L36.8224 3.17028L36.7244 1.67349C36.3305 1.69929 35.9361 1.6835 35.5395 1.62551L35.3224 3.10972ZM36.8224 3.17028L36.9205 4.66708L37.6705 4.61797L37.5724 3.12117L37.4744 1.62438L36.7244 1.67349L36.8224 3.17028ZM37.5724 3.12117L37.6705 4.61797L38.4205 4.56886L38.3224 3.07206L38.2244 1.57527L37.4744 1.62438L37.5724 3.12117ZM38.3224 3.07206L38.4205 4.56886C38.7508 4.54722 39.0861 4.58001 39.4326 4.67327L39.8224 3.22482L40.2123 1.77636C39.5588 1.60047 38.8941 1.53142 38.2244 1.57527L38.3224 3.07206ZM39.8224 3.22482L39.4326 4.67327L40.1826 4.87513L40.5724 3.42668L40.9623 1.97823L40.2123 1.77636L39.8224 3.22482ZM40.5724 3.42668L40.1826 4.87513L40.9326 5.077L41.3224 3.62854L41.7123 2.18009L40.9623 1.97823L40.5724 3.42668ZM41.3224 3.62854L40.9326 5.077C41.5446 5.24172 42.164 5.33287 42.7884 5.34703L42.8224 3.84741L42.8565 2.3478C42.4809 2.33928 42.1003 2.28452 41.7123 2.18009L41.3224 3.62854ZM42.8224 3.84741L42.7884 5.34703L43.5384 5.36404L43.5724 3.86442L43.6065 2.36481L42.8565 2.3478L42.8224 3.84741ZM43.5724 3.86442L43.5384 5.36404L44.2884 5.38104L44.3224 3.88143L44.3565 2.38181L43.6065 2.36481L43.5724 3.86442ZM44.3224 3.88143L44.2884 5.38104C45.1812 5.40128 45.9925 5.08455 46.6948 4.58248L45.8224 3.36224L44.9501 2.14201C44.6524 2.35486 44.4637 2.38424 44.3565 2.38181L44.3224 3.88143ZM45.8224 3.36224L46.6948 4.58248L47.4448 4.04629L46.5724 2.82606L45.7001 1.60582L44.9501 2.14201L45.8224 3.36224ZM46.5724 2.82606L47.4448 4.04629L48.1948 3.51011L47.3224 2.28987L46.4501 1.06963L45.7001 1.60582L46.5724 2.82606ZM47.3224 2.28987L48.1948 3.51011C48.5132 3.28246 48.7399 3.22476 48.8909 3.21787L48.8224 1.71943L48.754 0.22099C47.905 0.259765 47.1317 0.582365 46.4501 1.06963L47.3224 2.28987ZM48.8224 1.71943L48.8909 3.21787L49.6409 3.18361L49.5724 1.68517L49.504 0.186737L48.754 0.22099L48.8224 1.71943ZM49.5724 1.68517L49.6409 3.18361L50.3909 3.14936L50.3224 1.65092L50.254 0.152483L49.504 0.186737L49.5724 1.68517ZM50.3224 1.65092L50.3909 3.14936C50.6547 3.13731 50.9369 3.18322 51.2508 3.31261L51.8224 1.9258L52.3941 0.538976C51.708 0.256202 50.9902 0.118862 50.254 0.152483L50.3224 1.65092ZM51.8224 1.9258L51.2508 3.31261L52.0008 3.62174L52.5724 2.23492L53.1441 0.848104L52.3941 0.538976L51.8224 1.9258ZM52.5724 2.23492L52.0008 3.62174L52.7508 3.93087L53.3224 2.54405L53.8941 1.15723L53.1441 0.848104L52.5724 2.23492ZM53.3224 2.54405L52.7508 3.93087C53.4524 4.22003 54.189 4.34865 54.9433 4.28766L54.8224 2.79254L54.7016 1.29742C54.4559 1.31728 54.1925 1.28025 53.8941 1.15723L53.3224 2.54405ZM54.8224 2.79254L54.9433 4.28766L55.6933 4.22701L55.5724 2.73189L55.4516 1.23677L54.7016 1.29742L54.8224 2.79254ZM55.5724 2.73189L55.6933 4.22701L56.4433 4.16637L56.3224 2.67125L56.2016 1.17613L55.4516 1.23677L55.5724 2.73189ZM56.3224 2.67125L56.4433 4.16637C56.7594 4.14081 57.0808 4.17141 57.4155 4.26575L57.8224 2.82199L58.2294 1.37824C57.5641 1.19073 56.8855 1.12083 56.2016 1.17613L56.3224 2.67125ZM57.8224 2.82199L57.4155 4.26575L58.1655 4.47713L58.5724 3.03337L58.9794 1.58962L58.2294 1.37824L57.8224 2.82199ZM58.5724 3.03337L58.1655 4.47713L58.9155 4.68851L59.3224 3.24476L59.7294 1.801L58.9794 1.58962L58.5724 3.03337ZM59.3224 3.24476L58.9155 4.68851C59.4224 4.83138 59.9294 4.97033 60.4364 5.10537L60.8224 3.6559L61.2085 2.20644C60.7155 2.07512 60.2225 1.93998 59.7294 1.801L59.3224 3.24476ZM60.8224 3.6559L60.4364 5.10537L61.1864 5.30513L61.5724 3.85567L61.9585 2.4062L61.2085 2.20644L60.8224 3.6559ZM61.5724 3.85567L61.1864 5.30513L61.9364 5.5049L62.3224 4.05543L62.7085 2.60597L61.9585 2.4062L61.5724 3.85567ZM62.3224 4.05543L61.9364 5.5049C62.6104 5.68443 63.2969 5.73955 63.9866 5.6636L63.8224 4.17262L63.6583 2.68163C63.348 2.71579 63.0345 2.69279 62.7085 2.60597L62.3224 4.05543ZM63.8224 4.17262L63.9866 5.6636L64.7366 5.58102L64.5724 4.09003L64.4083 2.59904L63.6583 2.68163L63.8224 4.17262ZM64.5724 4.09003L64.7366 5.58102L65.4866 5.49843L65.3224 4.00745L65.1583 2.51646L64.4083 2.59904L64.5724 4.09003ZM65.3224 4.00745L65.4866 5.49843C65.8915 5.45385 66.2954 5.44826 66.6995 5.4815L66.8224 3.98654L66.9454 2.49159C66.3495 2.44259 65.7534 2.45093 65.1583 2.51646L65.3224 4.00745ZM66.8224 3.98654L66.6995 5.4815L67.4495 5.54318L67.5724 4.04822L67.6954 2.55327L66.9454 2.49159L66.8224 3.98654ZM67.5724 4.04822L67.4495 5.54318L68.1995 5.60486L68.3224 4.1099L68.4454 2.61495L67.6954 2.55327L67.5724 4.04822ZM68.3224 4.1099L68.1995 5.60486C68.8513 5.65846 69.501 5.61326 70.1438 5.4723L69.8224 4.00712L69.5011 2.54193C69.1439 2.62027 68.7936 2.64359 68.4454 2.61495L68.3224 4.1099ZM69.8224 4.00712L70.1438 5.4723L70.8938 5.30783L70.5724 3.84265L70.2511 2.37746L69.5011 2.54193L69.8224 4.00712ZM70.5724 3.84265L70.8938 5.30783L71.6438 5.14336L71.3224 3.67818L71.0011 2.21299L70.2511 2.37746L70.5724 3.84265ZM71.3224 3.67818L71.6438 5.14336C72.2449 5.01153 72.8377 4.81653 73.4213 4.56243L72.8224 3.18714L72.2236 1.81186C71.8072 1.99318 71.4 2.12554 71.0011 2.21299L71.3224 3.67818ZM72.8224 3.18714L73.4213 4.56243L74.1713 4.23586L73.5724 2.86058L72.9736 1.48529L72.2236 1.81186L72.8224 3.18714ZM73.5724 2.86058L74.1713 4.23586L74.9213 3.9093L74.3224 2.53401L73.7236 1.15873L72.9736 1.48529L73.5724 2.86058ZM74.3224 2.53401L74.9213 3.9093C75.1085 3.82777 75.2405 3.82786 75.3828 3.87148L75.8224 2.43735L76.2621 1.00322C75.4044 0.740297 74.5364 0.804837 73.7236 1.15873L74.3224 2.53401ZM75.8224 2.43735L75.3828 3.87148L76.1328 4.10138L76.5724 2.66725L77.0121 1.23312L76.2621 1.00322L75.8224 2.43735ZM76.5724 2.66725L76.1328 4.10138L76.8828 4.33129L77.3224 2.89715L77.7621 1.46302L77.0121 1.23312L76.5724 2.66725ZM77.3224 2.89715L76.8828 4.33129C77.76 4.60016 78.6431 4.51619 79.4594 4.13329L78.8224 2.77526L78.1855 1.41724C78.0018 1.50339 77.8849 1.50069 77.7621 1.46302L77.3224 2.89715ZM78.8224 2.77526L79.4594 4.13329L80.2094 3.7815L79.5724 2.42347L78.9355 1.06544L78.1855 1.41724L78.8224 2.77526ZM79.5724 2.42347L80.2094 3.7815L80.9594 3.4297L80.3224 2.07168L79.6855 0.713648L78.9355 1.06544L79.5724 2.42347ZM80.3224 2.07168L80.9594 3.4297C80.95 3.43412 80.9163 3.44788 80.8627 3.45382C80.8076 3.45993 80.7547 3.45519 80.7122 3.44465C80.6321 3.42484 80.6576 3.40344 80.7814 3.52279L81.8224 2.44283L82.8634 1.36287C82.4873 1.00025 82.0128 0.676006 81.4327 0.532479C80.8239 0.381832 80.2227 0.461659 79.6855 0.713648L80.3224 2.07168ZM81.8224 2.44283L80.7814 3.52279L81.5314 4.24574L82.5724 3.16578L83.6135 2.08582L82.8634 1.36287L81.8224 2.44283ZM82.5724 3.16578L81.5314 4.24574L82.2814 4.96868L83.3224 3.88872L84.3635 2.80876L83.6135 2.08582L82.5724 3.16578ZM83.3224 3.88872L82.2814 4.96868C82.7068 5.37871 83.3275 5.7619 84.1172 5.73834C84.8955 5.71512 85.491 5.30619 85.8954 4.89218L84.8224 3.84396L83.7495 2.79575C83.654 2.89354 83.7494 2.74798 84.0277 2.73967C84.3174 2.73103 84.4381 2.8807 84.3635 2.80876L83.3224 3.88872ZM84.8224 3.84396L85.8954 4.89218L86.6454 4.12447L85.5724 3.07626L84.4995 2.02804L83.7495 2.79575L84.8224 3.84396ZM85.5724 3.07626L86.6454 4.12447L87.3954 3.35676L86.3224 2.30855L85.2495 1.26034L84.4995 2.02804L85.5724 3.07626ZM86.3224 2.30855L87.3954 3.35676C87.5059 3.24365 87.4633 3.33926 87.262 3.36491C87.1602 3.37787 87.0643 3.36556 86.9893 3.34151C86.9202 3.31936 86.8935 3.29536 86.9082 3.30663L87.8224 2.11748L88.7367 0.92833C88.2559 0.558665 87.619 0.295186 86.8829 0.388951C86.1816 0.478285 85.639 0.861645 85.2495 1.26034L86.3224 2.30855ZM87.8224 2.11748L86.9082 3.30663L87.6582 3.88328L88.5724 2.69412L89.4867 1.50497L88.7367 0.92833L87.8224 2.11748ZM88.5724 2.69412L87.6582 3.88328L88.4082 4.45992L89.3224 3.27077L90.2367 2.08161L89.4867 1.50497L88.5724 2.69412ZM89.3224 3.27077L88.4082 4.45992C88.8335 4.7869 89.3614 5.04086 89.978 5.07978C90.6033 5.11926 91.1659 4.92773 91.6334 4.62737L90.8224 3.36545L90.0115 2.10354C89.9915 2.11645 89.9978 2.10885 90.03 2.09952C90.0646 2.08951 90.1126 2.08231 90.167 2.08574C90.2835 2.0931 90.3114 2.13906 90.2367 2.08161L89.3224 3.27077ZM90.8224 3.36545L91.6334 4.62737L92.3834 4.14541L91.5724 2.8835L90.7615 1.62159L90.0115 2.10354L90.8224 3.36545ZM91.5724 2.8835L92.3834 4.14541L93.1334 3.66346L92.3224 2.40155L91.5115 1.13964L90.7615 1.62159L91.5724 2.8835ZM92.3224 2.40155L93.1334 3.66346C93.3871 3.50043 93.5293 3.49939 93.6118 3.51109L93.8224 2.02595L94.0331 0.540811C93.1156 0.410705 92.2578 0.660068 91.5115 1.13964L92.3224 2.40155ZM93.8224 2.02595L93.6118 3.51109L94.3618 3.61745L94.5724 2.13231L94.7831 0.647167L94.0331 0.540811L93.8224 2.02595ZM94.5724 2.13231L94.3618 3.61745L95.1118 3.72381L95.3224 2.23866L95.5331 0.753523L94.7831 0.647167L94.5724 2.13231ZM95.3224 2.23866L95.1118 3.72381C95.8526 3.82885 96.5873 3.75449 97.2981 3.51682L96.8224 2.09424L96.3468 0.671659C96.0576 0.76836 95.7923 0.790289 95.5331 0.753523L95.3224 2.23866ZM96.8224 2.09424L97.2981 3.51682L98.0481 3.26603L97.5724 1.84345L97.0968 0.420876L96.3468 0.671659L96.8224 2.09424ZM97.5724 1.84345L98.0481 3.26603L98.7981 3.01525L98.3224 1.59267L97.8468 0.170092L97.0968 0.420876L97.5724 1.84345ZM98.3224 1.59267L98.7981 3.01525C98.8527 2.99701 98.9106 2.97714 99.078 3.07286L99.8224 1.77061L100.567 0.468358C99.7343 -0.00755143 98.7922 -0.146044 97.8468 0.170092L98.3224 1.59267ZM99.8224 1.77061L99.078 3.07286L99.828 3.50158L100.572 2.19933L101.317 0.89708L100.567 0.468358L99.8224 1.77061ZM100.572 2.19933L99.828 3.50158L100.578 3.93031L101.322 2.62806L102.067 1.3258L101.317 0.89708L100.572 2.19933ZM101.322 2.62806L100.578 3.93031C101.163 4.26461 101.762 4.5313 102.375 4.72289L102.822 3.29118L103.27 1.85948C102.883 1.73853 102.482 1.56313 102.067 1.3258L101.322 2.62806ZM102.822 3.29118L102.375 4.72289L103.125 4.95729L103.572 3.52559L104.02 2.09388L103.27 1.85948L102.822 3.29118ZM103.572 3.52559L103.125 4.95729L103.875 5.1917L104.322 3.75999L104.77 2.32829L104.02 2.09388L103.572 3.52559ZM104.322 3.75999L103.875 5.1917C104.629 5.42731 105.405 5.45724 106.174 5.27206L105.822 3.81376L105.471 2.35546C105.24 2.41114 105.016 2.40522 104.77 2.32829L104.322 3.75999ZM105.822 3.81376L106.174 5.27206L106.924 5.09142L106.572 3.63312L106.221 2.17483L105.471 2.35546L105.822 3.81376ZM106.572 3.63312L106.924 5.09142L107.674 4.91079L107.322 3.45249L106.971 1.99419L106.221 2.17483L106.572 3.63312ZM107.322 3.45249L107.674 4.91079C108.199 4.78433 108.723 4.64371 109.247 4.48896L108.822 3.05037L108.398 1.61179C107.922 1.75234 107.446 1.87979 106.971 1.99419L107.322 3.45249ZM108.822 3.05037L109.247 4.48896L109.997 4.26748L109.572 2.8289L109.148 1.39031L108.398 1.61179L108.822 3.05037ZM109.572 2.8289L109.997 4.26748L110.747 4.04601L110.322 2.60742L109.898 1.16883L109.148 1.39031L109.572 2.8289ZM110.322 2.60742L110.747 4.04601C111.262 3.89414 111.776 3.73401 112.289 3.56564L111.822 2.1402L111.355 0.714767C110.869 0.874047 110.383 1.0254 109.898 1.16883L110.322 2.60742ZM111.822 2.1402L112.289 3.56564L113.039 3.31989L112.572 1.89446L112.105 0.469025L111.355 0.714767L111.822 2.1402ZM112.572 1.89446L113.039 3.31989L113.789 3.07415L113.322 1.64872L112.855 0.223283L112.105 0.469025L112.572 1.89446ZM113.322 1.64872L113.789 3.07415C113.801 3.07045 113.802 3.07145 113.795 3.0719C113.792 3.07209 113.789 3.07209 113.786 3.07189C113.783 3.0717 113.782 3.0714 113.782 3.07147C113.782 3.07151 113.795 3.0739 113.821 3.08589C113.847 3.09817 113.889 3.12068 113.944 3.1607L114.822 1.9448L115.701 0.7289C114.888 0.141747 113.894 -0.117112 112.855 0.223283L113.322 1.64872ZM114.822 1.9448L113.944 3.1607L114.694 3.70252L115.572 2.48662L116.451 1.27072L115.701 0.7289L114.822 1.9448ZM115.572 2.48662L114.694 3.70252L115.444 4.24434L116.322 3.02844L117.201 1.81255L116.451 1.27072L115.572 2.48662ZM116.322 3.02844L115.444 4.24434C116.069 4.69578 116.741 5.03349 117.458 5.2131L117.822 3.75799L118.187 2.30288C117.904 2.23219 117.576 2.08353 117.201 1.81255L116.322 3.02844ZM117.822 3.75799L117.458 5.2131L118.208 5.40083L118.572 3.94572L118.937 2.49061L118.187 2.30288L117.822 3.75799ZM118.572 3.94572L118.208 5.40083L118.958 5.58856L119.322 4.13345L119.687 2.67834L118.937 2.49061L118.572 3.94572ZM119.322 4.13345L118.958 5.58856C120.02 5.85443 120.99 5.50822 121.758 4.89576L120.822 3.72304L119.887 2.55032C119.76 2.6515 119.69 2.67426 119.677 2.67789C119.67 2.67958 119.672 2.67838 119.68 2.6783C119.688 2.67821 119.691 2.67936 119.687 2.67834L119.322 4.13345ZM120.822 3.72304L121.758 4.89576L122.508 4.29763L121.572 3.1249L120.637 1.95218L119.887 2.55032L120.822 3.72304ZM121.572 3.1249L122.508 4.29763L123.258 3.69949L122.322 2.52677L121.387 1.35405L120.637 1.95218L121.572 3.1249ZM122.322 2.52677L123.258 3.69949C123.362 3.61637 123.387 3.6288 123.335 3.63804C123.309 3.64258 123.279 3.6435 123.25 3.6397C123.223 3.63601 123.21 3.62981 123.215 3.63221L123.822 2.26049L124.429 0.888778C123.929 0.667156 123.377 0.58366 122.81 0.684222C122.258 0.782218 121.783 1.03841 121.387 1.35405L122.322 2.52677ZM123.822 2.26049L123.215 3.63221L123.965 3.96407L124.572 2.59235L125.179 1.22064L124.429 0.888778L123.822 2.26049ZM124.572 2.59235L123.965 3.96407L124.715 4.29593L125.322 2.92422L125.929 1.5525L125.179 1.22064L124.572 2.59235ZM125.322 2.92422L124.715 4.29593C125.468 4.6287 126.271 4.7445 127.088 4.59726L126.822 3.12101L126.557 1.64476C126.374 1.67761 126.177 1.66221 125.929 1.5525L125.322 2.92422ZM126.822 3.12101L127.088 4.59726L127.838 4.4622L127.572 2.98594L127.307 1.50969L126.557 1.64476L126.822 3.12101ZM127.572 2.98594L127.838 4.4622L128.588 4.32713L128.322 2.85088L128.057 1.37463L127.307 1.50969L127.572 2.98594ZM128.322 2.85088L128.588 4.32713C129.055 4.24316 129.52 4.17576 129.986 4.12486L129.822 2.63376L129.659 1.14266C129.125 1.20116 128.59 1.27851 128.057 1.37463L128.322 2.85088ZM129.822 2.63376L129.986 4.12486L130.736 4.04281L130.572 2.55171L130.409 1.0606L129.659 1.14266L129.822 2.63376ZM130.572 2.55171L130.736 4.04281L131.486 3.96076L131.322 2.46965L131.159 0.978551L130.409 1.0606L130.572 2.55171ZM131.322 2.46965L131.486 3.96076C131.968 3.90794 132.451 3.86363 132.934 3.8278L132.822 2.33192L132.711 0.836036C132.194 0.874452 131.677 0.92196 131.159 0.978551L131.322 2.46965ZM132.822 2.33192L132.934 3.8278L133.684 3.77212L133.572 2.27624L133.461 0.780353L132.711 0.836036L132.822 2.33192ZM133.572 2.27624L133.684 3.77212L134.434 3.71644L134.322 2.22055L134.211 0.72467L133.461 0.780353L133.572 2.27624ZM134.322 2.22055L134.434 3.71644C134.905 3.68142 135.377 3.65993 135.848 3.65193L135.822 2.15214L135.797 0.65236C135.268 0.66133 134.74 0.685438 134.211 0.72467L134.322 2.22055ZM135.822 2.15214L135.848 3.65193L136.598 3.6392L136.572 2.13942L136.547 0.639635L135.797 0.65236L135.822 2.15214ZM136.572 2.13942L136.598 3.6392L137.348 3.62648L137.322 2.12669L137.297 0.626909L136.547 0.639635L136.572 2.13942ZM137.322 2.12669L137.348 3.62648C137.784 3.61908 138.22 3.6395 138.657 3.68789L138.822 2.197L138.987 0.706104C138.425 0.643792 137.861 0.61734 137.297 0.626909L137.322 2.12669ZM138.822 2.197L138.657 3.68789L139.407 3.77092L139.572 2.28002L139.737 0.789132L138.987 0.706104L138.822 2.197ZM139.572 2.28002L139.407 3.77092L140.157 3.85394L140.322 2.36305L140.487 0.87216L139.737 0.789132L139.572 2.28002ZM140.322 2.36305L140.157 3.85394C140.395 3.88022 140.68 3.97247 141.021 4.18803L141.822 2.91991L142.624 1.65179C141.965 1.23558 141.25 0.956587 140.487 0.87216L140.322 2.36305ZM141.822 2.91991L141.021 4.18803L141.771 4.66186L142.572 3.39374L143.374 2.12562L142.624 1.65179L141.822 2.91991ZM142.572 3.39374L141.771 4.66186L142.521 5.13569L143.322 3.86757L144.124 2.59945L143.374 2.12562L142.572 3.39374ZM143.322 3.86757L142.521 5.13569C143.469 5.73421 144.55 5.78608 145.549 5.25549L144.845 3.93083L144.141 2.60617C144.11 2.62289 144.097 2.62555 144.101 2.6246C144.102 2.62416 144.107 2.6231 144.115 2.62232C144.122 2.62154 144.131 2.6212 144.14 2.62159C144.15 2.62198 144.158 2.62302 144.164 2.62425C144.168 2.62484 144.17 2.62543 144.172 2.62589C144.174 2.62635 144.175 2.62665 144.175 2.62665C144.175 2.62665 144.174 2.62631 144.172 2.62548C144.17 2.62465 144.166 2.6233 144.162 2.62126C144.154 2.61719 144.141 2.61035 144.124 2.59945L143.322 3.86757ZM144.845 3.93083L145.549 5.25549L146.322 4.84492L145.618 3.52026L144.914 2.1956L144.141 2.60617L144.845 3.93083ZM145.618 3.52026L146.322 4.84492L147.095 4.43436L146.391 3.1097L145.687 1.78504L144.914 2.1956L145.618 3.52026ZM146.391 3.1097L147.095 4.43436C147.122 4.41983 146.959 4.51025 146.701 4.43927C146.458 4.3724 146.387 4.2315 146.435 4.30228L147.679 3.46436L148.923 2.62644C148.627 2.18706 148.17 1.73197 147.497 1.54689C146.81 1.35769 146.175 1.52585 145.687 1.78504L146.391 3.1097ZM147.679 3.46436L146.435 4.30228L146.95 5.06751L148.194 4.22959L149.439 3.39167L148.923 2.62644L147.679 3.46436ZM148.194 4.22959L146.95 5.06751L147.466 5.83274L148.71 4.99482L149.954 4.1569L149.439 3.39167L148.194 4.22959ZM148.71 4.99482L147.466 5.83274C147.969 6.58019 148.693 7.18864 149.67 7.36366L149.935 5.88719L150.199 4.41072C150.198 4.41047 150.187 4.41022 150.157 4.3882C150.121 4.36195 150.049 4.29763 149.954 4.1569L148.71 4.99482ZM149.935 5.88719L149.67 7.36366L150.379 7.49081L150.644 6.01433L150.909 4.53786L150.199 4.41072L149.935 5.88719ZM150.644 6.01433L150.379 7.49081L151.089 7.61795L151.353 6.14148L151.618 4.665L150.909 4.53786L150.644 6.01433ZM151.353 6.14148L151.089 7.61795C151.548 7.70024 152.05 7.79704 152.596 7.90858L152.897 6.43891L153.197 4.96925C152.631 4.85372 152.105 4.75223 151.618 4.665L151.353 6.14148ZM152.897 6.43891L152.596 7.90858L153.43 8.07887L153.73 6.60921L154.031 5.13954L153.197 4.96925L152.897 6.43891ZM153.73 6.60921L153.43 8.07887L154.264 8.24916L154.564 6.7795L154.864 5.30983L154.031 5.13954L153.73 6.60921ZM154.564 6.7795L154.264 8.24916C154.282 8.25286 154.264 8.25144 154.224 8.23007C154.182 8.20728 154.129 8.16933 154.081 8.1141C153.977 7.99561 153.982 7.90606 153.988 7.96998L155.481 7.82865L156.975 7.68731C156.925 7.16533 156.749 6.60797 156.34 6.13977C155.926 5.66683 155.391 5.4174 154.864 5.30983L154.564 6.7795ZM155.481 7.82865L153.988 7.96998L154.071 8.84883L155.564 8.7075L157.058 8.56616L156.975 7.68731L155.481 7.82865ZM155.564 8.7075L154.071 8.84883L154.154 9.72769L155.648 9.58635L157.141 9.44501L157.058 8.56616L155.564 8.7075ZM155.648 9.58635L154.154 9.72769C154.251 10.7536 154.757 11.6227 155.64 12.1877L156.448 10.9241L157.256 9.66039C157.195 9.6208 157.18 9.59556 157.176 9.58986C157.172 9.58256 157.15 9.54513 157.141 9.44501L155.648 9.58635ZM156.448 10.9241L155.64 12.1877L156.358 12.6466L157.166 11.3829L157.974 10.1192L157.256 9.66039L156.448 10.9241ZM157.166 11.3829L156.358 12.6466L157.075 13.1054L157.883 11.8418L158.691 10.5781L157.974 10.1192L157.166 11.3829ZM157.883 11.8418L157.075 13.1054C157.085 13.1116 157.054 13.0938 157.011 13.041C156.965 12.9844 156.919 12.9043 156.891 12.8061C156.834 12.6029 156.898 12.4961 156.866 12.5745L158.253 13.1457L159.64 13.7169C159.839 13.232 159.958 12.6261 159.777 11.9882C159.592 11.3342 159.157 10.8761 158.691 10.5781L157.883 11.8418ZM158.253 13.1457L156.866 12.5745L156.518 13.4196L157.905 13.9908L159.292 14.5619L159.64 13.7169L158.253 13.1457ZM157.905 13.9908L156.518 13.4196L156.17 14.2647L157.557 14.8358L158.944 15.407L159.292 14.5619L157.905 13.9908ZM157.557 14.8358L156.17 14.2647C155.939 14.8249 155.872 15.4601 156.078 16.0996C156.276 16.7124 156.676 17.1786 157.106 17.5252L158.048 16.3575L158.989 15.1898C158.86 15.0854 158.899 15.0724 158.933 15.178C158.95 15.2318 158.957 15.2902 158.954 15.3433C158.951 15.3935 158.94 15.4166 158.944 15.407L157.557 14.8358ZM158.048 16.3575L157.106 17.5252L157.946 18.2018L158.887 17.0341L159.829 15.8664L158.989 15.1898L158.048 16.3575ZM158.887 17.0341L157.946 18.2018L158.785 18.8784L159.726 17.7107L160.668 16.543L159.829 15.8664L158.887 17.0341ZM159.726 17.7107L158.785 18.8784C158.865 18.9428 158.914 18.9931 158.943 19.0267C158.971 19.0598 158.974 19.0714 158.969 19.0597C158.962 19.0462 158.949 19.0143 158.943 18.9677C158.937 18.9204 158.94 18.878 158.946 18.847L160.417 19.1373L161.889 19.4276C162.138 18.1663 161.459 17.1811 160.668 16.543L159.726 17.7107ZM160.417 19.1373L158.946 18.847L158.798 19.597L160.269 19.8873L161.741 20.1776L161.889 19.4276L160.417 19.1373ZM160.269 19.8873L158.798 19.597L158.65 20.347L160.121 20.6373L161.593 20.9276L161.741 20.1776L160.269 19.8873ZM160.121 20.6373L158.65 20.347C158.557 20.8173 158.449 21.2883 158.327 21.7599L159.779 22.1373L161.23 22.5148C161.368 21.9863 161.489 21.4573 161.593 20.9276L160.121 20.6373ZM159.779 22.1373L158.327 21.7599L158.132 22.5099L159.584 22.8873L161.035 23.2648L161.23 22.5148L159.779 22.1373ZM159.584 22.8873L158.132 22.5099L157.937 23.2599L159.389 23.6373L160.84 24.0148L161.035 23.2648L159.584 22.8873ZM159.389 23.6373L157.937 23.2599C157.769 23.9034 157.7 24.5567 157.734 25.2145L159.232 25.1373L160.73 25.0601C160.713 24.718 160.748 24.3712 160.84 24.0148L159.389 23.6373ZM159.232 25.1373L157.734 25.2145L157.773 25.9645L159.271 25.8873L160.769 25.8101L160.73 25.0601L159.232 25.1373ZM159.271 25.8873L157.773 25.9645L157.811 26.7145L159.309 26.6373L160.807 26.5601L160.769 25.8101L159.271 25.8873ZM159.309 26.6373L157.811 26.7145C157.832 27.1135 157.813 27.5131 157.752 27.9149L159.236 28.1373L160.719 28.3597C160.809 27.7615 160.838 27.1612 160.807 26.5601L159.309 26.6373ZM159.236 28.1373L157.752 27.9149L157.64 28.6649L159.123 28.8873L160.607 29.1097L160.719 28.3597L159.236 28.1373ZM159.123 28.8873L157.64 28.6649L157.527 29.4149L159.011 29.6373L160.494 29.8597L160.607 29.1097L159.123 28.8873ZM159.011 29.6373L157.527 29.4149C157.463 29.8449 157.367 30.2778 157.239 30.7139L158.678 31.1373L160.117 31.5607C160.283 30.9968 160.409 30.4297 160.494 29.8597L159.011 29.6373ZM158.678 31.1373L157.239 30.7139L157.018 31.4639L158.457 31.8873L159.896 32.3107L160.117 31.5607L158.678 31.1373ZM158.457 31.8873L157.018 31.4639L156.797 32.2139L158.236 32.6373L159.675 33.0607L159.896 32.3107L158.457 31.8873ZM158.236 32.6373L156.797 32.2139C156.615 32.8328 156.513 33.461 156.495 34.0956L157.995 34.1373L159.494 34.179C159.504 33.8136 159.563 33.4418 159.675 33.0607L158.236 32.6373ZM157.995 34.1373L156.495 34.0956L156.475 34.8456L157.974 34.8873L159.473 34.929L159.494 34.179L157.995 34.1373ZM157.974 34.8873L156.475 34.8456L156.454 35.5956L157.953 35.6373L159.453 35.679L159.473 34.929L157.974 34.8873ZM157.953 35.6373L156.454 35.5956C156.439 36.1391 156.447 36.6825 156.479 37.2258L157.977 37.1373L159.474 37.0488C159.447 36.5921 159.44 36.1355 159.453 35.679L157.953 35.6373ZM157.977 37.1373L156.479 37.2258L156.524 37.9758L158.021 37.8873L159.518 37.7988L159.474 37.0488L157.977 37.1373ZM158.021 37.8873L156.524 37.9758L156.568 38.7258L158.065 38.6373L159.563 38.5489L159.518 37.7988L158.021 37.8873ZM158.065 38.6373L156.568 38.7258C156.595 39.1772 156.599 39.6285 156.582 40.0798L158.081 40.1373L159.58 40.1948C159.601 39.6461 159.595 39.0974 159.563 38.5489L158.065 38.6373ZM158.081 40.1373L156.582 40.0798L156.553 40.8298L158.052 40.8873L159.551 40.9448L159.58 40.1948L158.081 40.1373ZM158.052 40.8873L156.553 40.8298L156.524 41.5798L158.023 41.6373L159.522 41.6948L159.551 40.9448L158.052 40.8873ZM158.023 41.6373L156.524 41.5798C156.502 42.1746 156.535 42.7677 156.624 43.3578L158.107 43.1331L159.591 42.9085C159.529 42.5041 159.507 42.1 159.522 41.6948L158.023 41.6373ZM158.107 43.1331L156.624 43.3578L156.737 44.1036L158.22 43.8789L159.704 43.6543L159.591 42.9085L158.107 43.1331ZM158.22 43.8789L156.737 44.1036L156.85 44.8494L158.333 44.6248L159.816 44.4001L159.704 43.6543L158.22 43.8789ZM158.333 44.6248L156.85 44.8494C156.907 45.2264 156.916 45.5853 156.879 45.9296L158.371 46.0864L159.863 46.2432C159.927 45.633 159.91 45.0175 159.816 44.4001L158.333 44.6248ZM158.371 46.0864L156.879 45.9296L156.804 46.6453L158.296 46.8021L159.788 46.9589L159.863 46.2432L158.371 46.0864ZM158.296 46.8021L156.804 46.6453L156.729 47.3611L158.221 47.5179L159.712 47.6747L159.788 46.9589L158.296 46.8021ZM158.221 47.5179L156.729 47.3611C156.693 47.7033 156.612 48.0318 156.486 48.3503L157.881 48.9017L159.276 49.4531C159.503 48.881 159.648 48.287 159.712 47.6747L158.221 47.5179ZM157.881 48.9017L156.486 48.3503L156.222 49.0184L157.617 49.5698L159.012 50.1212L159.276 49.4531L157.881 48.9017ZM157.617 49.5698L156.222 49.0184L155.958 49.6864L157.353 50.2378L158.748 50.7892L159.012 50.1212L157.617 49.5698ZM157.353 50.2378L155.958 49.6864C155.784 50.1278 155.606 50.5729 155.424 51.0219L156.814 51.5849L158.204 52.148C158.389 51.6915 158.571 51.2385 158.748 50.7892L157.353 50.2378ZM156.814 51.5849L155.424 51.0219L155.149 51.701L156.539 52.264L157.929 52.8271L158.204 52.148L156.814 51.5849ZM156.539 52.264L155.149 51.701L154.874 52.3801L156.264 52.9431L157.654 53.5062L157.929 52.8271L156.539 52.264ZM156.264 52.9431L154.874 52.3801C154.866 52.4003 154.859 52.4111 154.856 52.4159C154.853 52.4205 154.85 52.4237 154.846 52.4271C154.841 52.4319 154.811 52.4587 154.727 52.49L155.248 53.8967L155.768 55.3034C156.623 54.987 157.299 54.3833 157.654 53.5062L156.264 52.9431ZM155.248 53.8967L154.727 52.49L153.985 52.7646L154.506 54.1713L155.027 55.578L155.768 55.3034L155.248 53.8967ZM154.506 54.1713L153.985 52.7646L153.244 53.0391L153.765 54.4458L154.285 55.8525L155.027 55.578L154.506 54.1713ZM153.765 54.4458L153.244 53.0391C152.129 53.4517 151.558 54.3956 151.365 55.4105L152.839 55.6902L154.313 55.9699C154.343 55.8106 154.379 55.7719 154.366 55.7894C154.359 55.7988 154.345 55.8144 154.324 55.8296C154.304 55.8447 154.289 55.8512 154.285 55.8525L153.765 54.4458ZM152.839 55.6902L151.365 55.4105L151.181 56.3804L152.655 56.6601L154.129 56.9398L154.313 55.9699L152.839 55.6902ZM152.655 56.6601L151.181 56.3804L150.997 57.3502L152.471 57.6299L153.944 57.9096L154.129 56.9398L152.655 56.6601ZM152.471 57.6299L150.997 57.3502C150.969 57.5005 150.939 57.5015 150.984 57.4471C151.008 57.4187 151.041 57.3884 151.082 57.3637C151.121 57.3395 151.152 57.3303 151.162 57.3279L151.513 58.7862L151.864 60.2444C152.417 60.1113 152.915 59.8186 153.295 59.3607C153.659 58.9209 153.85 58.406 153.944 57.9096L152.471 57.6299ZM151.513 58.7862L151.162 57.3279L150.388 57.5142L150.74 58.9725L151.091 60.4308L151.864 60.2444L151.513 58.7862ZM150.74 58.9725L150.388 57.5142L149.615 57.7006L149.966 59.1589L150.317 60.6171L151.091 60.4308L150.74 58.9725ZM149.966 59.1589L149.615 57.7006C149.423 57.7469 149.206 57.7424 148.922 57.633L148.382 59.0323L147.842 60.4317C148.639 60.7395 149.478 60.8193 150.317 60.6171L149.966 59.1589ZM148.382 59.0323L148.922 57.633L148.112 57.3201L147.571 58.7194L147.031 60.1188L147.842 60.4317L148.382 59.0323ZM147.571 58.7194L148.112 57.3201L147.301 57.0072L146.761 58.4066L146.221 59.8059L147.031 60.1188L147.571 58.7194ZM146.761 58.4066L147.301 57.0072C146.744 56.7921 146.128 56.7467 145.515 56.9465C144.93 57.1378 144.473 57.5122 144.124 57.9193L145.262 58.8959L146.401 59.8725C146.511 59.7447 146.533 59.7702 146.447 59.7984C146.402 59.8129 146.35 59.8206 146.298 59.8184C146.248 59.8162 146.22 59.8058 146.221 59.8059L146.761 58.4066ZM145.262 58.8959L144.124 57.9193L143.436 58.7215L144.574 59.6981L145.713 60.6747L146.401 59.8725L145.262 58.8959ZM144.574 59.6981L143.436 58.7215L142.748 59.5237L143.886 60.5003L145.025 61.4769L145.713 60.6747L144.574 59.6981ZM143.886 60.5003L142.748 59.5237C142.641 59.6484 142.669 59.5586 142.858 59.5167C142.956 59.495 143.056 59.4967 143.142 59.5157C143.223 59.5335 143.263 59.5599 143.261 59.5583L142.448 60.8193L141.636 62.0802C142.146 62.4092 142.796 62.6033 143.508 62.4456C144.176 62.2974 144.673 61.887 145.025 61.4769L143.886 60.5003ZM142.448 60.8193L143.261 59.5583L142.511 59.0751L141.698 60.336L140.886 61.5969L141.636 62.0802L142.448 60.8193ZM141.698 60.336L142.511 59.0751L141.761 58.5918L140.948 59.8527L140.136 61.1137L140.886 61.5969L141.698 60.336ZM140.948 59.8527L141.761 58.5918C140.99 58.0954 140.096 57.8595 139.149 58.0526L139.448 59.5224L139.748 60.9921C139.801 60.9814 139.906 60.9658 140.136 61.1137L140.948 59.8527ZM139.448 59.5224L139.149 58.0526L138.399 58.2054L138.698 59.6752L138.998 61.145L139.748 60.9921L139.448 59.5224ZM138.698 59.6752L138.399 58.2054L137.649 58.3583L137.948 59.8281L138.248 61.2979L138.998 61.145L138.698 59.6752ZM137.948 59.8281L137.649 58.3583C137.327 58.4239 137.011 58.4296 136.693 58.3769L136.448 59.8567L136.203 61.3366C136.885 61.4495 137.57 61.4361 138.248 61.2979L137.948 59.8281ZM136.448 59.8567L136.693 58.3769L135.943 58.2527L135.698 59.7325L135.453 61.2124L136.203 61.3366L136.448 59.8567ZM135.698 59.7325L135.943 58.2527L135.193 58.1285L134.948 59.6083L134.703 61.0882L135.453 61.2124L135.698 59.7325ZM134.948 59.6083L135.193 58.1285C134.552 58.0222 133.907 58.0088 133.263 58.0891L133.448 59.5776L133.634 61.0661C133.99 61.0217 134.345 61.0288 134.703 61.0882L134.948 59.6083ZM133.448 59.5776L133.263 58.0891L132.513 58.1826L132.698 59.6711L132.884 61.1596L133.634 61.0661L133.448 59.5776ZM132.698 59.6711L132.513 58.1826L131.763 58.2761L131.948 59.7645L132.134 61.253L132.884 61.1596L132.698 59.6711ZM131.948 59.7645L131.763 58.2761C131.044 58.3656 130.359 58.6092 129.712 58.9731L130.448 60.2802L131.184 61.5874C131.538 61.3883 131.852 61.2881 132.134 61.253L131.948 59.7645ZM130.448 60.2802L129.712 58.9731L128.962 59.3953L129.698 60.7024L130.434 62.0096L131.184 61.5874L130.448 60.2802ZM129.698 60.7024L128.962 59.3953L128.212 59.8175L128.948 61.1246L129.684 62.4318L130.434 62.0096L129.698 60.7024ZM128.948 61.1246L128.212 59.8175C128.216 59.8154 128.251 59.7969 128.313 59.786C128.378 59.7745 128.446 59.7761 128.507 59.789C128.624 59.8136 128.62 59.8569 128.5 59.7396L127.448 60.8087L126.396 61.8778C126.777 62.2526 127.272 62.5946 127.889 62.7246C128.54 62.8616 129.159 62.7276 129.684 62.4318L128.948 61.1246ZM127.448 60.8087L128.5 59.7396L127.75 59.0015L126.698 60.0706L125.646 61.1397L126.396 61.8778L127.448 60.8087ZM126.698 60.0706L127.75 59.0015L127 58.2634L125.948 59.3325L124.896 60.4016L125.646 61.1397L126.698 60.0706ZM125.948 59.3325L127 58.2634C126.25 57.5248 125.176 57.0151 123.959 57.4352L124.448 58.8532L124.938 60.2711C124.92 60.2772 124.886 60.2854 124.842 60.286C124.798 60.2865 124.763 60.2791 124.742 60.2724C124.723 60.2663 124.727 60.2644 124.754 60.2823C124.782 60.3007 124.83 60.3368 124.896 60.4016L125.948 59.3325ZM124.448 58.8532L123.959 57.4352L123.209 57.694L123.698 59.112L124.188 60.5299L124.938 60.2711L124.448 58.8532ZM123.698 59.112L123.209 57.694L122.459 57.9528L122.948 59.3708L123.438 60.7887L124.188 60.5299L123.698 59.112ZM122.948 59.3708L122.459 57.9528C122.037 58.0984 121.621 58.2031 121.21 58.2691L121.448 59.7501L121.686 61.2311C122.275 61.1364 122.859 60.9882 123.438 60.7887L122.948 59.3708ZM121.448 59.7501L121.21 58.2691L120.46 58.3897L120.698 59.8707L120.936 61.3517L121.686 61.2311L121.448 59.7501ZM120.698 59.8707L120.46 58.3897L119.71 58.5102L119.948 59.9912L120.186 61.4722L120.936 61.3517L120.698 59.8707ZM119.948 59.9912L119.71 58.5102C119.097 58.6089 118.492 58.778 117.897 59.013L118.448 60.4081L118.999 61.8032C119.405 61.6431 119.8 61.5343 120.186 61.4722L119.948 59.9912ZM118.448 60.4081L117.897 59.013L117.147 59.3093L117.698 60.7044L118.249 62.0995L118.999 61.8032L118.448 60.4081ZM117.698 60.7044L117.147 59.3093L116.397 59.6056L116.948 61.0007L117.499 62.3958L118.249 62.0995L117.698 60.7044ZM116.948 61.0007L116.397 59.6056C116.372 59.6153 116.359 59.6177 116.355 59.6183C116.352 59.6188 116.35 59.6187 116.349 59.6186C116.347 59.6184 116.337 59.6173 116.318 59.6104C116.297 59.6032 116.264 59.5891 116.217 59.5613L115.448 60.8491L114.679 62.137C115.54 62.6513 116.527 62.7801 117.499 62.3958L116.948 61.0007ZM115.448 60.8491L116.217 59.5613L115.467 59.1134L114.698 60.4013L113.929 61.6892L114.679 62.137L115.448 60.8491ZM114.698 60.4013L115.467 59.1134L114.717 58.6656L113.948 59.9535L113.179 61.2413L113.929 61.6892L114.698 60.4013ZM113.948 59.9535L114.717 58.6656C113.959 58.2127 113.1 58.0007 112.197 58.1545L112.448 59.6332L112.7 61.112C112.796 61.0956 112.938 61.0971 113.179 61.2413L113.948 59.9535ZM112.448 59.6332L112.197 58.1545L111.447 58.2821L111.698 59.7609L111.95 61.2396L112.7 61.112L112.448 59.6332ZM111.698 59.7609L111.447 58.2821L110.697 58.4098L110.948 59.8885L111.2 61.3672L111.95 61.2396L111.698 59.7609ZM110.948 59.8885L110.697 58.4098C110.252 58.4854 109.809 58.535 109.367 58.5589L109.448 60.0567L109.529 61.5545C110.087 61.5243 110.644 61.4618 111.2 61.3672L110.948 59.8885ZM109.448 60.0567L109.367 58.5589L108.617 58.5995L108.698 60.0973L108.779 61.5951L109.529 61.5545L109.448 60.0567ZM108.698 60.0973L108.617 58.5995L107.867 58.6401L107.948 60.1379L108.029 61.6357L108.779 61.5951L108.698 60.0973ZM107.948 60.1379L107.867 58.6401C107.633 58.6528 107.375 58.6092 107.074 58.4711L106.448 59.8345L105.823 61.1979C106.522 61.5185 107.263 61.6772 108.029 61.6357L107.948 60.1379ZM106.448 59.8345L107.074 58.4711L106.324 58.1271L105.698 59.4905L105.073 60.8539L105.823 61.1979L106.448 59.8345ZM105.698 59.4905L106.324 58.1271L105.574 57.7831L104.948 59.1465L104.323 60.5099L105.073 60.8539L105.698 59.4905ZM104.948 59.1465L105.574 57.7831C104.882 57.4661 104.151 57.3032 103.395 57.3302L103.448 58.8293L103.502 60.3283C103.745 60.3196 104.014 60.3683 104.323 60.5099L104.948 59.1465ZM103.448 58.8293L103.395 57.3302L102.645 57.357L102.698 58.856L102.752 60.3551L103.502 60.3283L103.448 58.8293ZM102.698 58.856L102.645 57.357L101.895 57.3837L101.948 58.8828L102.002 60.3818L102.752 60.3551L102.698 58.856ZM101.948 58.8828L101.895 57.3837C101.188 57.409 100.501 57.5776 99.8429 57.8678L100.448 59.2403L101.053 60.6128C101.395 60.462 101.709 60.3923 102.002 60.3818L101.948 58.8828ZM100.448 59.2403L99.8429 57.8678L99.0929 58.1986L99.6982 59.5711L100.303 60.9435L101.053 60.6128L100.448 59.2403ZM99.6982 59.5711L99.0929 58.1986L98.3429 58.5294L98.9482 59.9018L99.5535 61.2743L100.303 60.9435L99.6982 59.5711ZM98.9482 59.9018L98.3429 58.5294C97.8727 58.7367 97.4038 58.9253 96.9361 59.0952L97.4482 60.505L97.9604 61.9149C98.4927 61.7215 99.0237 61.5079 99.5535 61.2743L98.9482 59.9018ZM97.4482 60.505L96.9361 59.0952L96.1861 59.3676L96.6982 60.7775L97.2104 62.1874L97.9604 61.9149L97.4482 60.505ZM96.6982 60.7775L96.1861 59.3676L95.4361 59.6401L95.9482 61.0499L96.4604 62.4598L97.2104 62.1874L96.6982 60.7775ZM95.9482 61.0499L95.4361 59.6401C95.0519 59.7796 94.6803 59.8617 94.3185 59.8931L94.4482 61.3875L94.5779 62.8819C95.2161 62.8265 95.8445 62.6835 96.4604 62.4598L95.9482 61.0499ZM94.4482 61.3875L94.3185 59.8931L93.5685 59.9582L93.6982 61.4526L93.8279 62.947L94.5779 62.8819L94.4482 61.3875ZM93.6982 61.4526L93.5685 59.9582L92.8185 60.0233L92.9482 61.5177L93.0779 63.0121L93.8279 62.947L93.6982 61.4526ZM92.9482 61.5177L92.8185 60.0233C92.6747 60.0358 92.4821 60.0102 92.2074 59.849L91.4482 61.1426L90.689 62.4363C91.4143 62.8619 92.2217 63.0864 93.0779 63.0121L92.9482 61.5177ZM91.4482 61.1426L92.2074 59.849L91.4574 59.4088L90.6982 60.7025L89.939 61.9962L90.689 62.4363L91.4482 61.1426ZM90.6982 60.7025L91.4574 59.4088L90.7074 58.9687L89.9482 60.2623L89.189 61.556L89.939 61.9962L90.6982 60.7025ZM89.9482 60.2623L90.7074 58.9687C90.2551 58.7032 89.7319 58.5377 89.1599 58.5523C88.5902 58.5669 88.0784 58.7573 87.6415 59.036L88.4482 60.3006L89.2549 61.5652C89.2883 61.5439 89.3018 61.5405 89.2955 61.5425C89.2878 61.5451 89.2668 61.5506 89.2365 61.5514C89.206 61.5521 89.1816 61.5477 89.1679 61.5439C89.1555 61.5404 89.1623 61.5404 89.189 61.556L89.9482 60.2623ZM88.4482 60.3006L87.6415 59.036L86.8915 59.5145L87.6982 60.7791L88.5049 62.0437L89.2549 61.5652L88.4482 60.3006ZM87.6982 60.7791L86.8915 59.5145L86.1415 59.993L86.9482 61.2575L87.7549 62.5221L88.5049 62.0437L87.6982 60.7791ZM86.9482 61.2575L86.1415 59.993C86.1471 59.9894 86.1925 59.9618 86.2751 59.9451C86.3621 59.9275 86.4546 59.9293 86.5377 59.9486C86.6912 59.9842 86.6923 60.048 86.5593 59.9013L85.4482 60.9091L84.3371 61.9168C84.7041 62.3214 85.2052 62.7189 85.8588 62.8707C86.5634 63.0344 87.2223 62.8619 87.7549 62.5221L86.9482 61.2575ZM85.4482 60.9091L86.5593 59.9013L85.8093 59.0744L84.6982 60.0821L83.5871 61.0899L84.3371 61.9168L85.4482 60.9091ZM84.6982 60.0821L85.8093 59.0744L85.0593 58.2475L83.9482 59.2552L82.8371 60.2629L83.5871 61.0899L84.6982 60.0821ZM83.9482 59.2552L85.0593 58.2475C84.4043 57.5253 83.4877 56.9026 82.3369 56.9882L82.4482 58.4841L82.5596 59.98C82.5016 59.9843 82.4776 59.9651 82.5124 59.983C82.5597 60.0073 82.6712 60.08 82.8371 60.2629L83.9482 59.2552ZM82.4482 58.4841L82.3369 56.9882L81.5869 57.0441L81.6982 58.5399L81.8096 60.0358L82.5596 59.98L82.4482 58.4841ZM81.6982 58.5399L81.5869 57.0441L80.8369 57.0999L80.9482 58.5958L81.0596 60.0916L81.8096 60.0358L81.6982 58.5399ZM80.9482 58.5958L80.8369 57.0999C80.3422 57.1367 79.8475 57.1709 79.3528 57.2024L79.4482 58.6994L79.5436 60.1964C80.0489 60.1642 80.5543 60.1292 81.0596 60.0916L80.9482 58.5958ZM79.4482 58.6994L79.3528 57.2024L78.6028 57.2502L78.6982 58.7472L78.7936 60.2441L79.5436 60.1964L79.4482 58.6994ZM78.6982 58.7472L78.6028 57.2502L77.8528 57.298L77.9482 58.795L78.0436 60.2919L78.7936 60.2441L78.6982 58.7472ZM77.9482 58.795L77.8528 57.298C77.1554 57.3425 76.4789 57.5219 75.8296 57.8158L76.4482 59.1823L77.0669 60.5488C77.4175 60.39 77.741 60.3112 78.0436 60.2919L77.9482 58.795ZM76.4482 59.1823L75.8296 57.8158L75.0796 58.1554L75.6982 59.5219L76.3169 60.8884L77.0669 60.5488L76.4482 59.1823ZM75.6982 59.5219L75.0796 58.1554L74.3296 58.495L74.9482 59.8614L75.5669 61.2279L76.3169 60.8884L75.6982 59.5219ZM74.9482 59.8614L74.3296 58.495C74.2566 58.528 74.2191 58.5296 74.2051 58.5295C74.1909 58.5295 74.1521 58.5274 74.0772 58.4928L73.4482 59.8546L72.8192 61.2163C73.7131 61.6292 74.6684 61.6347 75.5669 61.2279L74.9482 59.8614ZM73.4482 59.8546L74.0772 58.4928L73.3272 58.1464L72.6982 59.5081L72.0692 60.8699L72.8192 61.2163L73.4482 59.8546ZM72.6982 59.5081L73.3272 58.1464L72.5772 57.8L71.9482 59.1617L71.3192 60.5235L72.0692 60.8699L72.6982 59.5081ZM71.9482 59.1617L72.5772 57.8C72.0571 57.5597 71.4777 57.4752 70.8856 57.6014C70.3152 57.7229 69.8381 58.017 69.4522 58.3598L70.4482 59.4814L71.4443 60.6029C71.5583 60.5017 71.5812 60.5205 71.5108 60.5355C71.4747 60.5432 71.4315 60.5457 71.388 60.5403C71.3458 60.5351 71.3217 60.5246 71.3192 60.5235L71.9482 59.1617ZM70.4482 59.4814L69.4522 58.3598L68.7022 59.0259L69.6982 60.1475L70.6943 61.269L71.4443 60.6029L70.4482 59.4814ZM69.6982 60.1475L68.7022 59.0259L67.9522 59.692L68.9482 60.8135L69.9443 61.9351L70.6943 61.269L69.6982 60.1475ZM68.9482 60.8135L67.9522 59.692C67.8362 59.795 67.8086 59.7802 67.8719 59.7661C67.9046 59.7588 67.9451 59.7557 67.9868 59.7603C68.0275 59.7648 68.0515 59.7745 68.055 59.7761L67.4482 61.1479L66.8414 62.5196C67.3636 62.7506 67.94 62.8245 68.5245 62.6942C69.0878 62.5687 69.5602 62.2762 69.9443 61.9351L68.9482 60.8135ZM67.4482 61.1479L68.055 59.7761L67.305 59.4443L66.6982 60.8161L66.0914 62.1879L66.8414 62.5196L67.4482 61.1479ZM66.6982 60.8161L67.305 59.4443L66.555 59.1126L65.9482 60.4843L65.3414 61.8561L66.0914 62.1879L66.6982 60.8161ZM65.9482 60.4843L66.555 59.1126C65.6689 58.7206 64.7285 58.7202 63.8421 59.1118L64.4482 60.4839L65.0544 61.856C65.1679 61.8058 65.2276 61.8058 65.3414 61.8561L65.9482 60.4843ZM64.4482 60.4839L63.8421 59.1118L63.0921 59.4432L63.6982 60.8152L64.3044 62.1873L65.0544 61.856L64.4482 60.4839ZM63.6982 60.8152L63.0921 59.4432L62.3421 59.7745L62.9482 61.1466L63.5544 62.5187L64.3044 62.1873L63.6982 60.8152ZM62.9482 61.1466L62.3421 59.7745C62.212 59.832 62.1377 59.8302 62.0206 59.7818L61.4482 61.1683L60.8759 62.5548C61.7587 62.9193 62.6844 62.903 63.5544 62.5187L62.9482 61.1466ZM61.4482 61.1683L62.0206 59.7818L61.2706 59.4722L60.6982 60.8587L60.1259 62.2452L60.8759 62.5548L61.4482 61.1683ZM60.6982 60.8587L61.2706 59.4722L60.5206 59.1626L59.9482 60.5491L59.3759 61.9356L60.1259 62.2452L60.6982 60.8587ZM59.9482 60.5491L60.5206 59.1626C59.8504 58.886 59.1521 58.7399 58.4355 58.7459L58.4482 60.2459L58.461 61.7458C58.7444 61.7434 59.046 61.7995 59.3759 61.9356L59.9482 60.5491ZM58.4482 60.2459L58.4355 58.7459L57.6855 58.7523L57.6982 60.2523L57.711 61.7522L58.461 61.7458L58.4482 60.2459ZM57.6982 60.2523L57.6855 58.7523L56.9355 58.7587L56.9482 60.2586L56.961 61.7586L57.711 61.7522L57.6982 60.2523ZM56.9482 60.2586L56.9355 58.7587C56.2295 58.7647 55.5412 58.9132 54.8789 59.185L55.4482 60.5727L56.0176 61.9605C56.3553 61.8219 56.6669 61.7611 56.961 61.7586L56.9482 60.2586ZM55.4482 60.5727L54.8789 59.185L54.1289 59.4927L54.6982 60.8804L55.2676 62.2682L56.0176 61.9605L55.4482 60.5727ZM54.6982 60.8804L54.1289 59.4927L53.3789 59.8004L53.9482 61.1881L54.5176 62.5759L55.2676 62.2682L54.6982 60.8804ZM53.9482 61.1881L53.3789 59.8004C53.3704 59.8039 53.3771 59.8 53.3965 59.7977C53.4166 59.7953 53.4373 59.7962 53.454 59.7991C53.4888 59.8051 53.4564 59.8104 53.3531 59.7322L52.4482 60.9285L51.5433 62.1249C52.3859 62.7622 53.4403 63.0179 54.5176 62.5759L53.9482 61.1881ZM52.4482 60.9285L53.3531 59.7322L52.6031 59.1649L51.6982 60.3613L50.7933 61.5576L51.5433 62.1249L52.4482 60.9285ZM51.6982 60.3613L52.6031 59.1649L51.8531 58.5977L50.9482 59.794L50.0433 60.9903L50.7933 61.5576L51.6982 60.3613ZM50.9482 59.794L51.8531 58.5977C51.4146 58.266 50.8645 58.0151 50.2238 58.0042C49.5803 57.9932 49.0202 58.2272 48.5699 58.5524L49.4482 59.7684L50.3265 60.9844C50.3537 60.9648 50.3523 60.9708 50.322 60.9815C50.2889 60.9932 50.2366 61.0048 50.1726 61.0037C50.1089 61.0026 50.0598 60.9894 50.0322 60.9787C50.0072 60.969 50.0113 60.9661 50.0433 60.9903L50.9482 59.794ZM49.4482 59.7684L48.5699 58.5524L47.8199 59.0941L48.6982 60.3101L49.5765 61.5261L50.3265 60.9844L49.4482 59.7684ZM48.6982 60.3101L47.8199 59.0941L47.0699 59.6358L47.9482 60.8518L48.8265 62.0678L49.5765 61.5261L48.6982 60.3101ZM47.9482 60.8518L47.0699 59.6358C47.0347 59.6613 47.0233 59.6635 47.0364 59.6585C47.0513 59.6527 47.0848 59.6428 47.1318 59.6408C47.1792 59.6387 47.2198 59.6454 47.2472 59.6535C47.2725 59.661 47.274 59.6658 47.2511 59.6512L46.4482 60.9183L45.6454 62.1853C46.1061 62.4773 46.6552 62.6648 47.2646 62.6378C47.8685 62.6111 48.3946 62.3797 48.8265 62.0678L47.9482 60.8518ZM46.4482 60.9183L47.2511 59.6512L46.5011 59.176L45.6982 60.4431L44.8954 61.7101L45.6454 62.1853L46.4482 60.9183ZM45.6982 60.4431L46.5011 59.176L45.7511 58.7008L44.9482 59.9678L44.1454 61.2349L44.8954 61.7101L45.6982 60.4431ZM44.9482 59.9678L45.7511 58.7008C45.297 58.413 44.7584 58.225 44.1601 58.2402C43.5648 58.2553 43.0389 58.4684 42.601 58.7681L43.4482 60.0059L44.2954 61.2438C44.3282 61.2213 44.3381 61.22 44.3249 61.2247C44.31 61.23 44.2788 61.2382 44.2363 61.2393C44.1936 61.2403 44.1585 61.2337 44.1368 61.2271C44.1168 61.221 44.1196 61.2185 44.1454 61.2349L44.9482 59.9678ZM43.4482 60.0059L42.601 58.7681L41.851 59.2814L42.6982 60.5192L43.5454 61.7571L44.2954 61.2438L43.4482 60.0059ZM42.6982 60.5192L41.851 59.2814L41.101 59.7947L41.9482 61.0326L42.7954 62.2704L43.5454 61.7571L42.6982 60.5192ZM41.9482 61.0326L41.101 59.7947C40.8646 59.9565 40.7667 59.934 40.7343 59.9277L40.4482 61.4002L40.1622 62.8727C41.1297 63.0606 42.0318 62.7931 42.7954 62.2704L41.9482 61.0326ZM40.4482 61.4002L40.7343 59.9277L39.9843 59.782L39.6982 61.2545L39.4122 62.727L40.1622 62.8727L40.4482 61.4002ZM39.6982 61.2545L39.9843 59.782L39.2343 59.6363L38.9482 61.1088L38.6622 62.5813L39.4122 62.727L39.6982 61.2545ZM38.9482 61.1088L39.2343 59.6363C38.7291 59.5382 38.2239 59.4428 37.7187 59.3502L37.4482 60.8256L37.1777 62.301C37.6725 62.3917 38.1673 62.4851 38.6622 62.5813L38.9482 61.1088ZM37.4482 60.8256L37.7187 59.3502L36.9687 59.2127L36.6982 60.6881L36.4277 62.1635L37.1777 62.301L37.4482 60.8256ZM36.6982 60.6881L36.9687 59.2127L36.2187 59.0751L35.9482 60.5506L35.6777 62.026L36.4277 62.1635L36.6982 60.6881ZM35.9482 60.5506L36.2187 59.0751C35.471 58.938 34.7238 58.9898 33.9984 59.2178L34.4482 60.6488L34.898 62.0798C35.1726 61.9934 35.4254 61.9797 35.6777 62.026L35.9482 60.5506ZM34.4482 60.6488L33.9984 59.2178L33.2484 59.4535L33.6982 60.8845L34.148 62.3155L34.898 62.0798L34.4482 60.6488ZM33.6982 60.8845L33.2484 59.4535L32.4985 59.6892L32.9482 61.1202L33.398 62.5512L34.148 62.3155L33.6982 60.8845ZM32.9482 61.1202L32.4985 59.6892C32.2354 59.7719 31.9946 59.7822 31.7516 59.7321L31.4482 61.2011L31.1448 62.6701C31.9019 62.8264 32.661 62.7828 33.398 62.5512L32.9482 61.1202ZM31.4482 61.2011L31.7516 59.7321L31.0016 59.5772L30.6982 61.0462L30.3948 62.5152L31.1448 62.6701L31.4482 61.2011ZM30.6982 61.0462L31.0016 59.5772L30.2516 59.4223L29.9482 60.8913L29.6448 62.3603L30.3948 62.5152L30.6982 61.0462ZM29.9482 60.8913L30.2516 59.4223C29.5991 59.2875 28.9402 59.2559 28.2807 59.33L28.4482 60.8207L28.6157 62.3113C28.9562 62.273 29.2973 62.2885 29.6448 62.3603L29.9482 60.8913ZM28.4482 60.8207L28.2807 59.33L27.5307 59.4143L27.6982 60.9049L27.8657 62.3955L28.6157 62.3113L28.4482 60.8207ZM27.6982 60.9049L27.5307 59.4143L26.7807 59.4986L26.9482 60.9892L27.1157 62.4798L27.8657 62.3955L27.6982 60.9049ZM26.9482 60.9892L26.7807 59.4986C26.2341 59.56 25.6884 59.6472 25.1438 59.7601L25.4482 61.2289L25.7526 62.6977C26.208 62.6033 26.6623 62.5307 27.1157 62.4798L26.9482 60.9892ZM25.4482 61.2289L25.1438 59.7601L24.3938 59.9155L24.6982 61.3843L25.0026 62.8531L25.7526 62.6977L25.4482 61.2289ZM24.6982 61.3843L24.3938 59.9155L23.6438 60.0709L23.9482 61.5397L24.2526 63.0085L25.0026 62.8531L24.6982 61.3843ZM23.9482 61.5397L23.6438 60.0709C23.377 60.1262 23.1148 60.1193 22.8381 60.0448L22.4482 61.4932L22.0583 62.9417C22.7816 63.1364 23.5194 63.1604 24.2526 63.0085L23.9482 61.5397ZM22.4482 61.4932L22.8381 60.0448L22.0881 59.8429L21.6982 61.2913L21.3083 62.7398L22.0583 62.9417L22.4482 61.4932ZM21.6982 61.2913L22.0881 59.8429L21.3381 59.641L20.9482 61.0894L20.5583 62.5379L21.3083 62.7398L21.6982 61.2913ZM20.9482 61.0894L21.3381 59.641C20.764 59.4865 20.1841 59.3774 19.5991 59.3147L19.4391 60.8061L19.279 62.2975C19.7062 62.3434 20.1324 62.4232 20.5583 62.5379L20.9482 61.0894ZM19.4391 60.8061L19.5991 59.3147L18.8399 59.2332L18.6799 60.7246L18.5199 62.2161L19.279 62.2975L19.4391 60.8061ZM18.6799 60.7246L18.8399 59.2332L18.0807 59.1518L17.9207 60.6432L17.7607 62.1346L18.5199 62.2161L18.6799 60.7246ZM17.9207 60.6432L18.0807 59.1518C17.6118 59.1015 17.1395 59.0331 16.6639 58.9464L16.3951 60.4222L16.1263 61.8979C16.6726 61.9974 17.2174 62.0764 17.7607 62.1346L17.9207 60.6432ZM16.3951 60.4222L16.6639 58.9464L15.8975 58.8068L15.6287 60.2826L15.3599 61.7583L16.1263 61.8979L16.3951 60.4222ZM15.6287 60.2826L15.8975 58.8068L15.131 58.6673L14.8623 60.143L14.5935 61.6187L15.3599 61.7583L15.6287 60.2826ZM14.8623 60.143L15.131 58.6673C14.7176 58.5919 14.3178 58.4772 13.9301 58.3228L13.3751 59.7163L12.8201 61.1098C13.3934 61.3382 13.985 61.5079 14.5935 61.6187L14.8623 60.143ZM13.3751 59.7163L13.9301 58.3228L13.2094 58.0357L12.6544 59.4293L12.0993 60.8228L12.8201 61.1098L13.3751 59.7163ZM12.6544 59.4293L13.2094 58.0357L12.4887 57.7487L11.9337 59.1422L11.3786 60.5357L12.0993 60.8228L12.6544 59.4293ZM11.9337 59.1422L12.4887 57.7487C11.9439 57.5317 11.3711 57.3473 10.7719 57.194L10.4001 58.6472L10.0283 60.1004C10.5129 60.2243 10.9625 60.37 11.3786 60.5357L11.9337 59.1422ZM10.4001 58.6472L10.7719 57.194L9.95907 56.986L9.58729 58.4392L9.2155 59.8924L10.0283 60.1004L10.4001 58.6472ZM9.58729 58.4392L9.95907 56.986L9.14625 56.7781L8.77446 58.2313L8.40268 59.6845L9.2155 59.8924L9.58729 58.4392ZM8.77446 58.2313L9.14625 56.7781C8.88856 56.7122 8.70087 56.5946 8.5424 56.4152L7.41834 57.4084L6.29427 58.4017C6.86021 59.0421 7.5766 59.4731 8.40268 59.6845L8.77446 58.2313ZM7.41834 57.4084L8.5424 56.4152L7.9991 55.8003L6.87504 56.7936L5.75097 57.7868L6.29427 58.4017L7.41834 57.4084ZM6.87504 56.7936L7.9991 55.8003L7.4558 55.1855L6.33173 56.1787L5.20767 57.1719L5.75097 57.7868L6.87504 56.7936ZM6.33173 56.1787L7.4558 55.1855C7.11053 54.7947 6.77647 54.3965 6.45358 53.9908L5.27997 54.925L4.10635 55.8591C4.46141 56.3052 4.82853 56.7428 5.20767 57.1719L6.33173 56.1787ZM5.27997 54.925L6.45358 53.9908L5.94512 53.352L4.7715 54.2862L3.59789 55.2203L4.10635 55.8591L5.27997 54.925ZM4.7715 54.2862L5.94512 53.352L5.43665 52.7132L4.26304 53.6474L3.08942 54.5815L3.59789 55.2203L4.7715 54.2862ZM4.26304 53.6474L5.43665 52.7132C5.18801 52.4008 4.98969 52.0607 4.83966 51.6886L3.44852 52.2496L2.05738 52.8106C2.31542 53.4505 2.66011 54.0421 3.08942 54.5815L4.26304 53.6474ZM3.44852 52.2496L4.83966 51.6886L4.5336 50.9297L3.14246 51.4907L1.75132 52.0517L2.05738 52.8106L3.44852 52.2496ZM3.14246 51.4907L4.5336 50.9297L4.22755 50.1708L2.83641 50.7318L1.44527 51.2928L1.75132 52.0517L3.14246 51.4907ZM2.83641 50.7318L4.22755 50.1708C4.22749 50.1706 4.2285 50.1731 4.22971 50.178C4.23094 50.1829 4.23198 50.1887 4.23259 50.1948C4.23395 50.2084 4.23227 50.2139 4.23352 50.2069C4.23657 50.1899 4.25779 50.1004 4.37172 49.9329L3.13151 49.0892L1.8913 48.2455C1.30514 49.1071 0.998118 50.184 1.44527 51.2928L2.83641 50.7318ZM3.13151 49.0892L4.37172 49.9329L4.97287 49.0493L3.73267 48.2056L2.49246 47.3618L1.8913 48.2455L3.13151 49.0892ZM3.73267 48.2056L4.97287 49.0493L5.57403 48.1656L4.33382 47.3219L3.09361 46.4782L2.49246 47.3618L3.73267 48.2056ZM4.33382 47.3219L5.57403 48.1656C5.87198 47.7277 6.11327 47.2022 6.16151 46.605C6.21208 45.9788 6.03993 45.3945 5.70429 44.8982L4.46172 45.7384L3.21915 46.5787C3.21475 46.5721 3.19772 46.5443 3.18467 46.4968C3.17131 46.4481 3.16823 46.4008 3.17125 46.3634C3.17685 46.2941 3.19644 46.327 3.09361 46.4782L4.33382 47.3219ZM4.46172 45.7384L5.70429 44.8982L5.23104 44.1983L3.98847 45.0386L2.7459 45.8788L3.21915 46.5787L4.46172 45.7384ZM3.98847 45.0386L5.23104 44.1983L4.75778 43.4984L3.51521 44.3387L2.27264 45.1789L2.7459 45.8788L3.98847 45.0386ZM3.51521 44.3387L4.75778 43.4984C4.52159 43.1492 4.35957 42.8047 4.25877 42.4637L2.82029 42.8888L1.3818 43.314C1.57657 43.973 1.87783 44.5951 2.27264 45.1789L3.51521 44.3387ZM2.82029 42.8888L4.25877 42.4637L4.0371 41.7137L2.59861 42.1388L1.16013 42.564L1.3818 43.314L2.82029 42.8888ZM2.59861 42.1388L4.0371 41.7137L3.81543 40.9637L2.37694 41.3888L0.938457 41.814L1.16013 42.564L2.59861 42.1388ZM2.37694 41.3888L3.81543 40.9637C3.79294 40.8876 3.77996 40.8005 3.88268 40.6148L2.57003 39.8888L1.25738 39.1629C0.807086 39.9772 0.665375 40.8901 0.938457 41.814L2.37694 41.3888ZM2.57003 39.8888L3.88268 40.6148L4.29744 39.8648L2.98479 39.1388L1.67214 38.4129L1.25738 39.1629L2.57003 39.8888ZM2.98479 39.1388L4.29744 39.8648L4.7122 39.1148L3.39955 38.3888L2.0869 37.6629L1.67214 38.4129L2.98479 39.1388ZM3.39955 38.3888L4.7122 39.1148C5.13561 38.3491 5.31389 37.4965 5.14704 36.6111L3.67298 36.8888L2.19892 37.1666C2.22051 37.2812 2.21649 37.4286 2.0869 37.6629L3.39955 38.3888ZM3.67298 36.8888L5.14704 36.6111L5.00571 35.8611L3.53165 36.1388L2.0576 36.4166L2.19892 37.1666L3.67298 36.8888ZM3.53165 36.1388L5.00571 35.8611L4.86439 35.1111L3.39033 35.3888L1.91627 35.6666L2.0576 36.4166L3.53165 36.1388ZM3.39033 35.3888L4.86439 35.1111C4.73219 34.4095 4.45897 33.7415 4.07553 33.1102L2.79348 33.8888L1.51142 34.6675C1.73535 35.0362 1.86003 35.3682 1.91627 35.6666L3.39033 35.3888ZM2.79348 33.8888L4.07553 33.1102L3.62001 32.3602L2.33796 33.1388L1.0559 33.9175L1.51142 34.6675L2.79348 33.8888ZM2.33796 33.1388L3.62001 32.3602L3.16449 31.6102L1.88243 32.3888L0.600378 33.1675L1.0559 33.9175L2.33796 33.1388ZM1.88243 32.3888L3.16449 31.6102C3.00479 31.3472 2.99057 31.1785 3.0041 31.0621L1.51414 30.8888L0.0241861 30.7155C-0.0785921 31.5992 0.152713 32.4305 0.600378 33.1675L1.88243 32.3888ZM1.51414 30.8888L3.0041 31.0621L3.09133 30.3121L1.60137 30.1388L0.111417 29.9655L0.0241861 30.7155L1.51414 30.8888ZM1.60137 30.1388L3.09133 30.3121L3.17856 29.5621L1.6886 29.3888L0.198648 29.2155L0.111417 29.9655L1.60137 30.1388ZM1.6886 29.3888L3.17856 29.5621C3.18698 29.4898 3.2409 29.2783 3.57771 28.9271L2.49511 27.8888L1.41251 26.8506C0.790286 27.4994 0.306541 28.2879 0.198648 29.2155L1.6886 29.3888ZM2.49511 27.8888L3.57771 28.9271L4.29699 28.1771L3.21439 27.1388L2.13179 26.1006L1.41251 26.8506L2.49511 27.8888ZM3.21439 27.1388L4.29699 28.1771L5.01627 27.4271L3.93367 26.3888L2.85106 25.3506L2.13179 26.1006L3.21439 27.1388ZM3.93367 26.3888L5.01627 27.4271C5.41526 27.0111 5.78473 26.421 5.80117 25.6718C5.81777 24.9153 5.4682 24.3078 5.07315 23.8762L3.96658 24.8888L2.86001 25.9015C2.92254 25.9698 2.79627 25.8624 2.80189 25.6059C2.80736 25.3566 2.93159 25.2666 2.85106 25.3506L3.93367 26.3888ZM3.96658 24.8888L5.07315 23.8762L4.38679 23.1262L3.28022 24.1388L2.17365 25.1515L2.86001 25.9015L3.96658 24.8888ZM3.28022 24.1388L4.38679 23.1262L3.70043 22.3762L2.59386 23.3888L1.4873 24.4015L2.17365 25.1515L3.28022 24.1388ZM2.59386 23.3888L3.70043 22.3762C3.57705 22.2414 3.55746 22.175 3.55987 22.1826C3.56161 22.188 3.56616 22.2057 3.56672 22.2318C3.56728 22.2579 3.56349 22.2783 3.56064 22.2886L2.1149 21.8888L0.669159 21.4891C0.351519 22.6377 0.801721 23.6524 1.4873 24.4015L2.59386 23.3888ZM2.1149 21.8888L3.56064 22.2886L3.76804 21.5386L2.3223 21.1388L0.876555 20.7391L0.669159 21.4891L2.1149 21.8888ZM2.3223 21.1388L3.76804 21.5386L3.97543 20.7886L2.52969 20.3888L1.08395 19.9891L0.876555 20.7391L2.3223 21.1388ZM2.52969 20.3888L3.97543 20.7886C4.18908 20.016 4.18013 19.2293 3.96529 18.4589L2.52041 18.8618L1.07553 19.2647C1.1496 19.5303 1.14684 19.7616 1.08395 19.9891L2.52969 20.3888ZM2.52041 18.8618L3.96529 18.4589L3.74862 17.6818L2.30374 18.0847L0.858855 18.4876L1.07553 19.2647L2.52041 18.8618ZM2.30374 18.0847L3.74862 17.6818L3.53194 16.9048L2.08706 17.3077L0.642179 17.7105L0.858855 18.4876L2.30374 18.0847ZM2.08706 17.3077L3.53194 16.9048C3.53514 16.9162 3.54316 16.9526 3.54036 17.0069C3.53749 17.0627 3.52434 17.1152 3.5065 17.1574C3.47249 17.2379 3.45067 17.2162 3.57633 17.1212L2.67161 15.9247L1.7669 14.7283C1.35841 15.0372 0.972076 15.448 0.743219 15.9894C0.503591 16.5563 0.486141 17.1509 0.642179 17.7105L2.08706 17.3077ZM2.67161 15.9247L3.57633 17.1212L4.37756 16.5153L3.47284 15.3189L2.56813 14.1224L1.7669 14.7283L2.67161 15.9247ZM3.47284 15.3189L4.37756 16.5153L5.17879 15.9094L4.27407 14.713L3.36936 13.5166L2.56813 14.1224L3.47284 15.3189ZM4.27407 14.713L5.17879 15.9094C5.85013 15.4018 6.44568 14.7484 6.71171 13.908L5.28166 13.4553L3.85161 13.0026C3.8425 13.0314 3.76632 13.2164 3.36936 13.5166L4.27407 14.713ZM5.28166 13.4553L6.71171 13.908L6.91807 13.2562L5.48802 12.8035L4.05797 12.3507L3.85161 13.0026L5.28166 13.4553ZM5.48802 12.8035L6.91807 13.2562L7.12443 12.6043L5.69438 12.1516L4.26432 11.6989L4.05797 12.3507L5.48802 12.8035ZM5.69438 12.1516L7.12443 12.6043C7.34875 11.8957 7.36562 11.1179 7.27187 10.338L5.7826 10.517L4.29332 10.6961C4.35708 11.2265 4.31514 11.5384 4.26432 11.6989L5.69438 12.1516ZM5.7826 10.517L7.27187 10.338L7.15374 9.3553L5.66446 9.53433L4.17518 9.71336L4.29332 10.6961L5.7826 10.517ZM5.66446 9.53433L7.15374 9.3553L7.0356 8.37258L5.54632 8.55161L4.05704 8.73064L4.17518 9.71336L5.66446 9.53433ZM5.54632 8.55161L7.0356 8.37258C7.01919 8.23609 7.05175 8.26952 6.99912 8.3786C6.97248 8.43382 6.93446 8.48526 6.89119 8.52592C6.84975 8.56486 6.81904 8.57941 6.8179 8.57994L6.1899 7.21773L5.56189 5.85552C5.0363 6.09783 4.57567 6.49774 4.29717 7.07496C4.03002 7.62867 3.99469 8.21198 4.05704 8.73064L5.54632 8.55161ZM6.1899 7.21773L6.8179 8.57994L7.57961 8.22878L6.95161 6.86657L6.3236 5.50436L5.56189 5.85552L6.1899 7.21773ZM6.95161 6.86657L7.57961 8.22878L8.34132 7.87761L7.71332 6.5154L7.08531 5.1532L6.3236 5.50436L6.95161 6.86657ZM7.71332 6.5154L8.34132 7.87761C8.7087 7.70824 9.07604 7.60608 9.44807 7.56421L9.28034 6.07362L9.1126 4.58303C8.41089 4.66199 7.73355 4.85435 7.08531 5.1532L7.71332 6.5154ZM9.28034 6.07362L9.44807 7.56421L10.2534 7.47359L10.0856 5.983L9.91791 4.49241L9.1126 4.58303L9.28034 6.07362ZM10.0856 5.983L10.2534 7.47359L11.0587 7.38297L10.891 5.89238L10.7232 4.40178L9.91791 4.49241L10.0856 5.983ZM10.891 5.89238L11.0587 7.38297C11.8333 7.2958 12.558 7.03084 13.1838 6.55604L12.2771 5.36105L11.3705 4.16606C11.2218 4.27887 11.0224 4.36812 10.7232 4.40178L10.891 5.89238ZM12.2771 5.36105L13.1838 6.55604L13.7646 6.11533L12.858 4.92034L11.9514 3.72535L11.3705 4.16606L12.2771 5.36105ZM12.858 4.92034L13.7646 6.11533L14.3455 5.67463L13.4389 4.47964L12.5322 3.28465L11.9514 3.72535L12.858 4.92034ZM13.4389 4.47964L14.3455 5.67463C14.703 5.4034 15.0971 5.12563 15.5288 4.84154L14.7043 3.58847L13.8798 2.3354C13.3988 2.65192 12.9492 2.96827 12.5322 3.28465L13.4389 4.47964ZM14.7043 3.58847L15.5288 4.84154L16.2135 4.39108L15.3889 3.138L14.5644 1.88493L13.8798 2.3354L14.7043 3.58847ZM15.3889 3.138L16.2135 4.39108L16.8981 3.94061L16.0736 2.68754L15.2491 1.43447L14.5644 1.88493L15.3889 3.138ZM16.0736 2.68754L16.8981 3.94061C17.0589 3.83479 17.1056 3.83019 17.0583 3.8429C17.0065 3.85681 16.7156 3.92057 16.3714 3.73378L17.0867 2.41536L17.8021 1.09693C17.2388 0.791289 16.6695 0.840989 16.28 0.945626C15.895 1.04906 15.5446 1.23998 15.2491 1.43447L16.0736 2.68754ZM17.0867 2.41536L16.3714 3.73378L16.6999 3.91206L17.4153 2.59364L18.1307 1.27521L17.8021 1.09693L17.0867 2.41536ZM17.4153 2.59364L16.6999 3.91206L17.0285 4.09034L17.7439 2.77192L18.4592 1.45349L18.1307 1.27521L17.4153 2.59364ZM17.7439 2.77192L17.0285 4.09034C17.7347 4.47352 18.5501 4.38742 19.0944 4.28709L18.8224 2.81195L18.5505 1.3368C18.4626 1.35301 18.3919 1.3625 18.3368 1.36756C18.2812 1.37265 18.2479 1.37263 18.2334 1.3721C18.2183 1.37153 18.2326 1.37074 18.2686 1.37896C18.3048 1.38723 18.3738 1.40713 18.4592 1.45349L17.7439 2.77192ZM18.8224 2.81195L19.0944 4.28709L19.8444 4.14884L19.5724 2.6737L19.3005 1.19855L18.5505 1.3368L18.8224 2.81195Z" fill="white"/>
</svg>
