<svg width="30" height="45" viewBox="0 0 30 45" fill="none" xmlns="http://www.w3.org/2000/svg">
<path d="M14.7279 0.389307L12.7279 0.389307L12.7279 0.585791L12.7661 0.778518L14.7279 0.389307ZM15.2338 2.93931L17.1956 2.55009L15.2338 2.93931ZM14.3806 9.38931L12.492 8.73112L14.3806 9.38931ZM14.8155 19.7893L12.8868 19.2602L14.8155 19.7893ZM14.7233 22.3893L16.6832 21.9906L14.7233 22.3893ZM14.3624 30.1893L12.4447 29.6217L14.3624 30.1893ZM14.3268 37.9893L16.3169 37.7912L14.3268 37.9893ZM14.5856 40.5893L16.5758 40.3912L14.5856 40.5893ZM14.7183 41.9893L12.7193 42.0536L14.7183 41.9893ZM14.7215 42.0893L12.7225 42.1536L12.7235 42.1856L12.7256 42.2176L14.7215 42.0893ZM14.7279 42.1893L16.7279 42.1893L16.7279 42.1251L16.7238 42.061L14.7279 42.1893ZM13.3137 43.7035C14.0947 44.4846 15.3611 44.4846 16.1421 43.7035L28.87 30.9756C29.6511 30.1945 29.6511 28.9282 28.87 28.1472C28.089 27.3661 26.8227 27.3661 26.0416 28.1472L14.7279 39.4609L3.4142 28.1472C2.63315 27.3661 1.36682 27.3661 0.585768 28.1472C-0.19528 28.9282 -0.19528 30.1945 0.585768 30.9756L13.3137 43.7035ZM14.7279 0.289307L12.7279 0.289307L12.7279 0.389307L14.7279 0.389307L16.7279 0.389307L16.7279 0.289307L14.7279 0.289307ZM14.7279 0.389307L12.7661 0.778518L13.2721 3.32852L15.2338 2.93931L17.1956 2.55009L16.6897 9.49763e-05L14.7279 0.389307ZM15.2338 2.93931L13.2721 3.32852C13.5917 4.93981 13.5187 5.78502 13.3981 6.13112L15.2867 6.78931L17.1753 7.44749C17.6587 6.06026 17.5505 4.33881 17.1956 2.55009L15.2338 2.93931ZM15.2867 6.78931L13.3981 6.13112L12.945 7.43112L14.8336 8.08931L16.7222 8.74749L17.1753 7.44749L15.2867 6.78931ZM14.8336 8.08931L12.945 7.43112L12.492 8.73112L14.3806 9.38931L16.2692 10.0475L16.7222 8.74749L14.8336 8.08931ZM14.3806 9.38931L12.492 8.73112C12.0343 10.0444 12.0555 11.3934 12.5453 12.6941L14.417 11.9893L16.2887 11.2846C16.1258 10.8519 16.1228 10.4675 16.2692 10.0475L14.3806 9.38931ZM14.417 11.9893L12.5453 12.6941L13.0348 13.9941L14.9065 13.2893L16.7782 12.5846L16.2887 11.2846L14.417 11.9893ZM14.9065 13.2893L13.0348 13.9941L13.5242 15.2941L15.396 14.5893L17.2677 13.8846L16.7782 12.5846L14.9065 13.2893ZM15.396 14.5893L13.5242 15.2941C13.7067 15.7786 13.7226 16.2136 13.6001 16.6602L15.5288 17.1893L17.4575 17.7184C17.8105 16.4317 17.7379 15.1333 17.2677 13.8846L15.396 14.5893ZM15.5288 17.1893L13.6001 16.6602L13.2434 17.9602L15.1721 18.4893L17.1009 19.0184L17.4575 17.7184L15.5288 17.1893ZM15.1721 18.4893L13.2434 17.9602L12.8868 19.2602L14.8155 19.7893L16.7442 20.3184L17.1009 19.0184L15.1721 18.4893ZM14.8155 19.7893L12.8868 19.2602C12.5674 20.4243 12.5236 21.6088 12.7635 22.788L14.7233 22.3893L16.6832 21.9906C16.5704 21.4365 16.5881 20.8876 16.7442 20.3184L14.8155 19.7893ZM14.7233 22.3893L12.7635 22.788L13.028 24.088L14.9878 23.6893L16.9477 23.2906L16.6832 21.9906L14.7233 22.3893ZM14.9878 23.6893L13.028 24.088L13.2925 25.388L15.2523 24.9893L17.2122 24.5906L16.9477 23.2906L14.9878 23.6893ZM15.2523 24.9893L13.2925 25.388C13.4021 25.9267 13.38 26.4617 13.2142 27.0217L15.132 27.5893L17.0498 28.1569C17.397 26.9836 17.4552 25.7852 17.2122 24.5906L15.2523 24.9893ZM15.132 27.5893L13.2142 27.0217L12.8295 28.3217L14.7472 28.8893L16.665 29.4569L17.0498 28.1569L15.132 27.5893ZM14.7472 28.8893L12.8295 28.3217L12.4447 29.6217L14.3624 30.1893L16.2802 30.7569L16.665 29.4569L14.7472 28.8893ZM14.3624 30.1893L12.4447 29.6217C12.1282 30.6908 11.988 31.7776 12.0343 32.8737L14.0326 32.7893L16.0308 32.7049C16.0039 32.0677 16.0836 31.4211 16.2802 30.7569L14.3624 30.1893ZM14.0326 32.7893L12.0343 32.8737L12.0893 34.1737L14.0875 34.0893L16.0857 34.0049L16.0308 32.7049L14.0326 32.7893ZM14.0875 34.0893L12.0893 34.1737L12.1442 35.4737L14.1424 35.3893L16.1406 35.3049L16.0857 34.0049L14.0875 34.0893ZM14.1424 35.3893L12.1442 35.4737C12.1824 36.3785 12.2466 37.2831 12.3366 38.1874L14.3268 37.9893L16.3169 37.7912C16.2344 36.9622 16.1757 36.1334 16.1406 35.3049L14.1424 35.3893ZM14.3268 37.9893L12.3366 38.1874L12.466 39.4874L14.4562 39.2893L16.4464 39.0912L16.3169 37.7912L14.3268 37.9893ZM14.4562 39.2893L12.466 39.4874L12.5955 40.7874L14.5856 40.5893L16.5758 40.3912L16.4464 39.0912L14.4562 39.2893ZM14.5856 40.5893L12.5955 40.7874C12.6385 41.2198 12.6708 41.5494 12.6924 41.7779C12.7033 41.8926 12.7111 41.9784 12.7163 42.0375C12.7238 42.1246 12.7209 42.1038 12.7193 42.0536L14.7183 41.9893L16.7172 41.925C16.7122 41.7698 16.6556 41.1932 16.5758 40.3912L14.5856 40.5893ZM14.7183 41.9893L12.7193 42.0536L12.7225 42.1536L14.7215 42.0893L16.7204 42.025L16.7172 41.925L14.7183 41.9893ZM14.7215 42.0893L12.7256 42.2176L12.732 42.3176L14.7279 42.1893L16.7238 42.061L16.7174 41.961L14.7215 42.0893ZM14.7279 42.1893L12.7279 42.1893L12.7279 42.2893L14.7279 42.2893L16.7279 42.2893L16.7279 42.1893L14.7279 42.1893Z" fill="white"/>
</svg>
