<svg width="29" height="9" viewBox="0 0 29 9" fill="none" xmlns="http://www.w3.org/2000/svg">
<path d="M1.20117 3.69165H26.2012V4.69165H1.20117V3.69165Z" fill="#D9D9D9"/>
<path d="M14.748 0.00415039C15.8345 -0.0576477 16.6103 0.602107 17.0762 1.14478C17.424 0.878059 17.8864 0.630969 18.4512 0.5979L19.2324 0.676025L20.2324 0.957275C20.6545 1.07323 21.072 1.22064 21.4824 1.39478L21.5605 1.42603C21.6782 1.29351 21.7921 1.15249 21.9355 1.0354C22.2947 0.743756 22.7959 0.480353 23.3887 0.426025L24.0137 0.44165L25.0137 0.5979C25.9401 0.746265 26.6528 1.27895 27.1543 1.8479L27.5918 2.3479L28.0449 2.86353C28.2599 3.1076 29.0338 4.05884 28.5762 5.30103C28.3555 5.89604 27.9423 6.25966 27.623 6.45728C27.3121 6.64933 26.9948 6.74466 26.7637 6.80103L26.0762 6.9729L25.373 7.14478C24.533 7.34961 23.6375 7.26369 22.8262 6.7854C22.656 6.96754 22.4837 7.17124 22.248 7.31665C21.4912 7.78246 20.5524 7.83001 19.7324 7.37915L19.2324 7.11353L18.7324 6.83228C18.6831 6.80548 18.6465 6.79307 18.623 6.7854C18.6002 6.77843 18.5792 6.76996 18.5762 6.76978L18.4668 6.75415C18.3517 7.00307 18.2176 7.29344 18.0137 7.55103C17.801 7.81885 17.3779 8.26457 16.7012 8.44165C15.9167 8.64411 15.2224 8.38923 14.7637 8.05103C14.3651 7.75612 14.1133 7.38388 13.9668 7.12915L13.9043 7.01978C13.5105 7.38891 12.9266 7.80757 12.0762 7.75415C11.3081 7.70587 10.786 7.30134 10.4355 6.94165C10.2974 7.19083 10.1076 7.5108 9.81055 7.7854C9.50081 8.06999 8.97432 8.41964 8.26367 8.44165C7.54242 8.46318 6.99317 8.13818 6.6543 7.8479C6.40965 7.63773 6.2445 7.38715 6.10742 7.17603C5.78138 7.03395 5.51371 6.86977 5.32617 6.69165L4.95117 6.31665L4.73242 6.5979L4.23242 7.19165C4.10072 7.3483 3.90193 7.56783 3.63867 7.75415C3.42942 7.90187 2.79267 8.29634 1.93555 8.12915C0.947222 7.93469 0.50524 7.18059 0.357422 6.81665C0.211399 6.45644 0.181164 6.11339 0.169922 5.9104L0.123047 5.20728L0.0917969 4.50415C0.0822307 4.32555 0.0669425 4.37682 0.123047 4.5354C0.141597 4.58744 0.230371 4.68456 0.326172 4.83228C-0.021277 4.05228 -0.241493 2.85996 0.466797 1.89478C0.710095 1.79444 1.03658 1.71734 1.10742 1.70728C1.13697 1.70392 1.1793 1.69347 1.20117 1.69165H2.70117C3.07471 1.69114 3.45286 1.70041 3.82617 1.7229L4.32617 1.75415L4.74805 1.7854L5.01367 1.69165C5.78508 1.41013 6.52048 1.5656 7.10742 1.89478C7.31844 1.55846 7.57296 1.19979 7.91992 0.9104C8.36501 0.53929 9.04078 0.20082 9.87305 0.269775L10.373 0.301025L10.873 0.3479C11.1649 0.371958 11.4565 0.386786 11.748 0.394775L12.748 0.426025C12.8761 0.429478 13.0204 0.404853 13.1699 0.363525L13.6699 0.238525L14.1699 0.0979004L14.748 0.00415039ZM25.7324 2.94165L25.7012 2.95728L25.8262 2.92603C25.8187 2.92786 25.7793 2.9237 25.7324 2.94165Z" fill="white"/>
</svg>
