<svg width="35" height="35" viewBox="0 0 35 35" fill="none" xmlns="http://www.w3.org/2000/svg">
<path d="M3.15009 5.44496L14.8295 10.47L23.2177 0.915048L22.0477 13.5756L33.7271 18.6006L21.3246 21.4003L20.1547 34.0608L13.6595 23.1305L1.25708 25.9302L9.64527 16.3752L3.15009 5.44496Z" fill="#FF0000"/>
<path d="M1.92396 5.14825L2.12412 4.9913L2.32357 4.82332C2.49478 4.68543 2.68122 4.56419 2.87609 4.46631L3.21886 4.28902C3.40509 4.19548 3.73682 4.0814 4.10174 4.15964L4.47704 4.31239L4.58644 4.37724L4.68997 4.43694C4.90342 4.56788 5.01495 4.75388 5.08535 4.89839C5.229 4.89288 5.39444 4.91587 5.56803 4.99987C5.70553 5.06655 5.79878 5.16157 5.87777 5.25099C5.93025 5.18081 5.98792 5.10549 6.05229 5.04035C6.10056 4.99158 6.20293 4.89883 6.3481 4.82182C6.4765 4.75386 6.86604 4.58514 7.30501 4.80942C7.71506 5.0206 7.8243 5.40479 7.84918 5.51585C7.8651 5.58802 7.85922 5.65645 7.86208 5.71431L7.87898 5.71875L8.0548 5.6132C8.18404 5.53924 8.63841 5.32658 9.12855 5.60981C9.55626 5.85825 9.63848 6.28285 9.65497 6.38383C9.67465 6.50532 9.66455 6.63099 9.65658 6.7491C9.92268 6.85544 10.1099 7.05385 10.2092 7.24462C10.2509 7.32533 10.2444 7.41715 10.2639 7.49018C10.4529 7.43754 10.706 7.42148 10.9818 7.54868C11.0103 7.56185 11.0316 7.58997 11.0574 7.60465C11.1311 7.5546 11.2268 7.47971 11.3568 7.44125C11.6083 7.36731 11.9999 7.37337 12.3288 7.66038C12.3668 7.69364 12.3838 7.74185 12.4139 7.77664C12.5493 7.74638 12.7241 7.72932 12.918 7.78261C13.1407 7.84448 13.2909 7.97701 13.404 8.10531C13.4226 8.08401 13.4399 8.06114 13.4607 8.04073C13.6256 7.88008 13.8143 7.79302 13.9734 7.75274L14.2675 7.67825C14.3906 7.64725 14.5218 7.62047 14.6498 7.59804L14.8086 7.5711L14.9615 7.53902L14.9667 7.53314C14.9322 7.46261 14.8086 7.2158 14.8318 6.90529C14.8461 6.71447 14.9264 6.4585 15.143 6.24288C15.3535 6.03416 15.6 5.96224 15.7601 5.94256C15.8959 5.92632 16.0204 5.93856 16.1209 5.95785L16.3406 6.01554L16.6638 6.13292L16.6614 5.75663C16.6901 5.58796 16.7665 5.39022 16.9416 5.2125C17.2253 4.92523 17.5637 4.90648 17.7248 4.91245C17.7351 4.89171 17.7473 4.87016 17.7595 4.8493C17.8401 4.71099 17.9406 4.61306 18.0436 4.53742C18.0541 4.35006 18.1177 4.12302 18.3019 3.91167C18.614 3.55355 19.0166 3.55504 19.2042 3.57067C19.2013 3.5301 19.1886 3.48831 19.1905 3.44424C19.2003 3.20855 19.3002 2.91946 19.5408 2.70179C19.5391 2.69104 19.5401 2.6797 19.5386 2.66871C19.5152 2.48646 19.5147 2.06797 19.8657 1.73955C20.1857 1.44063 20.5613 1.4423 20.6996 1.45281L21.0985 1.54313L21.1382 1.55716C21.2795 1.43315 21.4318 1.36765 21.5663 1.33003C21.5871 1.29911 21.6112 1.26838 21.6326 1.24268C21.6394 1.23459 21.6463 1.22691 21.6532 1.21919C21.6062 1.00027 21.6004 0.695371 21.8376 0.393424C22.002 0.1853 22.2023 0.095763 22.3195 0.0576099C22.4388 0.018885 22.5399 0.00321852 22.5981 0.000740324C22.7864 -0.00718983 22.9561 0.0440491 23.0059 0.0572627C23.0919 0.0800018 23.1891 0.112092 23.2829 0.144438L23.7757 0.31722L24.2737 0.484131C24.3747 0.518983 24.5349 0.579327 24.6791 0.673673C24.7469 0.718262 24.8892 0.823458 25.0049 1.00125C25.1194 1.17784 25.1994 1.44177 25.147 1.73937C25.1988 1.7665 25.261 1.78571 25.313 1.82269C25.3833 1.87292 25.5366 1.99103 25.6475 2.19952C25.7892 2.46747 25.827 2.83216 25.6496 3.16817C25.5106 3.42906 25.2999 3.55867 25.213 3.60622C25.1092 3.66261 25.0132 3.69895 24.949 3.7175L24.6174 3.81103C24.6763 3.86435 24.7481 3.91113 24.8001 3.98183C24.905 4.12461 25.0267 4.36106 25.0165 4.67082C25.006 4.99013 24.863 5.23324 24.7251 5.38177L24.5072 5.6063C24.3116 5.81696 24.0546 5.92995 23.8414 6.00943C23.9169 6.20369 23.9683 6.43837 23.8969 6.69228C23.8566 6.83479 23.7836 6.94857 23.7148 7.04181C23.7585 7.06362 23.8084 7.0838 23.8521 7.11039C23.9358 7.16152 24.1223 7.28197 24.2593 7.4991C24.3366 7.62169 24.4118 7.80189 24.4209 8.02558C24.4295 8.25981 24.3623 8.47363 24.2611 8.63385C24.0895 8.90503 23.841 9.02376 23.7467 9.06589L23.2731 9.27384L23.2569 9.28042L23.3759 9.32251L23.835 9.48642C23.9349 9.52315 24.0441 9.5701 24.1485 9.62657C24.2294 9.67034 24.4152 9.77558 24.564 9.97047C24.6469 10.0796 24.7486 10.2594 24.7755 10.4992C24.8042 10.7564 24.7338 10.9922 24.6201 11.1737C24.5145 11.3411 24.3783 11.4474 24.266 11.5178L24.3482 11.5899L24.5015 11.735C24.5961 11.8231 24.8045 12.0759 24.8348 12.433C24.9757 12.4691 25.1192 12.5255 25.246 12.6277C25.4057 12.7569 25.4927 12.9157 25.5496 13.0397L25.7467 13.0048C25.7623 13.0017 25.7973 12.9892 25.8548 12.9645L26.1887 12.821C26.3056 12.7708 26.5061 12.712 26.754 12.7455C27.0281 12.7826 27.254 12.9205 27.4082 13.1015C27.6526 13.3897 27.6657 13.7203 27.6694 13.7987C27.6808 14.0371 27.6311 14.3064 27.5837 14.5239L27.4482 15.1639L27.3327 15.6862C27.5017 15.8564 27.5949 16.0483 27.6486 16.2027C27.821 16.2486 27.9862 16.3166 28.134 16.4313L28.2261 16.3146L28.5161 16.0078C28.5752 15.9584 28.6872 15.87 28.8465 15.8092C29.0149 15.7451 29.3361 15.6753 29.6791 15.8436C29.7828 15.8947 29.85 15.9778 29.9191 16.0439L30.0444 15.842C30.2018 15.5792 30.3736 15.3118 30.5409 15.1344C30.587 15.0856 30.6644 15.0055 30.7661 14.937C30.8465 14.8831 31.0828 14.7406 31.4131 14.7566C31.8524 14.7782 32.1412 15.0548 32.2736 15.304C32.3783 15.5023 32.3932 15.6904 32.3978 15.7665L32.4336 16.3178C32.4438 16.488 32.4599 16.651 32.4762 16.8022L32.4855 16.9455C32.6019 17.0388 32.694 17.1057 32.7196 17.1406C32.7282 17.1524 32.7253 17.172 32.7335 17.184C32.7473 17.1727 32.7602 17.1592 32.7755 17.1481C32.9286 17.0368 33.2679 16.8719 33.6797 17.0062C34.0337 17.123 34.1926 17.3889 34.2419 17.479C34.3416 17.6614 34.3583 17.8308 34.3596 17.8423C34.3658 17.893 34.3722 17.9361 34.3726 17.9577C34.3734 18.0017 34.3702 18.0421 34.3688 18.0686C34.3657 18.1263 34.3555 18.1987 34.3486 18.2692L34.2782 19.0599C34.2622 19.2241 34.2296 19.3959 34.1833 19.5588C34.1438 19.6978 34.0593 19.9484 33.8516 20.1616L33.7427 20.2739L33.6389 20.3803C33.5039 20.5169 33.2967 20.6501 33.0276 20.6858C32.9717 20.693 32.9181 20.6809 32.8667 20.6796C32.8329 20.7789 32.7598 20.9643 32.5911 21.1238C32.4778 21.2303 32.315 21.3302 32.1093 21.3766C31.9015 21.423 31.7078 21.3999 31.5596 21.3514C31.2995 21.2659 31.1448 21.0936 31.0905 21.0332C31.0202 20.9544 30.9666 20.8775 30.9328 20.822L30.7283 20.4865L30.6733 20.407C30.4826 20.3835 30.3266 20.3155 30.226 20.2534C30.0616 20.1514 29.9465 20.021 29.8848 19.9435C29.8186 19.86 29.767 19.762 29.7118 19.6669C29.6971 19.6722 29.6792 19.6704 29.6625 19.6756C29.654 19.7565 29.6534 19.8821 29.6538 20.0526L29.658 20.6281L29.6564 21.1984C29.6566 21.2811 29.6611 21.5248 29.5709 21.7575C29.536 21.8468 29.3438 22.2975 28.8048 22.4052C28.2877 22.5068 27.9503 22.191 27.8844 22.1274C27.8675 22.1111 27.8573 22.0863 27.8418 22.0693C27.7929 22.1289 27.7505 22.2024 27.6769 22.2571C27.5099 22.3808 27.296 22.4653 27.0592 22.4634C26.8382 22.4616 26.6664 22.3861 26.5575 22.3244C26.3645 22.2149 26.2476 22.072 26.2052 22.0151C26.1505 21.9415 26.1065 21.8653 26.0755 21.8077C26.0227 21.7093 25.9741 21.5947 25.9268 21.4796C25.8873 21.6021 25.8126 21.7862 25.6527 21.9459C25.5328 22.0648 25.3587 22.1631 25.1385 22.2118C25.1215 22.3312 25.1276 22.4647 25.0798 22.5865C25.0363 22.6976 24.9144 22.968 24.6181 23.148C24.2432 23.375 23.8501 23.3105 23.5965 23.1868L23.4481 23.1189L23.3798 23.0901C23.4331 23.2746 23.4566 23.4929 23.356 23.7449L23.3405 23.7625C23.4222 23.8415 23.534 23.9549 23.6023 24.1275C23.7351 24.4632 23.6778 24.8284 23.4831 25.104C23.3332 25.3162 23.1424 25.414 23.0629 25.4524C22.9667 25.4989 22.8779 25.5293 22.8143 25.5461L22.6401 25.5907C22.7222 25.819 22.7592 26.0945 22.63 26.3719C22.5634 26.5134 22.4727 26.6158 22.3906 26.6919C22.505 26.8089 22.7151 27.0914 22.6869 27.503C22.7616 27.5476 22.8622 27.5869 22.9409 27.6637C23.0219 27.743 23.153 27.9005 23.2209 28.1382C23.2998 28.4181 23.2612 28.7111 23.124 28.9472C23.0058 29.1497 22.8446 29.2642 22.7552 29.3199C22.6865 29.3627 22.6174 29.3874 22.5618 29.41L22.6595 29.4646C22.7419 29.5154 22.8577 29.5962 22.9633 29.7105C23.065 29.8209 23.2249 30.0336 23.2592 30.3445C23.3397 31.0826 22.7161 31.4085 22.6121 31.4606L22.1943 31.676C21.9986 31.7739 21.757 31.8323 21.5156 31.8806C21.4826 32.1817 21.3502 32.3989 21.225 32.5196C21.0857 32.6528 20.9239 32.7256 20.8094 32.768C20.8093 32.7777 20.806 32.7864 20.8056 32.7959C20.9197 32.8362 21.0414 32.8683 21.1347 32.9185C21.1754 32.9404 21.2747 32.9952 21.3725 33.0857C21.4137 33.1234 21.8282 33.5071 21.6656 34.1019C21.5845 34.3944 21.3933 34.5718 21.27 34.659C21.1508 34.7427 21.0394 34.7813 20.9802 34.7997C20.8605 34.8368 20.7564 34.8418 20.7119 34.8448L20.5083 34.8636L20.2988 34.8772C20.0858 34.8917 19.8676 34.8803 19.6543 34.8416L19.464 34.8097L19.2789 34.7719C19.1474 34.7479 18.9378 34.6929 18.7428 34.53C18.668 34.4673 18.6158 34.3858 18.5623 34.3092L18.5028 34.3297C18.3066 34.3961 18.0535 34.4729 17.8153 34.4851C17.7237 34.4897 17.4189 34.5059 17.1233 34.3142C16.9446 34.1982 16.7889 34.0121 16.706 33.7711C16.6289 33.5462 16.6421 33.3425 16.6695 33.2088L16.6976 33.0464L16.7369 32.8834L16.9265 32.3949C16.9831 32.2948 17.0438 32.2032 17.1026 32.1233C17.0567 32.0278 17.0207 31.9248 17.0054 31.8196C16.9478 31.4168 17.1416 31.1142 17.1823 31.0497C17.2367 30.9637 17.3179 30.8932 17.3885 30.8148L17.3004 30.7375C16.9256 30.3821 16.9463 29.9417 17.0045 29.6773L16.9883 29.6838L16.5685 29.7831L16.1546 29.8875C16.0682 29.9087 15.8642 29.9606 15.6371 29.9322C15.5208 29.9177 15.2649 29.8595 15.0371 29.6446C14.9188 29.5324 14.8369 29.4073 14.7864 29.279C14.7483 29.2798 14.7058 29.301 14.6658 29.2979C14.5579 29.2891 14.2898 29.2515 14.0452 29.0338C13.7357 28.757 13.6748 28.3864 13.7094 28.1256C13.7379 27.9129 13.8221 27.7573 13.8637 27.6893C13.9138 27.6073 13.9689 27.5347 14.011 27.4859L14.3769 27.0691C14.2894 27.0612 14.1856 27.0762 14.0815 27.0385C13.9495 26.9903 13.7751 26.8967 13.6293 26.7246C13.4761 26.5426 13.402 26.3229 13.3856 26.126L13.377 25.9937L13.3625 25.8562L13.4014 25.433C13.4216 25.3572 13.4474 25.2907 13.4715 25.2346C13.2664 25.25 13.0702 25.2331 12.9014 25.1499C12.6798 25.0403 12.5386 24.8748 12.4618 24.7744L12.2806 24.5426L12.1178 24.3373C12.1101 24.3422 12.1049 24.3559 12.0972 24.3608L11.9853 24.4289L11.8794 24.5023C11.6639 24.6374 11.4128 24.7214 11.147 24.7326L10.8927 24.738C10.7702 24.7431 10.6583 24.7312 10.5584 24.7044C10.4676 24.8213 10.333 24.9466 10.1478 25.03L10.1554 25.3174C10.1556 25.4349 10.1546 25.5675 10.1356 25.6951C10.1262 25.7584 10.1104 25.8441 10.0794 25.9368C10.0514 26.0196 9.9846 26.1808 9.84503 26.3341C9.68156 26.5129 9.40992 26.6797 9.05883 26.6731C8.75337 26.6671 8.53644 26.5352 8.43595 26.4589C8.24711 26.3155 8.1388 26.13 8.09413 26.0549L7.88891 25.7084L7.70933 25.4156C7.58031 25.6209 7.31393 25.9362 6.83165 25.9653L6.73242 25.9718L6.73973 25.999C6.75985 26.2754 6.76894 26.5758 6.73178 26.8133C6.72146 26.8792 6.70174 26.9767 6.66078 27.0836C6.62545 27.1752 6.52945 27.386 6.30945 27.5549C6.03291 27.7667 5.68763 27.8214 5.38534 27.7312C5.14227 27.8838 4.86012 27.9429 4.58623 27.8718C4.57824 27.8697 4.57127 27.8644 4.56346 27.8622C4.46997 27.9986 4.32295 28.1418 4.10058 28.2355L3.86375 28.3395C3.26161 28.5904 2.81063 28.1996 2.72569 28.1201C2.5945 27.997 2.50924 27.8564 2.45948 27.772C2.43814 27.7358 2.4176 27.6946 2.39647 27.6543C2.29695 27.6774 2.18649 27.6873 2.06571 27.6758C1.68832 27.6395 1.46209 27.4158 1.40259 27.3536C1.31666 27.2635 1.25509 27.1678 1.22072 27.1108C1.14908 26.9917 1.08785 26.8552 1.0354 26.7298L0.754269 26.0671L0.47829 25.3986C0.399646 25.2104 0.315478 25.0069 0.285805 24.9073C0.281529 24.8928 0.271309 24.8669 0.264607 24.8368C0.262298 24.8267 0.253277 24.7904 0.24713 24.7382C0.216617 24.6896 0.18666 24.6396 0.159916 24.5889C0.11607 24.5057 0.0351796 24.3327 0.00781134 24.1227C-0.0210642 23.8948 0.00580806 23.3641 0.520324 23.0652C0.882007 22.8557 1.23946 22.9328 1.32674 22.9519L1.83219 23.063C1.84865 23.0666 1.86648 23.0727 1.88288 23.0763C1.8796 23.0364 1.86797 22.9933 1.86913 22.9499C1.8758 22.7134 1.97156 22.3758 2.28644 22.1311C2.42644 22.0229 2.57219 21.9627 2.6998 21.9326L3.00779 21.9015L3.20181 21.9055L3.4017 21.9146C3.41667 21.9151 3.43153 21.9218 3.44652 21.9228L3.24717 21.5814L3.04195 21.235C2.99255 21.1509 2.9433 21.0464 2.9006 20.9341C2.8646 20.8393 2.79508 20.6367 2.8155 20.3916C2.84214 20.0825 3.01403 19.7214 3.39604 19.529C3.47796 19.4878 3.56483 19.4811 3.64089 19.4633C3.75894 19.2024 3.96989 19.0126 4.20843 18.9115C4.32284 18.8634 4.43576 18.8392 4.54075 18.829C4.53695 18.8158 4.53026 18.7993 4.52686 18.7856C4.49541 18.6572 4.38518 18.0859 4.88731 17.6882L5.08747 17.5313C5.38497 17.2964 5.70835 17.2959 5.84777 17.3047C5.99409 17.3142 6.12192 17.3562 6.2129 17.3861C6.30675 17.2622 6.42317 17.1845 6.53891 17.1213C6.53286 16.9927 6.54481 16.8239 6.6242 16.6452C6.79106 16.2708 7.11939 16.0972 7.37702 16.0482C7.58815 16.0082 7.76424 16.0439 7.84295 16.0622C7.93515 16.0838 8.01589 16.1167 8.07506 16.1412L8.38278 16.2762C8.31965 16.1483 8.28055 16.0218 8.26949 15.8961C8.13615 15.9024 7.97603 15.8964 7.81243 15.8483C7.65137 15.8008 7.41397 15.6946 7.23321 15.4542C7.09587 15.2713 7.05206 15.0722 7.03643 14.8968C6.93474 14.8175 6.83867 14.7149 6.76134 14.5825C6.75339 14.5688 6.74363 14.5535 6.73642 14.5398C6.64192 14.5604 6.54858 14.5857 6.45778 14.5967C6.31357 14.614 6.06538 14.6366 5.80743 14.5559L5.64877 14.4998L5.48497 14.4496C5.33817 14.4031 5.12414 14.3019 4.95715 14.0798C4.78171 13.8461 4.74012 13.5893 4.75176 13.3901C4.77107 13.0666 4.93053 12.8319 4.97694 12.7665C5.10094 12.5918 5.28196 12.4243 5.44883 12.2763L5.18136 12.2494C5.05203 12.2204 4.89153 12.1643 4.74147 12.04C4.31418 11.6843 4.34624 11.1872 4.41105 10.9598C4.46685 10.764 4.57286 10.6286 4.61305 10.5758C4.70867 10.4501 4.82457 10.3344 4.91858 10.2514L5.42642 9.8032L5.59866 9.64253C5.58637 9.62904 5.57462 9.61514 5.56272 9.60058L5.28695 9.70155C5.06822 9.78375 4.79438 9.8829 4.54727 9.90466C4.47659 9.91086 4.36753 9.91675 4.24228 9.89681C4.12415 9.87784 3.90342 9.81973 3.69958 9.63869C3.53153 9.48929 3.44425 9.32379 3.39756 9.16563C3.18412 9.10305 2.95026 8.97729 2.76622 8.73613L2.68774 8.63605L2.61514 8.54112L2.44443 8.21453C2.40894 8.10017 2.394 7.99045 2.39572 7.89108L2.21273 7.88637C2.08145 7.88408 1.58496 7.86323 1.26322 7.41666C0.908497 6.92292 1.1058 6.41017 1.17176 6.2656L1.26396 6.06584L1.351 5.87196C1.48572 5.57668 1.69101 5.33642 1.92396 5.14825ZM20.2211 33.8526L20.2573 33.7284L20.2111 33.6982L20.2211 33.8526ZM20.2573 33.7284L20.2211 33.8526L20.2111 33.6982L20.2573 33.7284ZM21.4896 30.288L21.6361 30.5829L21.7812 30.3465L21.6347 30.0516L21.4896 30.288ZM21.7812 30.3465L21.6361 30.5829L21.4896 30.288L21.6347 30.0516L21.7812 30.3465ZM8.26677 9.46904L8.2181 9.57185C8.32239 9.62143 8.43436 9.69742 8.53814 9.81123C8.78255 10.0811 8.8334 10.4028 8.80726 10.6297C8.78403 10.828 8.70433 10.9809 8.66325 11.0542L8.55788 11.2216C8.68116 11.5731 8.59245 11.8816 8.54707 11.9918C8.48647 12.1381 8.39648 12.2499 8.33633 12.3266C8.45144 12.3759 8.58735 12.4572 8.70777 12.5903C8.87285 12.7738 8.95609 12.9913 8.9743 13.1985C8.99622 13.4556 8.91298 13.6633 8.85207 13.7878L8.86309 13.787C9.00026 13.7643 9.28875 13.721 9.58475 13.8176C9.75851 13.8743 10.0021 14.0032 10.1734 14.272C10.2753 14.4321 10.3055 14.5974 10.3204 14.7441C10.4111 14.7347 10.5178 14.7131 10.635 14.7292C10.8314 14.7563 11.2827 14.8775 11.4901 15.3656C11.663 15.7741 11.5162 16.1327 11.4696 16.2416C11.4063 16.3885 11.3243 16.5145 11.2603 16.5984L11.0106 16.9302L10.7499 17.2627C10.589 17.4738 10.4419 17.6719 10.3353 17.7824L10.1586 17.9599C10.014 18.1094 9.84244 18.2019 9.67521 18.2737C9.69357 18.3018 9.72478 18.3242 9.74123 18.3525C9.77482 18.4104 9.83305 18.5148 9.87084 18.643C9.89646 18.7304 9.99718 19.0999 9.77025 19.4799C9.48971 19.9479 9.0096 19.9826 8.84489 19.9774C8.66848 19.9717 8.52638 19.9258 8.46357 19.9026C8.45066 19.8978 8.43675 19.8937 8.42391 19.8885C8.33402 19.9854 8.23303 20.0774 8.10234 20.1364C8.07283 20.1497 8.03838 20.1491 8.0097 20.159C8.03514 20.1998 8.06575 20.2433 8.09032 20.2922C8.12134 20.3539 8.18263 20.4862 8.20805 20.6555C8.23174 20.8141 8.25011 21.239 7.89126 21.5729C7.73565 21.7176 7.5646 21.7806 7.41977 21.8139C7.45618 21.8147 7.49353 21.8021 7.53003 21.8067C7.75308 21.8351 7.9175 21.9352 8.0133 22.0023C8.19059 22.1267 8.30507 22.2787 8.3574 22.3563C8.4222 22.4526 8.47723 22.5622 8.52668 22.6609L8.64898 22.9242C8.71999 22.8731 8.80525 22.8369 8.90126 22.8026C8.90904 22.7069 8.92376 22.5855 8.95693 22.4668C8.97953 22.3857 9.08821 22.0029 9.4828 21.7849C10.0419 21.4769 10.5283 21.7864 10.6695 21.9015C10.8233 22.0272 10.9191 22.1781 10.9695 22.2585L11.1484 22.5402L11.2463 22.4287C11.4332 22.2224 11.7335 22.0454 12.1186 22.0509C12.2892 22.0534 12.4384 22.0862 12.5616 22.1383L12.8494 22.3078L13.0065 22.425L13.1056 22.5015C13.1299 22.4693 13.1564 22.43 13.1874 22.3966C13.2109 22.3712 13.2524 22.3244 13.3125 22.2777C13.3539 22.2456 13.5089 22.1291 13.7427 22.0837C13.8776 22.0581 14.0718 22.0523 14.277 22.1264C14.4244 22.1799 14.536 22.271 14.6301 22.3637L14.9169 22.262C15.1224 22.1884 15.3898 22.098 15.636 22.0824C15.7079 22.0778 16.0858 22.0532 16.4212 22.3247C16.6315 22.4955 16.7673 22.7346 16.8023 22.9919C16.8327 23.2188 16.7794 23.4073 16.7419 23.5107L16.6762 23.6921L16.6053 23.8794C16.5488 24.0352 16.484 24.193 16.4091 24.3516L16.3162 24.5404C16.3459 24.538 16.3767 24.529 16.4095 24.5288C16.4954 24.5283 16.6807 24.5395 16.8812 24.631C17.1221 24.7416 17.3784 24.9685 17.4636 25.3294C17.5337 25.6272 17.449 25.8693 17.4059 25.9753C17.3216 26.1818 17.1853 26.3363 17.1238 26.4033L16.9839 26.5508C17.0998 26.5542 17.2933 26.5697 17.4908 26.6839C17.6478 26.7754 17.8084 26.928 17.9082 27.1439C17.9561 27.2477 17.9765 27.3499 17.9885 27.4432L18.054 27.4279C18.2068 27.3997 18.428 27.3718 18.6559 27.4053C18.8749 27.4379 19.4081 27.5895 19.5866 28.1807L19.6224 28.3057L19.6304 28.344C19.7332 28.1883 19.8476 28.0831 19.9308 28.0255C20.0178 27.9653 20.1069 27.9251 20.1823 27.8929C20.1816 27.8838 20.1756 27.8749 20.175 27.8657L20.0788 27.8332C19.9776 27.7974 19.8708 27.758 19.7718 27.7092C19.6855 27.6666 19.5392 27.5881 19.4069 27.4617C19.2902 27.3496 18.9896 27.0044 19.0837 26.4918C19.1051 26.3771 19.14 26.2721 19.1856 26.1862C19.1702 26.1802 19.1551 26.1733 19.1401 26.167C19.0793 26.1416 18.9908 26.0992 18.8992 26.0387C18.8377 25.998 18.6205 25.8495 18.4973 25.5611C18.4245 25.3909 18.3901 25.1722 18.4402 24.9392C18.4885 24.7185 18.5946 24.5554 18.6909 24.4524C18.8621 24.2708 19.0603 24.1936 19.1264 24.1694C19.2256 24.1331 19.3306 24.1215 19.4213 24.106C19.4171 24.0952 19.412 24.0848 19.4081 24.0736C19.3402 23.8769 19.3243 23.6482 19.3989 23.421C19.4693 23.2083 19.5924 23.0606 19.6855 22.9761C19.8526 22.8244 20.0322 22.7659 20.0967 22.7445C20.1688 22.7205 20.2442 22.7103 20.315 22.6971C20.0841 22.5495 19.8663 22.3455 19.7465 22.042C19.6013 21.671 19.6364 21.3074 19.7085 21.0314L19.8379 20.5525L19.9621 20.0794L20.1282 19.6534C20.2016 19.5264 20.4192 19.1985 20.8618 19.1019C21.3497 18.9956 21.6996 19.2482 21.8433 19.3813C21.9911 19.5188 22.0894 19.6784 22.1461 19.7824L22.1593 19.8147C22.2811 19.8021 22.4053 19.795 22.5253 19.8241C22.7752 19.8855 22.9482 20.016 23.0356 20.0954C23.1324 20.1835 23.2082 20.281 23.263 20.3574L23.2997 20.4104C23.3317 20.2933 23.3955 20.1156 23.5356 19.9522C23.6506 19.8183 23.8398 19.6633 24.1109 19.6048L24.1219 19.6041C24.1353 19.5334 24.1412 19.4603 24.1634 19.391C24.1959 19.2909 24.2593 19.1239 24.3905 18.9666C24.4999 18.8355 24.6788 18.7226 24.9069 18.6507L24.9519 18.5758L25.0816 18.357C25.1485 18.2728 25.2451 18.1857 25.3701 18.1112C25.6648 17.9361 25.9864 17.934 26.239 18.0215C26.2943 18.0408 26.3324 18.088 26.3777 18.1121C26.3923 18.0755 26.3988 18.0322 26.4198 17.9932C26.4252 17.9832 26.4329 17.9702 26.4397 17.9586C26.3547 17.9076 26.2669 17.859 26.196 17.7863C26.0072 17.5922 25.92 17.3691 25.8765 17.2147L25.8494 17.139C25.5022 16.9615 25.3609 16.6521 25.3154 16.5038C25.2597 16.3209 25.2504 16.1504 25.2529 16.0539C25.2576 15.8804 25.289 15.6871 25.3273 15.4955C25.2515 15.5471 25.1706 15.6233 25.0559 15.6626C24.8025 15.7494 24.3769 15.7813 24.0133 15.4647C23.9581 15.4165 23.9262 15.3526 23.8864 15.3013C23.8466 15.3431 23.8097 15.3914 23.762 15.4312C23.7068 15.4773 23.6211 15.5481 23.5075 15.6028C23.3991 15.6547 23.2011 15.7276 22.9495 15.7055C22.5978 15.6734 22.373 15.4968 22.2321 15.3148C22.1399 15.3127 22.024 15.2971 21.9015 15.2533C21.7543 15.2006 21.5735 15.0936 21.4302 14.9019C21.2852 14.7069 21.2327 14.4949 21.2268 14.3283C21.2199 14.1313 21.2718 13.9709 21.3136 13.8743C21.2968 13.8664 21.2786 13.8585 21.2622 13.85C21.2004 13.818 21.0785 13.7462 20.9597 13.626C20.8489 13.5139 20.585 13.1877 20.6731 12.7091C20.754 12.2772 21.0629 12.0684 21.1645 12.0073C21.2052 11.983 21.2503 11.9665 21.288 11.9494C21.2613 11.905 21.2234 11.8642 21.2015 11.8111C21.1362 11.6521 21.0969 11.4541 21.1312 11.24C21.1651 11.0291 21.2646 10.8619 21.3591 10.7435C21.392 10.7027 21.4341 10.675 21.4688 10.6423C21.381 10.5735 21.2921 10.4844 21.2134 10.3766L21.1108 10.2448L21.0132 10.1072C20.8886 9.93561 20.7552 9.66327 20.7794 9.31973C20.8042 8.97249 20.9776 8.71624 21.1341 8.56039L21.2541 8.4474L21.3682 8.32926C21.4033 8.29445 21.4376 8.25767 21.472 8.22287C21.3454 8.13991 21.1493 7.99445 21.0156 7.75984L20.9409 7.63184L20.8654 7.49282L20.7439 7.15749C20.7187 7.02833 20.7116 6.88487 20.7439 6.73122C20.763 6.64208 20.8049 6.56394 20.8391 6.49252C20.8177 6.48915 20.8001 6.49241 20.7891 6.49023C20.6516 6.46312 20.5214 6.3903 20.3969 6.33305C20.4236 6.38384 20.4687 6.42979 20.49 6.48754C20.5177 6.56265 20.5892 6.77342 20.5479 7.03737C20.5242 7.18798 20.4571 7.36806 20.32 7.53382C20.2106 7.66562 20.0807 7.74937 19.9558 7.80662C19.9574 7.93877 19.9492 8.12796 19.8454 8.3231C19.7225 8.55352 19.5214 8.70936 19.3169 8.7948L19.1934 8.85266L19.0639 8.90536C18.7123 9.05195 18.3781 8.97925 18.2474 8.94739C18.0724 8.90462 17.8963 8.83227 17.7369 8.75914L17.6914 8.73996C17.6454 8.91675 17.5543 9.11197 17.3553 9.27665C16.9949 9.57382 16.5942 9.52037 16.4899 9.50454L16.0315 9.4347C15.9873 9.428 15.952 9.43082 15.9315 9.43013C15.9155 9.42971 15.9103 9.42617 15.9146 9.42569L15.9036 9.42641C15.9135 9.57418 15.9144 9.76758 15.8336 9.96795C15.6669 10.3781 15.3042 10.5974 14.9476 10.6456L14.8109 10.6711L14.7558 10.6747L14.3542 11.3097C14.2122 11.5335 14.051 11.7729 13.8858 11.9381C13.8395 11.9842 13.771 12.0484 13.6863 12.106C13.6108 12.1572 13.4596 12.2486 13.2495 12.2839C12.9965 12.3256 12.6791 12.2788 12.4157 12.0613C12.1901 11.8749 12.1042 11.6461 12.0711 11.5302L12.02 11.3397L11.9637 11.1552C11.9421 11.1687 11.9245 11.1907 11.9004 11.2036C11.7786 11.2683 11.4232 11.4243 11.0067 11.2506C10.6753 11.1123 10.5253 10.8527 10.4549 10.6831C10.2499 10.6609 10.0383 10.5948 9.86295 10.4337C9.83077 10.404 9.81055 10.3642 9.78448 10.3336C9.54299 10.3757 9.2287 10.3721 8.94181 10.1448C8.66252 9.92205 8.57356 9.63097 8.54599 9.50624L8.53066 9.44081C8.45312 9.44768 8.37058 9.42195 8.27937 9.40733C8.27147 9.42876 8.27405 9.45185 8.26677 9.46904ZM22.1677 6.15148L22.2261 6.36911L22.5424 6.21015L22.4642 5.94397L22.1677 6.15148ZM22.4642 5.94397L22.5424 6.21015L22.2261 6.36911L22.1677 6.15148L22.4642 5.94397ZM23.347 4.5358L23.6067 4.78464L23.6856 4.63558L23.4207 4.39261L23.347 4.5358ZM23.6856 4.63558L23.6067 4.78464L23.347 4.5358L23.4207 4.39261L23.6856 4.63558ZM5.65843 21.6295L6.32719 22.5493C6.34053 22.5676 6.34953 22.592 6.36456 22.6133C6.39084 22.5206 6.49369 22.1863 6.82643 21.9687C6.92542 21.9044 7.03695 21.8648 7.15001 21.837C7.11872 21.8362 7.0912 21.8438 7.07284 21.842C6.82879 21.8182 6.62125 21.7094 6.5469 21.6714L5.64221 21.2098C5.52016 21.1474 5.40809 21.1126 5.32347 21.0755C5.31666 21.0836 5.31 21.091 5.30285 21.099C5.40055 21.2514 5.51391 21.4307 5.65843 21.6295ZM21.8968 4.62457C21.9098 4.615 21.9205 4.60338 21.9336 4.59449L21.8763 4.565C21.8836 4.58493 21.8902 4.60455 21.8968 4.62457ZM8.53367 14.3399L8.54398 14.3282L8.54842 14.3113L8.53367 14.3399ZM6.51771 8.96275L6.48992 8.87598L6.49494 8.95315L6.51771 8.96275ZM6.51771 8.96275L6.49494 8.95315L6.48992 8.87598L6.51771 8.96275Z" fill="#FF0000"/>
</svg>
