<svg width="82" height="42" preserveAspectRatio="none" viewBox="0 0 82 42" fill="none" xmlns="http://www.w3.org/2000/svg">
<path d="M1.88086 17.2969C1.88086 9.0126 8.59659 2.29688 16.8809 2.29688H63.8809C72.1651 2.29688 78.8809 9.0126 78.8809 17.2969V24.2969C78.8809 32.5811 72.1651 39.2969 63.8809 39.2969H16.8809C8.59659 39.2969 1.88086 32.5811 1.88086 24.2969V17.2969Z" fill="#282828" fill-opacity="0.5"/>
<path d="M18.0059 2.20278L17.8808 0.708L18.0059 2.20278ZM18.5684 2.15573L18.4433 0.660953V0.660953L18.5684 2.15573ZM19.6934 2.01456L19.9409 3.494V3.494L19.6934 2.01456ZM20.8184 1.82632L20.5708 0.346887V0.346887L20.8184 1.82632ZM25.3184 2.37105L25.2662 3.87015L25.3184 2.37105ZM30.9434 2.43213L30.2251 1.11529L30.9434 2.43213ZM32.0684 1.81851L32.7866 3.13535L32.0684 1.81851ZM33.1934 1.71166L32.6909 3.12501L33.1934 1.71166ZM33.7559 1.91164L34.2583 0.498291L33.7559 1.91164ZM34.3184 2.11161L33.8159 3.52495L34.3184 2.11161ZM39.9434 1.98471L40.1281 3.47329L39.9434 1.98471ZM41.0684 1.8451L40.8836 0.356521L41.0684 1.8451ZM43.3184 1.61244L43.1743 0.11938L43.3184 1.61244ZM44.4434 1.95252L43.5823 3.18074L44.4434 1.95252ZM45.5684 2.74124L46.4294 1.51302L45.5684 2.74124ZM46.6934 3.04432L46.9336 4.52496L46.6934 3.04432ZM47.8184 2.86177L47.5781 1.38114L47.8184 2.86177ZM48.9434 2.55903L49.4712 3.96309L48.9434 2.55903ZM50.0684 2.1361L49.5405 0.732039L50.0684 2.1361ZM51.1934 2.23972L51.9264 0.931054L51.1934 2.23972ZM52.3184 2.8699L51.5853 4.17857L52.3184 2.8699ZM53.4434 3.03454L53.0558 1.58548L53.4434 3.03454ZM54.5684 2.73362L54.956 4.18268L54.5684 2.73362ZM55.6934 2.65572L55.8853 1.16805L55.6934 2.65572ZM56.8184 2.80084L56.6265 4.28851L56.8184 2.80084ZM57.9434 2.79185L57.7282 1.30737L57.9434 2.79185ZM59.0684 2.62876L59.2836 4.11325L59.0684 2.62876ZM60.1934 2.27206L60.8525 3.61948L60.1934 2.27206ZM61.3184 1.72173L60.6592 0.374309L61.3184 1.72173ZM62.4416 1.77936L63.2072 0.489403L62.4416 1.77936ZM63.5632 2.44494L62.7977 3.7349L63.5632 2.44494ZM64.6893 2.68661L64.4506 1.20572L64.6893 2.68661ZM65.2546 2.59549L65.4933 4.07638L65.2546 2.59549ZM65.82 2.50437L66.0587 3.98526L65.82 2.50437ZM66.8666 2.75513L67.7353 1.53227L66.8666 2.75513ZM67.8291 3.4389L68.6978 2.21604L67.8291 3.4389ZM68.9897 3.61345L69.3485 5.06992L68.9897 3.61345ZM69.669 3.44613L69.3103 1.98966L69.669 3.44613ZM70.3483 3.2788L70.7071 4.73527L70.3483 3.2788ZM71.3402 3.69617L70.0173 4.40323L71.3402 3.69617ZM71.9652 4.86557L73.2881 4.15852L71.9652 4.86557ZM72.6615 5.83395L71.6009 6.89473L72.6615 5.83395ZM73.0452 6.21763L74.1058 5.15685L73.0452 6.21763ZM73.429 6.60131L74.4895 5.54053L73.429 6.60131ZM74.2044 7.35887L75.2402 6.27387L74.2044 7.35887ZM74.596 7.73274L73.5603 8.81774L74.596 7.73274ZM74.9877 8.10662L73.9519 9.19161L74.9877 8.10662ZM75.9792 8.76744L75.3319 10.1206L75.9792 8.76744ZM76.579 9.05438L77.2263 7.70123L76.579 9.05438ZM77.1789 9.34132L76.5316 10.6945L77.1789 9.34132ZM77.7366 10.2762L76.2397 10.1789L77.7366 10.2762ZM77.6944 10.9242L79.1913 11.0216L77.6944 10.9242ZM78.0368 12.6904L76.926 13.6984L78.0368 12.6904ZM78.4635 13.1606L79.5744 12.1526L78.4635 13.1606ZM78.8902 13.6308L77.7794 14.6388L78.8902 13.6308ZM79.1765 14.6982L80.6367 15.0416L79.1765 14.6982ZM79.0361 15.2954L77.5759 14.952L79.0361 15.2954ZM78.8956 15.8925L80.3558 16.2359L78.8956 15.8925ZM78.9924 17.0507L77.6109 17.6349L78.9924 17.0507ZM79.2297 17.6118L80.6113 17.0276L79.2297 17.6118ZM79.6834 19.2965L81.1824 19.3519L79.6834 19.2965ZM79.6418 20.4215L78.1428 20.3661L79.6418 20.4215ZM79.3767 21.5465L78.0008 20.949L79.3767 21.5465ZM78.8882 22.6715L80.264 23.269L78.8882 22.6715ZM78.6536 23.7935L77.1539 23.8197L78.6536 23.7935ZM78.6634 24.353L80.1632 24.3268L78.6634 24.353ZM78.6732 24.9125L80.1729 24.8863L78.6732 24.9125ZM79.0223 27.2592L77.5487 27.5391L79.0223 27.2592ZM78.6791 28.303L79.73 29.3734V29.3734L78.6791 28.303ZM77.7664 29.1991L76.7155 28.1288V28.1288L77.7664 29.1991ZM77.1858 30.2001L75.7223 29.8712L77.1858 30.2001ZM77.0615 30.7529L78.525 31.0818L77.0615 30.7529ZM76.9373 31.3058L75.4738 30.9769L76.9373 31.3058ZM76.0225 32.6588L77.0896 33.7131L76.0225 32.6588ZM75.6273 33.0589L74.5602 32.0047L75.6273 33.0589ZM74.9358 33.9426L73.6567 33.1592L74.9358 33.9426ZM74.3435 34.9098L75.6226 35.6932L74.3435 34.9098ZM73.6072 35.7465L74.5458 36.9165L73.6072 35.7465ZM73.167 36.0996L72.2284 34.9296L73.167 36.0996ZM72.7269 36.4527L73.6655 37.6227L72.7269 36.4527ZM71.7482 36.984L72.2195 38.4081L71.7482 36.984ZM71.2097 37.1622L70.7384 35.7382L71.2097 37.1622ZM70.6711 37.3405L70.1999 35.9164L70.6711 37.3405ZM69.6903 37.9453L68.6489 36.8657L69.6903 37.9453ZM68.8059 38.7985L69.8473 39.8781L68.8059 38.7985ZM67.7901 39.3277L68.0541 40.8042L67.7901 39.3277ZM67.2165 39.4302L66.9524 37.9537L67.2165 39.4302ZM66.6429 39.5328L66.3789 38.0562L66.6429 39.5328ZM65.4912 39.7599L65.8071 41.2263L65.4912 39.7599ZM64.3348 40.009L64.0189 38.5426L64.3348 40.009ZM63.1941 39.995L62.8354 41.4515L63.1941 39.995ZM62.0691 39.718L61.7104 41.1745L62.0691 39.718ZM60.9441 39.6532L61.1391 41.1405L60.9441 39.6532ZM59.8191 39.8007L59.6242 38.3134L59.8191 39.8007ZM58.6941 39.6153L59.3216 38.2529L58.6941 39.6153ZM58.1316 39.3563L57.5041 40.7187L58.1316 39.3563ZM57.5691 39.0972L56.9416 40.4597L57.5691 39.0972ZM56.4441 39.0723L55.8677 37.6874L56.4441 39.0723ZM55.3191 39.5405L55.8955 40.9254L55.3191 39.5405ZM54.1941 39.8162L54.0837 38.3203L54.1941 39.8162ZM53.6316 39.8577L53.7421 41.3536L53.6316 39.8577ZM53.0691 39.8993L52.9587 38.4033L53.0691 39.8993ZM51.9441 39.6097L52.705 38.317L51.9441 39.6097ZM50.8191 38.9475L51.58 37.6548L50.8191 38.9475ZM49.6941 38.5842L49.6083 40.0817L49.6941 38.5842ZM48.5691 38.5197L48.655 37.0222L48.5691 38.5197ZM47.4441 38.4716L47.4017 39.971L47.4441 38.4716ZM46.3191 38.4398L46.2767 39.9392L46.3191 38.4398ZM45.1941 38.6346L45.7203 40.0393L45.1941 38.6346ZM44.6316 38.8453L44.1054 37.4406L44.6316 38.8453ZM44.0691 39.056L44.5953 40.4607L44.0691 39.056ZM42.9441 39.0841L42.481 40.5108L42.9441 39.0841ZM41.8191 38.7189L42.2823 37.2922L41.8191 38.7189ZM40.6941 38.578L40.5832 37.0821L40.6941 38.578ZM40.1316 38.6197L40.2426 40.1156L40.1316 38.6197ZM39.5691 38.6615L39.6801 40.1573L39.5691 38.6615ZM38.4441 39.0175L37.7123 37.7082L38.4441 39.0175ZM37.3191 39.6463L38.0509 40.9557L37.3191 39.6463ZM36.1941 39.7483L36.724 38.345L36.1941 39.7483ZM35.0691 39.3235L34.5393 40.7268L35.0691 39.3235ZM33.9441 39.3207L34.4679 40.7263L33.9441 39.3207ZM33.3816 39.5303L32.8579 38.1247L33.3816 39.5303ZM32.8191 39.7399L32.2954 38.3343L32.8191 39.7399ZM31.6941 39.7943L32.093 38.3483L31.6941 39.7943ZM30.5691 39.484L30.1703 40.9301L30.5691 39.484ZM29.4441 39.4494L29.13 37.9826L29.4441 39.4494ZM28.3191 39.6903L28.6332 41.157L28.3191 39.6903ZM27.1941 39.8279L27.2398 41.3272L27.1941 39.8279ZM26.0691 39.8621L26.0235 38.3628L26.0691 39.8621ZM24.9441 39.618L24.3124 40.9785L24.9441 39.618ZM23.8191 39.0956L23.1874 40.4561L23.8191 39.0956ZM22.6941 38.822L22.7273 37.3224L22.6941 38.822ZM21.5691 38.7971L21.5359 40.2967L21.5691 38.7971ZM18.1976 38.5182L18.0566 37.0248L18.1976 38.5182ZM17.6386 38.571L17.7797 40.0643L17.6386 38.571ZM17.0797 38.6238L17.2207 40.1171L17.0797 38.6238ZM15.9561 38.7839L15.6761 37.3102L15.9561 38.7839ZM15.3916 38.8911L15.6716 40.3648L15.3916 38.8911ZM14.827 38.9984L14.547 37.5248L14.827 38.9984ZM13.7427 38.8893L13.1662 40.2741L13.7427 38.8893ZM13.2228 38.6729L13.7993 37.2881L13.2228 38.6729ZM12.703 38.4565L12.1265 39.8413L12.703 38.4565ZM11.7236 37.9325L12.5579 36.6859L11.7236 37.9325ZM10.8043 37.3173L9.97006 38.5639L10.8043 37.3173ZM9.84964 36.7832L9.22564 38.1473L9.84964 36.7832ZM9.35455 36.5567L8.73054 37.9208L9.35455 36.5567ZM8.85945 36.3303L9.48346 34.9662L8.85945 36.3303ZM7.91562 35.7845L8.78518 34.5623L7.91562 35.7845ZM7.01816 35.146L6.1486 36.3683L7.01816 35.146ZM6.09482 34.495L5.23548 35.7245L6.09482 34.495ZM5.62021 34.1633L6.47955 32.9339L5.62021 34.1633ZM5.1456 33.8316L4.28626 35.061L5.1456 33.8316ZM4.43824 32.9762L5.80891 32.3669L4.43824 32.9762ZM3.49326 30.9012L2.14588 31.5604L3.49326 30.9012ZM2.99985 29.8927L4.34723 29.2335L2.99985 29.8927ZM2.60067 27.7035L4.09457 27.5683L2.60067 27.7035ZM2.46898 26.5991L0.985358 26.8202L2.46898 26.5991ZM2.13726 24.412L0.655963 24.6482L2.13726 24.412ZM1.89159 22.173L0.392689 22.1155L1.89159 22.173ZM1.93473 21.048L0.435831 20.9905L1.93473 21.048ZM2.05651 19.923L0.579759 19.6599L2.05651 19.923ZM2.12683 17.6623L0.734978 18.2216L2.12683 17.6623ZM2.14413 13.1628L0.932804 12.2781L2.14413 13.1628ZM2.84898 12.1977L4.06031 13.0824L2.84898 12.1977ZM3.66699 10.7078L2.30539 10.0785L3.66699 10.7078ZM3.89978 10.2042L5.26138 10.8335L3.89978 10.2042ZM5.23267 8.45187L4.10719 7.46026L5.23267 8.45187ZM5.93442 7.59271L7.13073 8.49761L5.93442 7.59271ZM6.26946 7.14977L5.07314 6.24488L6.26946 7.14977ZM6.6045 6.70683L7.80081 7.61172L6.6045 6.70683ZM7.43322 6.00444L8.13104 7.33223L7.43322 6.00444ZM7.92689 5.74499L8.62472 7.07278L7.92689 5.74499ZM8.42057 5.48553L7.72275 4.15774L8.42057 5.48553ZM9.35657 4.89574L10.2541 6.09757L9.35657 4.89574ZM10.2412 4.23507L9.34364 3.03325L10.2412 4.23507ZM11.2101 3.742L10.7672 2.30888L11.2101 3.742ZM13.2959 2.91581L12.4628 1.66844L13.2959 2.91581ZM15.3307 1.78196L14.9917 0.320768L15.3307 1.78196ZM18.0059 2.20278L18.1309 3.69756L18.6934 3.65051L18.5684 2.15573L18.4433 0.660953L17.8808 0.708L18.0059 2.20278ZM18.5684 2.15573L18.6934 3.65051C19.1098 3.61568 19.5257 3.56347 19.9409 3.494L19.6934 2.01456L19.4458 0.535132C19.111 0.591155 18.7769 0.633056 18.4433 0.660953L18.5684 2.15573ZM19.6934 2.01456L19.9409 3.494L20.5034 3.39987L20.2559 1.92044L20.0083 0.44101L19.4458 0.535132L19.6934 2.01456ZM20.2559 1.92044L20.5034 3.39987L21.0659 3.30575L20.8184 1.82632L20.5708 0.346887L20.0083 0.44101L20.2559 1.92044ZM20.8184 1.82632L21.0659 3.30575C21.23 3.27829 21.3931 3.28443 21.5688 3.32973L21.9434 1.87724L22.3179 0.42475C21.7436 0.27666 21.1567 0.248854 20.5708 0.346887L20.8184 1.82632ZM21.9434 1.87724L21.5688 3.32973L22.1313 3.47477L22.5059 2.02228L22.8804 0.569793L22.3179 0.42475L21.9434 1.87724ZM22.5059 2.02228L22.1313 3.47477L22.6938 3.61982L23.0684 2.16733L23.4429 0.714836L22.8804 0.569793L22.5059 2.02228ZM23.0684 2.16733L22.6938 3.61982C23.1709 3.74283 23.6539 3.81408 24.1412 3.83102L24.1934 2.33193L24.2455 0.832836C23.9828 0.8237 23.7158 0.785213 23.4429 0.714836L23.0684 2.16733ZM24.1934 2.33193L24.1412 3.83102L24.7037 3.85058L24.7559 2.35149L24.808 0.852397L24.2455 0.832836L24.1934 2.33193ZM24.7559 2.35149L24.7037 3.85058L25.2662 3.87015L25.3184 2.37105L25.3705 0.871958L24.808 0.852397L24.7559 2.35149ZM25.3184 2.37105L25.2662 3.87015C25.814 3.88919 26.3541 3.81452 26.8803 3.65428L26.4434 2.21933L26.0064 0.784381C25.7826 0.852521 25.5727 0.878991 25.3705 0.871958L25.3184 2.37105ZM26.4434 2.21933L26.8803 3.65428L27.4428 3.483L27.0059 2.04805L26.5689 0.6131L26.0064 0.784381L26.4434 2.21933ZM27.0059 2.04805L27.4428 3.483L28.0053 3.31172L27.5684 1.87677L27.1314 0.441818L26.5689 0.6131L27.0059 2.04805ZM27.5684 1.87677L28.0053 3.31172C28.0103 3.31018 28.0138 3.30936 28.0159 3.30893C28.0169 3.30871 28.0177 3.30858 28.0181 3.30851C28.0186 3.30843 28.0188 3.30841 28.0188 3.3084C28.0189 3.3084 28.0187 3.30842 28.0184 3.30844C28.0181 3.30846 28.0178 3.30847 28.0173 3.30848C28.0164 3.3085 28.0156 3.30847 28.0151 3.30842C28.0137 3.30831 28.0161 3.30831 28.0233 3.31026C28.0308 3.31227 28.0453 3.31686 28.0673 3.32694L28.6934 1.96385L29.3194 0.600763C28.6301 0.284112 27.8773 0.214689 27.1314 0.441818L27.5684 1.87677ZM28.6934 1.96385L28.0673 3.32694L28.6298 3.58531L29.2559 2.22222L29.8819 0.859128L29.3194 0.600763L28.6934 1.96385ZM29.2559 2.22222L28.6298 3.58531L29.1923 3.84367L29.8184 2.48058L30.4444 1.11749L29.8819 0.859128L29.2559 2.22222ZM29.8184 2.48058L29.1923 3.84367C30.015 4.22157 30.8881 4.17091 31.6616 3.74898L30.9434 2.43213L30.2251 1.11529C30.2109 1.12304 30.2451 1.10211 30.3163 1.09904C30.3895 1.09589 30.4376 1.11436 30.4444 1.11749L29.8184 2.48058ZM30.9434 2.43213L31.6616 3.74898L32.2241 3.44217L31.5059 2.12532L30.7876 0.808472L30.2251 1.11529L30.9434 2.43213ZM31.5059 2.12532L32.2241 3.44217L32.7866 3.13535L32.0684 1.81851L31.3501 0.501658L30.7876 0.808472L31.5059 2.12532ZM32.0684 1.81851L32.7866 3.13535C32.8041 3.12582 32.8108 3.12411 32.807 3.12532C32.8029 3.12666 32.7909 3.12994 32.7727 3.13167C32.7543 3.13342 32.7354 3.13301 32.7183 3.13078C32.7015 3.12859 32.6919 3.12537 32.6909 3.12501L33.1934 1.71166L33.6958 0.298319C32.8867 0.0106623 32.0688 0.109631 31.3501 0.501658L32.0684 1.81851ZM33.1934 1.71166L32.6909 3.12501L33.2534 3.32498L33.7559 1.91164L34.2583 0.498291L33.6958 0.298319L33.1934 1.71166ZM33.7559 1.91164L33.2534 3.32498L33.8159 3.52495L34.3184 2.11161L34.8208 0.698263L34.2583 0.498291L33.7559 1.91164ZM34.3184 2.11161L33.8159 3.52495C34.3253 3.70604 34.85 3.8115 35.3856 3.83214L35.4434 2.33325L35.5011 0.834359C35.2867 0.826102 35.0614 0.783805 34.8208 0.698263L34.3184 2.11161ZM35.4434 2.33325L35.3856 3.83214L35.9481 3.8538L36.0059 2.35491L36.0636 0.856026L35.5011 0.834359L35.4434 2.33325ZM36.0059 2.35491L35.9481 3.8538L36.5106 3.87547L36.5684 2.37658L36.6261 0.877694L36.0636 0.856026L36.0059 2.35491ZM36.5684 2.37658L36.5106 3.87547C36.9817 3.89362 37.4519 3.86661 37.9199 3.79511L37.6934 2.31232L37.4668 0.829519C37.1848 0.8726 36.905 0.888438 36.6261 0.877694L36.5684 2.37658ZM37.6934 2.31232L37.9199 3.79511L38.4824 3.70918L38.2559 2.22638L38.0293 0.743585L37.4668 0.829519L37.6934 2.31232ZM38.2559 2.22638L38.4824 3.70918L39.0449 3.62324L38.8184 2.14045L38.5918 0.65765L38.0293 0.743585L38.2559 2.22638ZM38.8184 2.14045L39.0449 3.62324C39.406 3.56807 39.7671 3.51809 40.1281 3.47329L39.9434 1.98471L39.7586 0.496126C39.3696 0.5444 38.9807 0.598243 38.5918 0.65765L38.8184 2.14045ZM39.9434 1.98471L40.1281 3.47329L40.6906 3.40349L40.5059 1.91491L40.3211 0.426323L39.7586 0.496126L39.9434 1.98471ZM40.5059 1.91491L40.6906 3.40349L41.2531 3.33369L41.0684 1.8451L40.8836 0.356521L40.3211 0.426323L40.5059 1.91491ZM41.0684 1.8451L41.2531 3.33369C41.6146 3.28882 41.9761 3.24896 42.3375 3.21408L42.1934 1.72101L42.0493 0.227952C41.6607 0.265455 41.2721 0.308313 40.8836 0.356521L41.0684 1.8451ZM42.1934 1.72101L42.3375 3.21408L42.9 3.15979L42.7559 1.66673L42.6118 0.173666L42.0493 0.227952L42.1934 1.72101ZM42.7559 1.66673L42.9 3.15979L43.4625 3.10551L43.3184 1.61244L43.1743 0.11938L42.6118 0.173666L42.7559 1.66673ZM43.3184 1.61244L43.4625 3.10551C43.4476 3.10694 43.4389 3.10374 43.4468 3.10615C43.4586 3.1097 43.5037 3.12563 43.5823 3.18074L44.4434 1.95252L45.3044 0.724298C44.7024 0.302234 43.9777 0.0418413 43.1743 0.11938L43.3184 1.61244ZM44.4434 1.95252L43.5823 3.18074L44.1448 3.5751L45.0059 2.34688L45.8669 1.11866L45.3044 0.724298L44.4434 1.95252ZM45.0059 2.34688L44.1448 3.5751L44.7073 3.96946L45.5684 2.74124L46.4294 1.51302L45.8669 1.11866L45.0059 2.34688ZM45.5684 2.74124L44.7073 3.96946C45.3324 4.40774 46.0957 4.66092 46.9336 4.52496L46.6934 3.04432L46.4531 1.56369C46.464 1.56192 46.4777 1.56097 46.4923 1.56176C46.5069 1.56254 46.517 1.56473 46.5211 1.56583C46.5293 1.56806 46.499 1.56181 46.4294 1.51302L45.5684 2.74124ZM46.6934 3.04432L46.9336 4.52496L47.4961 4.43368L47.2559 2.95305L47.0156 1.47241L46.4531 1.56369L46.6934 3.04432ZM47.2559 2.95305L47.4961 4.43368L48.0586 4.3424L47.8184 2.86177L47.5781 1.38114L47.0156 1.47241L47.2559 2.95305ZM47.8184 2.86177L48.0586 4.3424C48.537 4.26478 49.0082 4.13716 49.4712 3.96309L48.9434 2.55903L48.4155 1.15497C48.1286 1.26285 47.8498 1.33706 47.5781 1.38114L47.8184 2.86177ZM48.9434 2.55903L49.4712 3.96309L50.0337 3.75162L49.5059 2.34756L48.978 0.943504L48.4155 1.15497L48.9434 2.55903ZM49.5059 2.34756L50.0337 3.75162L50.5962 3.54016L50.0684 2.1361L49.5405 0.732039L48.978 0.943504L49.5059 2.34756ZM50.0684 2.1361L50.5962 3.54016C50.5934 3.54121 50.581 3.54547 50.5604 3.5484C50.5394 3.55137 50.5163 3.55207 50.4933 3.54995C50.4439 3.5454 50.4303 3.53159 50.4603 3.54839L51.1934 2.23972L51.9264 0.931054C51.1977 0.522861 50.3625 0.423031 49.5405 0.732039L50.0684 2.1361ZM51.1934 2.23972L50.4603 3.54839L51.0228 3.86348L51.7559 2.55481L52.4889 1.24614L51.9264 0.931054L51.1934 2.23972ZM51.7559 2.55481L51.0228 3.86348L51.5853 4.17857L52.3184 2.8699L53.0514 1.56123L52.4889 1.24614L51.7559 2.55481ZM52.3184 2.8699L51.5853 4.17857C52.2613 4.55727 53.0363 4.69614 53.831 4.4836L53.4434 3.03454L53.0558 1.58548C53.0556 1.58552 53.057 1.58513 53.0599 1.58466C53.0629 1.58418 53.0668 1.5837 53.0714 1.58341C53.0814 1.58281 53.0908 1.58335 53.0981 1.58442C53.1051 1.58545 53.1058 1.58633 53.0992 1.584C53.0923 1.58157 53.0765 1.57526 53.0514 1.56123L52.3184 2.8699ZM53.4434 3.03454L53.831 4.4836L54.3935 4.33314L54.0059 2.88408L53.6183 1.43502L53.0558 1.58548L53.4434 3.03454ZM54.0059 2.88408L54.3935 4.33314L54.956 4.18268L54.5684 2.73362L54.1808 1.28456L53.6183 1.43502L54.0059 2.88408ZM54.5684 2.73362L54.956 4.18268C55.1473 4.1315 55.3255 4.1207 55.5015 4.1434L55.6934 2.65572L55.8853 1.16805C55.3112 1.094 54.7394 1.13513 54.1808 1.28456L54.5684 2.73362ZM55.6934 2.65572L55.5015 4.1434L56.064 4.21595L56.2559 2.72828L56.4478 1.24061L55.8853 1.16805L55.6934 2.65572ZM56.2559 2.72828L56.064 4.21595L56.6265 4.28851L56.8184 2.80084L57.0103 1.31316L56.4478 1.24061L56.2559 2.72828ZM56.8184 2.80084L56.6265 4.28851C57.137 4.35436 57.6489 4.35021 58.1586 4.27633L57.9434 2.79185L57.7282 1.30737C57.4878 1.34221 57.2497 1.34405 57.0103 1.31316L56.8184 2.80084ZM57.9434 2.79185L58.1586 4.27633L58.7211 4.19479L58.5059 2.71031L58.2907 1.22582L57.7282 1.30737L57.9434 2.79185ZM58.5059 2.71031L58.7211 4.19479L59.2836 4.11325L59.0684 2.62876L58.8532 1.14428L58.2907 1.22582L58.5059 2.71031ZM59.0684 2.62876L59.2836 4.11325C59.8276 4.03438 60.3517 3.86447 60.8525 3.61948L60.1934 2.27206L59.5342 0.924634C59.2851 1.04652 59.0591 1.11442 58.8532 1.14428L59.0684 2.62876ZM60.1934 2.27206L60.8525 3.61948L61.415 3.34432L60.7559 1.99689L60.0967 0.649471L59.5342 0.924634L60.1934 2.27206ZM60.7559 1.99689L61.415 3.34432L61.9775 3.06915L61.3184 1.72173L60.6592 0.374309L60.0967 0.649471L60.7559 1.99689ZM61.3184 1.72173L61.9775 3.06915C61.9629 3.07631 61.8984 3.10145 61.8036 3.09659C61.7116 3.09187 61.665 3.06269 61.6761 3.06932L62.4416 1.77936L63.2072 0.489403C62.4201 0.0223117 61.5106 -0.0421429 60.6592 0.374309L61.3184 1.72173ZM62.4416 1.77936L61.6761 3.06932L62.2369 3.40211L63.0024 2.11215L63.7679 0.822193L63.2072 0.489403L62.4416 1.77936ZM63.0024 2.11215L62.2369 3.40211L62.7977 3.7349L63.5632 2.44494L64.3287 1.15498L63.7679 0.822193L63.0024 2.11215ZM63.5632 2.44494L62.7977 3.7349C63.4292 4.10966 64.1566 4.29183 64.928 4.1675L64.6893 2.68661L64.4506 1.20572C64.447 1.2063 64.4466 1.20659 64.4399 1.20514C64.4305 1.20313 64.3942 1.19383 64.3287 1.15498L63.5632 2.44494ZM64.6893 2.68661L64.928 4.1675L65.4933 4.07638L65.2546 2.59549L65.0159 1.1146L64.4506 1.20572L64.6893 2.68661ZM65.2546 2.59549L65.4933 4.07638L66.0587 3.98526L65.82 2.50437L65.5813 1.02348L65.0159 1.1146L65.2546 2.59549ZM65.82 2.50437L66.0587 3.98526C66.0632 3.98452 66.0599 3.98543 66.0502 3.98513C66.0403 3.98482 66.0279 3.98335 66.0148 3.98021C66.0017 3.97709 65.9925 3.97339 65.9881 3.97132C65.9839 3.96938 65.9872 3.9704 65.9979 3.97799L66.8666 2.75513L67.7353 1.53227C67.1045 1.08422 66.3601 0.897957 65.5813 1.02348L65.82 2.50437ZM66.8666 2.75513L65.9979 3.97799L66.4792 4.31987L67.3478 3.09702L68.2165 1.87416L67.7353 1.53227L66.8666 2.75513ZM67.3478 3.09702L66.4792 4.31987L66.9604 4.66176L67.8291 3.4389L68.6978 2.21604L68.2165 1.87416L67.3478 3.09702ZM67.8291 3.4389L66.9604 4.66176C67.7036 5.18967 68.5583 5.26456 69.3485 5.06992L68.9897 3.61345L68.631 2.15699C68.559 2.17471 68.5491 2.16507 68.583 2.17016C68.5996 2.17267 68.6211 2.17796 68.6443 2.18736C68.6676 2.19674 68.6857 2.20745 68.6978 2.21604L67.8291 3.4389ZM68.9897 3.61345L69.3485 5.06992L70.0278 4.90259L69.669 3.44613L69.3103 1.98966L68.631 2.15699L68.9897 3.61345ZM69.669 3.44613L70.0278 4.90259L70.7071 4.73527L70.3483 3.2788L69.9896 1.82233L69.3103 1.98966L69.669 3.44613ZM70.3483 3.2788L70.7071 4.73527C70.7144 4.73347 70.5647 4.77065 70.3542 4.68205C70.1339 4.58936 70.0365 4.43926 70.0173 4.40323L71.3402 3.69617L72.6631 2.98912C72.4355 2.56329 72.0686 2.14873 71.5178 1.91691C70.9766 1.68918 70.4352 1.71258 69.9896 1.82233L70.3483 3.2788ZM71.3402 3.69617L70.0173 4.40323L70.3298 4.98793L71.6527 4.28087L72.9756 3.57382L72.6631 2.98912L71.3402 3.69617ZM71.6527 4.28087L70.3298 4.98793L70.6423 5.57263L71.9652 4.86557L73.2881 4.15852L72.9756 3.57382L71.6527 4.28087ZM71.9652 4.86557L70.6423 5.57263C70.9054 6.06488 71.2206 6.51447 71.6009 6.89473L72.6615 5.83395L73.722 4.77317C73.5906 4.64186 73.4417 4.44587 73.2881 4.15852L71.9652 4.86557ZM72.6615 5.83395L71.6009 6.89473L71.9847 7.27841L73.0452 6.21763L74.1058 5.15685L73.722 4.77317L72.6615 5.83395ZM73.0452 6.21763L71.9847 7.27841L72.3684 7.66209L73.429 6.60131L74.4895 5.54053L74.1058 5.15685L73.0452 6.21763ZM73.429 6.60131L72.3684 7.66209C72.6324 7.92602 72.8992 8.18661 73.1686 8.44386L74.2044 7.35887L75.2402 6.27387C74.9874 6.03262 74.7372 5.78817 74.4895 5.54053L73.429 6.60131ZM74.2044 7.35887L73.1686 8.44386L73.5603 8.81774L74.596 7.73274L75.6318 6.64775L75.2402 6.27387L74.2044 7.35887ZM74.596 7.73274L73.5603 8.81774L73.9519 9.19161L74.9877 8.10662L76.0235 7.02163L75.6318 6.64775L74.596 7.73274ZM74.9877 8.10662L73.9519 9.19161C74.3502 9.57183 74.8205 9.87595 75.3319 10.1206L75.9792 8.76744L76.6265 7.41429C76.3381 7.27634 76.1474 7.13992 76.0235 7.02163L74.9877 8.10662ZM75.9792 8.76744L75.3319 10.1206L75.9317 10.4075L76.579 9.05438L77.2263 7.70123L76.6265 7.41429L75.9792 8.76744ZM76.579 9.05438L75.9317 10.4075L76.5316 10.6945L77.1789 9.34132L77.8262 7.98817L77.2263 7.70123L76.579 9.05438ZM77.1789 9.34132L76.5316 10.6945C76.5246 10.6911 76.4191 10.6363 76.33 10.487C76.2393 10.3349 76.238 10.2063 76.2397 10.1789L77.7366 10.2762L79.2334 10.3736C79.2633 9.9142 79.183 9.41374 78.9064 8.95007C78.6315 8.48913 78.2331 8.18282 77.8262 7.98817L77.1789 9.34132ZM77.7366 10.2762L76.2397 10.1789L76.1976 10.8269L77.6944 10.9242L79.1913 11.0216L79.2334 10.3736L77.7366 10.2762ZM77.6944 10.9242L76.1976 10.8269L76.1555 11.4749L77.6523 11.5722L79.1491 11.6695L79.1913 11.0216L77.6944 10.9242ZM77.6523 11.5722L76.1555 11.4749C76.1017 12.302 76.3616 13.0764 76.926 13.6984L78.0368 12.6904L79.1477 11.6824C79.1386 11.6724 79.1367 11.6685 79.1383 11.6712C79.139 11.6724 79.1402 11.6746 79.1417 11.6777C79.1432 11.6808 79.1446 11.6843 79.1458 11.6879C79.1485 11.6957 79.1491 11.7004 79.1491 11.6999C79.149 11.6991 79.1478 11.6896 79.1491 11.6695L77.6523 11.5722ZM78.0368 12.6904L76.926 13.6984L77.3527 14.1686L78.4635 13.1606L79.5744 12.1526L79.1477 11.6824L78.0368 12.6904ZM78.4635 13.1606L77.3527 14.1686L77.7794 14.6388L78.8902 13.6308L80.0011 12.6228L79.5744 12.1526L78.4635 13.1606ZM78.8902 13.6308L77.7794 14.6388C77.7854 14.6454 77.7491 14.6061 77.7263 14.5213C77.703 14.4345 77.7128 14.3699 77.7163 14.3548L79.1765 14.6982L80.6367 15.0416C80.8479 14.1432 80.6034 13.2866 80.0011 12.6228L78.8902 13.6308ZM79.1765 14.6982L77.7163 14.3548L77.5759 14.952L79.0361 15.2954L80.4962 15.6387L80.6367 15.0416L79.1765 14.6982ZM79.0361 15.2954L77.5759 14.952L77.4355 15.5491L78.8956 15.8925L80.3558 16.2359L80.4962 15.6387L79.0361 15.2954ZM78.8956 15.8925L77.4355 15.5491C77.2696 16.2546 77.3279 16.9656 77.6109 17.6349L78.9924 17.0507L80.374 16.4666C80.3407 16.3877 80.3345 16.3266 80.3558 16.2359L78.8956 15.8925ZM78.9924 17.0507L77.6109 17.6349L77.8481 18.196L79.2297 17.6118L80.6113 17.0276L80.374 16.4666L78.9924 17.0507ZM79.2297 17.6118L77.8481 18.196L78.0854 18.7571L79.4669 18.1729L80.8485 17.5887L80.6113 17.0276L79.2297 17.6118ZM79.4669 18.1729L78.0854 18.7571C78.1652 18.946 78.1895 19.1029 78.1844 19.2411L79.6834 19.2965L81.1824 19.3519C81.205 18.7401 81.085 18.148 80.8485 17.5887L79.4669 18.1729ZM79.6834 19.2965L78.1844 19.2411L78.1636 19.8036L79.6626 19.859L81.1616 19.9144L81.1824 19.3519L79.6834 19.2965ZM79.6626 19.859L78.1636 19.8036L78.1428 20.3661L79.6418 20.4215L81.1408 20.4769L81.1616 19.9144L79.6626 19.859ZM79.6418 20.4215L78.1428 20.3661C78.1364 20.5382 78.0959 20.73 78.0008 20.949L79.3767 21.5465L80.7526 22.144C80.9832 21.6129 81.1194 21.0548 81.1408 20.4769L79.6418 20.4215ZM79.3767 21.5465L78.0008 20.949L77.7566 21.5115L79.1324 22.109L80.5083 22.7065L80.7526 22.144L79.3767 21.5465ZM79.1324 22.109L77.7566 21.5115L77.5123 22.074L78.8882 22.6715L80.264 23.269L80.5083 22.7065L79.1324 22.109ZM78.8882 22.6715L77.5123 22.074C77.2723 22.6266 77.1433 23.2125 77.1539 23.8197L78.6536 23.7935L80.1534 23.7673C80.151 23.6285 80.1783 23.4664 80.264 23.269L78.8882 22.6715ZM78.6536 23.7935L77.1539 23.8197L77.1636 24.3792L78.6634 24.353L80.1632 24.3268L80.1534 23.7673L78.6536 23.7935ZM78.6634 24.353L77.1636 24.3792L77.1734 24.9387L78.6732 24.9125L80.1729 24.8863L80.1632 24.3268L78.6634 24.353ZM78.6732 24.9125L77.1734 24.9387C77.1815 25.4036 77.2324 25.8736 77.3224 26.3476L78.7961 26.0677L80.2697 25.7879C80.2089 25.4675 80.1779 25.1674 80.1729 24.8863L78.6732 24.9125ZM78.7961 26.0677L77.3224 26.3476L77.4355 26.9433L78.9092 26.6635L80.3829 26.3836L80.2697 25.7879L78.7961 26.0677ZM78.9092 26.6635L77.4355 26.9433L77.5487 27.5391L79.0223 27.2592L80.496 26.9794L80.3829 26.3836L78.9092 26.6635ZM79.0223 27.2592L77.5487 27.5391C77.544 27.5145 77.538 27.4412 77.5681 27.3495C77.5972 27.2612 77.6375 27.2236 77.6282 27.2327L78.6791 28.303L79.73 29.3734C80.3685 28.7464 80.6709 27.9003 80.496 26.9794L79.0223 27.2592ZM78.6791 28.303L77.6282 27.2327L77.1719 27.6807L78.2227 28.7511L79.2736 29.8214L79.73 29.3734L78.6791 28.303ZM78.2227 28.7511L77.1719 27.6807L76.7155 28.1288L77.7664 29.1991L78.8173 30.2695L79.2736 29.8214L78.2227 28.7511ZM77.7664 29.1991L76.7155 28.1288C76.2325 28.603 75.8763 29.1857 75.7223 29.8712L77.1858 30.2001L78.6493 30.5289C78.6609 30.4772 78.6918 30.3927 78.8173 30.2695L77.7664 29.1991ZM77.1858 30.2001L75.7223 29.8712L75.598 30.4241L77.0615 30.7529L78.525 31.0818L78.6493 30.5289L77.1858 30.2001ZM77.0615 30.7529L75.598 30.4241L75.4738 30.9769L76.9373 31.3058L78.4008 31.6347L78.525 31.0818L77.0615 30.7529ZM76.9373 31.3058L75.4738 30.9769C75.4521 31.0736 75.4152 31.1393 75.3507 31.2045L76.4178 32.2588L77.4849 33.313C77.9474 32.8448 78.2569 32.2752 78.4008 31.6347L76.9373 31.3058ZM76.4178 32.2588L75.3507 31.2045L74.9555 31.6046L76.0225 32.6588L77.0896 33.7131L77.4849 33.313L76.4178 32.2588ZM76.0225 32.6588L74.9555 31.6046L74.5602 32.0047L75.6273 33.0589L76.6944 34.1131L77.0896 33.7131L76.0225 32.6588ZM75.6273 33.0589L74.5602 32.0047C74.2152 32.3539 73.9137 32.7395 73.6567 33.1592L74.9358 33.9426L76.215 34.726C76.3529 34.5009 76.5124 34.2973 76.6944 34.1131L75.6273 33.0589ZM74.9358 33.9426L73.6567 33.1592L73.3605 33.6428L74.6397 34.4262L75.9188 35.2096L76.215 34.726L74.9358 33.9426ZM74.6397 34.4262L73.3605 33.6428L73.0643 34.1264L74.3435 34.9098L75.6226 35.6932L75.9188 35.2096L74.6397 34.4262ZM74.3435 34.9098L73.0643 34.1264C72.9568 34.302 72.8263 34.4499 72.6685 34.5765L73.6072 35.7465L74.5458 36.9165C74.9749 36.5723 75.3353 36.1624 75.6226 35.6932L74.3435 34.9098ZM73.6072 35.7465L72.6685 34.5765L72.2284 34.9296L73.167 36.0996L74.1057 37.2696L74.5458 36.9165L73.6072 35.7465ZM73.167 36.0996L72.2284 34.9296L71.7882 35.2827L72.7269 36.4527L73.6655 37.6227L74.1057 37.2696L73.167 36.0996ZM72.7269 36.4527L71.7882 35.2827C71.635 35.4056 71.4672 35.497 71.2769 35.56L71.7482 36.984L72.2195 38.4081C72.7473 38.2334 73.2319 37.9706 73.6655 37.6227L72.7269 36.4527ZM71.7482 36.984L71.2769 35.56L70.7384 35.7382L71.2097 37.1622L71.6809 38.5863L72.2195 38.4081L71.7482 36.984ZM71.2097 37.1622L70.7384 35.7382L70.1999 35.9164L70.6711 37.3405L71.1424 38.7645L71.6809 38.5863L71.2097 37.1622ZM70.6711 37.3405L70.1999 35.9164C69.61 36.1116 69.0919 36.4384 68.6489 36.8657L69.6903 37.9453L70.7317 39.0249C70.8784 38.8834 71.0142 38.8069 71.1424 38.7645L70.6711 37.3405ZM69.6903 37.9453L68.6489 36.8657L68.2067 37.2923L69.2481 38.3719L70.2895 39.4515L70.7317 39.0249L69.6903 37.9453ZM69.2481 38.3719L68.2067 37.2923L67.7645 37.7189L68.8059 38.7985L69.8473 39.8781L70.2895 39.4515L69.2481 38.3719ZM68.8059 38.7985L67.7645 37.7189C67.6713 37.8087 67.5992 37.838 67.526 37.8511L67.7901 39.3277L68.0541 40.8042C68.7456 40.6806 69.3507 40.3571 69.8473 39.8781L68.8059 38.7985ZM67.7901 39.3277L67.526 37.8511L66.9524 37.9537L67.2165 39.4302L67.4805 40.9068L68.0541 40.8042L67.7901 39.3277ZM67.2165 39.4302L66.9524 37.9537L66.3789 38.0562L66.6429 39.5328L66.907 41.0094L67.4805 40.9068L67.2165 39.4302ZM66.6429 39.5328L66.3789 38.0562C65.9789 38.1277 65.5777 38.2069 65.1753 38.2935L65.4912 39.7599L65.8071 41.2263C66.1756 41.1469 66.5422 41.0746 66.907 41.0094L66.6429 39.5328ZM65.4912 39.7599L65.1753 38.2935L64.5971 38.4181L64.913 39.8845L65.2289 41.3508L65.8071 41.2263L65.4912 39.7599ZM64.913 39.8845L64.5971 38.4181L64.0189 38.5426L64.3348 40.009L64.6507 41.4754L65.2289 41.3508L64.913 39.8845ZM64.3348 40.009L64.0189 38.5426C63.8513 38.5787 63.7019 38.5753 63.5528 38.5385L63.1941 39.995L62.8354 41.4515C63.4364 41.5995 64.0474 41.6053 64.6507 41.4754L64.3348 40.009ZM63.1941 39.995L63.5528 38.5385L62.9903 38.4L62.6316 39.8565L62.2729 41.313L62.8354 41.4515L63.1941 39.995ZM62.6316 39.8565L62.9903 38.4L62.4278 38.2615L62.0691 39.718L61.7104 41.1745L62.2729 41.313L62.6316 39.8565ZM62.0691 39.718L62.4278 38.2615C61.8757 38.1255 61.313 38.092 60.7492 38.1659L60.9441 39.6532L61.1391 41.1405C61.3253 41.1161 61.5126 41.1257 61.7104 41.1745L62.0691 39.718ZM60.9441 39.6532L60.7492 38.1659L60.1867 38.2396L60.3816 39.7269L60.5766 41.2142L61.1391 41.1405L60.9441 39.6532ZM60.3816 39.7269L60.1867 38.2396L59.6242 38.3134L59.8191 39.8007L60.0141 41.2879L60.5766 41.2142L60.3816 39.7269ZM59.8191 39.8007L59.6242 38.3134C59.5551 38.3224 59.4641 38.3185 59.3216 38.2529L58.6941 39.6153L58.0666 40.9778C58.6741 41.2575 59.3331 41.3772 60.0141 41.2879L59.8191 39.8007ZM58.6941 39.6153L59.3216 38.2529L58.7591 37.9938L58.1316 39.3563L57.5041 40.7187L58.0666 40.9778L58.6941 39.6153ZM58.1316 39.3563L58.7591 37.9938L58.1966 37.7348L57.5691 39.0972L56.9416 40.4597L57.5041 40.7187L58.1316 39.3563ZM57.5691 39.0972L58.1966 37.7348C57.4482 37.3901 56.6367 37.3674 55.8677 37.6874L56.4441 39.0723L57.0205 40.4571C57.0277 40.4541 57.0257 40.4557 57.0153 40.4577C57.0047 40.4598 56.9901 40.4614 56.9734 40.4611C56.9567 40.4607 56.9437 40.4585 56.9359 40.4566C56.9286 40.4549 56.9303 40.4544 56.9416 40.4597L57.5691 39.0972ZM56.4441 39.0723L55.8677 37.6874L55.3052 37.9216L55.8816 39.3064L56.458 40.6912L57.0205 40.4571L56.4441 39.0723ZM55.8816 39.3064L55.3052 37.9216L54.7427 38.1557L55.3191 39.5405L55.8955 40.9254L56.458 40.6912L55.8816 39.3064ZM55.3191 39.5405L54.7427 38.1557C54.5042 38.255 54.286 38.3053 54.0837 38.3203L54.1941 39.8162L54.3046 41.3121C54.8522 41.2717 55.3841 41.1382 55.8955 40.9254L55.3191 39.5405ZM54.1941 39.8162L54.0837 38.3203L53.5212 38.3618L53.6316 39.8577L53.7421 41.3536L54.3046 41.3121L54.1941 39.8162ZM53.6316 39.8577L53.5212 38.3618L52.9587 38.4033L53.0691 39.8993L53.1796 41.3952L53.7421 41.3536L53.6316 39.8577ZM53.0691 39.8993L52.9587 38.4033C52.9339 38.4052 52.8596 38.408 52.705 38.317L51.9441 39.6097L51.1832 40.9024C51.7786 41.2529 52.4544 41.4487 53.1796 41.3952L53.0691 39.8993ZM51.9441 39.6097L52.705 38.317L52.1425 37.9859L51.3816 39.2786L50.6207 40.5713L51.1832 40.9024L51.9441 39.6097ZM51.3816 39.2786L52.1425 37.9859L51.58 37.6548L50.8191 38.9475L50.0582 40.2402L50.6207 40.5713L51.3816 39.2786ZM50.8191 38.9475L51.58 37.6548C51.0321 37.3324 50.4282 37.1238 49.78 37.0867L49.6941 38.5842L49.6083 40.0817C49.71 40.0876 49.8561 40.1213 50.0582 40.2402L50.8191 38.9475ZM49.6941 38.5842L49.78 37.0867L49.2175 37.0544L49.1316 38.552L49.0458 40.0495L49.6083 40.0817L49.6941 38.5842ZM49.1316 38.552L49.2175 37.0544L48.655 37.0222L48.5691 38.5197L48.4833 40.0173L49.0458 40.0495L49.1316 38.552ZM48.5691 38.5197L48.655 37.0222C48.2655 36.9999 47.876 36.9832 47.4865 36.9722L47.4441 38.4716L47.4017 39.971C47.7622 39.9812 48.1227 39.9966 48.4833 40.0173L48.5691 38.5197ZM47.4441 38.4716L47.4865 36.9722L46.924 36.9563L46.8816 38.4557L46.8392 39.9551L47.4017 39.971L47.4441 38.4716ZM46.8816 38.4557L46.924 36.9563L46.3615 36.9404L46.3191 38.4398L46.2767 39.9392L46.8392 39.9551L46.8816 38.4557ZM46.3191 38.4398L46.3615 36.9404C45.7799 36.9239 45.2122 37.026 44.6679 37.2299L45.1941 38.6346L45.7203 40.0393C45.9261 39.9622 46.1084 39.9344 46.2767 39.9392L46.3191 38.4398ZM45.1941 38.6346L44.6679 37.2299L44.1054 37.4406L44.6316 38.8453L45.1578 40.25L45.7203 40.0393L45.1941 38.6346ZM44.6316 38.8453L44.1054 37.4406L43.5429 37.6513L44.0691 39.056L44.5953 40.4607L45.1578 40.25L44.6316 38.8453ZM44.0691 39.056L43.5429 37.6513C43.4803 37.6748 43.454 37.6726 43.4073 37.6574L42.9441 39.0841L42.481 40.5108C43.1842 40.7391 43.9079 40.7182 44.5953 40.4607L44.0691 39.056ZM42.9441 39.0841L43.4073 37.6574L42.8448 37.4748L42.3816 38.9015L41.9185 40.3282L42.481 40.5108L42.9441 39.0841ZM42.3816 38.9015L42.8448 37.4748L42.2823 37.2922L41.8191 38.7189L41.356 40.1456L41.9185 40.3282L42.3816 38.9015ZM41.8191 38.7189L42.2823 37.2922C41.7313 37.1134 41.1616 37.0392 40.5832 37.0821L40.6941 38.578L40.8051 40.0739C40.9767 40.0612 41.1569 40.081 41.356 40.1456L41.8191 38.7189ZM40.6941 38.578L40.5832 37.0821L40.0207 37.1238L40.1316 38.6197L40.2426 40.1156L40.8051 40.0739L40.6941 38.578ZM40.1316 38.6197L40.0207 37.1238L39.4582 37.1656L39.5691 38.6615L39.6801 40.1573L40.2426 40.1156L40.1316 38.6197ZM39.5691 38.6615L39.4582 37.1656C38.8361 37.2117 38.251 37.4071 37.7123 37.7082L38.4441 39.0175L39.1759 40.3269C39.3872 40.2088 39.5522 40.1668 39.6801 40.1573L39.5691 38.6615ZM38.4441 39.0175L37.7123 37.7082L37.1498 38.0226L37.8816 39.3319L38.6134 40.6413L39.1759 40.3269L38.4441 39.0175ZM37.8816 39.3319L37.1498 38.0226L36.5873 38.3369L37.3191 39.6463L38.0509 40.9557L38.6134 40.6413L37.8816 39.3319ZM37.3191 39.6463L36.5873 38.3369C36.5577 38.3535 36.5716 38.3396 36.6212 38.3351C36.6443 38.333 36.6674 38.3338 36.6884 38.3368C36.709 38.3397 36.7213 38.344 36.724 38.345L36.1941 39.7483L35.6643 41.1516C36.4858 41.4618 37.3213 41.3634 38.0509 40.9557L37.3191 39.6463ZM36.1941 39.7483L36.724 38.345L36.1615 38.1326L35.6316 39.5359L35.1018 40.9392L35.6643 41.1516L36.1941 39.7483ZM35.6316 39.5359L36.1615 38.1326L35.599 37.9202L35.0691 39.3235L34.5393 40.7268L35.1018 40.9392L35.6316 39.5359ZM35.0691 39.3235L35.599 37.9202C34.8852 37.6507 34.1359 37.6485 33.4204 37.9151L33.9441 39.3207L34.4679 40.7263C34.4842 40.7202 34.4941 40.718 34.4983 40.7173C34.5024 40.7165 34.5035 40.7166 34.5029 40.7166C34.5023 40.7166 34.5035 40.7165 34.5078 40.7173C34.5123 40.7182 34.5226 40.7205 34.5393 40.7268L35.0691 39.3235ZM33.9441 39.3207L33.4204 37.9151L32.8579 38.1247L33.3816 39.5303L33.9054 40.9359L34.4679 40.7263L33.9441 39.3207ZM33.3816 39.5303L32.8579 38.1247L32.2954 38.3343L32.8191 39.7399L33.3429 41.1455L33.9054 40.9359L33.3816 39.5303ZM32.8191 39.7399L32.2954 38.3343C32.2069 38.3673 32.1546 38.3653 32.093 38.3483L31.6941 39.7943L31.2953 41.2403C31.9836 41.4302 32.6813 41.392 33.3429 41.1455L32.8191 39.7399ZM31.6941 39.7943L32.093 38.3483L31.5305 38.1932L31.1316 39.6392L30.7328 41.0852L31.2953 41.2403L31.6941 39.7943ZM31.1316 39.6392L31.5305 38.1932L30.968 38.038L30.5691 39.484L30.1703 40.9301L30.7328 41.0852L31.1316 39.6392ZM30.5691 39.484L30.968 38.038C30.3639 37.8714 29.7444 37.8511 29.13 37.9826L29.4441 39.4494L29.7582 40.9161C29.8939 40.8871 30.0244 40.8898 30.1703 40.9301L30.5691 39.484ZM29.4441 39.4494L29.13 37.9826L28.5675 38.1031L28.8816 39.5698L29.1957 41.0366L29.7582 40.9161L29.4441 39.4494ZM28.8816 39.5698L28.5675 38.1031L28.005 38.2235L28.3191 39.6903L28.6332 41.157L29.1957 41.0366L28.8816 39.5698ZM28.3191 39.6903L28.005 38.2235C27.7164 38.2854 27.4312 38.32 27.1485 38.3286L27.1941 39.8279L27.2398 41.3272C27.707 41.313 28.1719 41.2558 28.6332 41.157L28.3191 39.6903ZM27.1941 39.8279L27.1485 38.3286L26.586 38.3457L26.6316 39.845L26.6773 41.3443L27.2398 41.3272L27.1941 39.8279ZM26.6316 39.845L26.586 38.3457L26.0235 38.3628L26.0691 39.8621L26.1148 41.3614L26.6773 41.3443L26.6316 39.845ZM26.0691 39.8621L26.0235 38.3628C25.9051 38.3664 25.7609 38.3435 25.5759 38.2576L24.9441 39.618L24.3124 40.9785C24.8773 41.2409 25.4832 41.3807 26.1148 41.3614L26.0691 39.8621ZM24.9441 39.618L25.5759 38.2576L25.0134 37.9964L24.3816 39.3568L23.7499 40.7173L24.3124 40.9785L24.9441 39.618ZM24.3816 39.3568L25.0134 37.9964L24.4509 37.7352L23.8191 39.0956L23.1874 40.4561L23.7499 40.7173L24.3816 39.3568ZM23.8191 39.0956L24.4509 37.7352C23.9074 37.4828 23.3296 37.3357 22.7273 37.3224L22.6941 38.822L22.6609 40.3216C22.8086 40.3249 22.9808 40.3602 23.1874 40.4561L23.8191 39.0956ZM22.6941 38.822L22.7273 37.3224L22.1648 37.3099L22.1316 38.8095L22.0984 40.3092L22.6609 40.3216L22.6941 38.822ZM22.1316 38.8095L22.1648 37.3099L21.6023 37.2974L21.5691 38.7971L21.5359 40.2967L22.0984 40.3092L22.1316 38.8095ZM21.5691 38.7971L21.6023 37.2974C21.2873 37.2905 20.9716 37.2646 20.6549 37.2197L20.4441 38.7048L20.2334 40.1899C20.6667 40.2514 21.1009 40.2871 21.5359 40.2967L21.5691 38.7971ZM20.4441 38.7048L20.6549 37.2197L20.0924 37.1399L19.8816 38.625L19.6709 40.1101L20.2334 40.1899L20.4441 38.7048ZM19.8816 38.625L20.0924 37.1399L19.5299 37.06L19.3191 38.5452L19.1084 40.0303L19.6709 40.1101L19.8816 38.625ZM19.3191 38.5452L19.5299 37.06C19.0397 36.9905 18.5478 36.9784 18.0566 37.0248L18.1976 38.5182L18.3387 40.0115C18.5928 39.9875 18.8485 39.9934 19.1084 40.0303L19.3191 38.5452ZM18.1976 38.5182L18.0566 37.0248L17.4976 37.0776L17.6386 38.571L17.7797 40.0643L18.3387 40.0115L18.1976 38.5182ZM17.6386 38.571L17.4976 37.0776L16.9386 37.1304L17.0797 38.6238L17.2207 40.1171L17.7797 40.0643L17.6386 38.571ZM17.0797 38.6238L16.9386 37.1304C16.5182 37.1701 16.0974 37.2302 15.6761 37.3102L15.9561 38.7839L16.2362 40.2575C16.5676 40.1945 16.8957 40.1478 17.2207 40.1171L17.0797 38.6238ZM15.9561 38.7839L15.6761 37.3102L15.1115 37.4175L15.3916 38.8911L15.6716 40.3648L16.2362 40.2575L15.9561 38.7839ZM15.3916 38.8911L15.1115 37.4175L14.547 37.5248L14.827 38.9984L15.1071 40.4721L15.6716 40.3648L15.3916 38.8911ZM14.827 38.9984L14.547 37.5248C14.4524 37.5428 14.3892 37.5337 14.3191 37.5045L13.7427 38.8893L13.1662 40.2741C13.7893 40.5335 14.449 40.5971 15.1071 40.4721L14.827 38.9984ZM13.7427 38.8893L14.3191 37.5045L13.7993 37.2881L13.2228 38.6729L12.6464 40.0577L13.1662 40.2741L13.7427 38.8893ZM13.2228 38.6729L13.7993 37.2881L13.2795 37.0717L12.703 38.4565L12.1265 39.8413L12.6464 40.0577L13.2228 38.6729ZM12.703 38.4565L13.2795 37.0717C13.0215 36.9643 12.7816 36.8357 12.5579 36.6859L11.7236 37.9325L10.8893 39.1791C11.2784 39.4395 11.6914 39.6602 12.1265 39.8413L12.703 38.4565ZM11.7236 37.9325L12.5579 36.6859L12.0982 36.3783L11.264 37.6249L10.4297 38.8715L10.8893 39.1791L11.7236 37.9325ZM11.264 37.6249L12.0982 36.3783L11.6386 36.0707L10.8043 37.3173L9.97006 38.5639L10.4297 38.8715L11.264 37.6249ZM10.8043 37.3173L11.6386 36.0707C11.2665 35.8217 10.878 35.6042 10.4737 35.4192L9.84964 36.7832L9.22564 38.1473C9.48143 38.2643 9.72943 38.4029 9.97006 38.5639L10.8043 37.3173ZM9.84964 36.7832L10.4737 35.4192L9.97855 35.1927L9.35455 36.5567L8.73054 37.9208L9.22564 38.1473L9.84964 36.7832ZM9.35455 36.5567L9.97855 35.1927L9.48346 34.9662L8.85945 36.3303L8.23545 37.6943L8.73054 37.9208L9.35455 36.5567ZM8.85945 36.3303L9.48346 34.9662C9.24053 34.8551 9.00804 34.7208 8.78518 34.5623L7.91562 35.7845L7.04607 37.0068C7.42152 37.2739 7.81825 37.5034 8.23545 37.6943L8.85945 36.3303ZM7.91562 35.7845L8.78518 34.5623L8.33645 34.243L7.46689 35.4653L6.59734 36.6875L7.04607 37.0068L7.91562 35.7845ZM7.46689 35.4653L8.33645 34.243L7.88772 33.9238L7.01816 35.146L6.1486 36.3683L6.59734 36.6875L7.46689 35.4653ZM7.01816 35.146L7.88772 33.9238C7.585 33.7084 7.27381 33.489 6.95416 33.2656L6.09482 34.495L5.23548 35.7245C5.54864 35.9434 5.85301 36.158 6.1486 36.3683L7.01816 35.146ZM6.09482 34.495L6.95416 33.2656L6.47955 32.9339L5.62021 34.1633L4.76087 35.3927L5.23548 35.7245L6.09482 34.495ZM5.62021 34.1633L6.47955 32.9339L6.00494 32.6021L5.1456 33.8316L4.28626 35.061L4.76087 35.3927L5.62021 34.1633ZM5.1456 33.8316L6.00494 32.6021C5.90973 32.5356 5.85199 32.4638 5.80891 32.3669L4.43824 32.9762L3.06757 33.5856C3.33482 34.1868 3.74867 34.6853 4.28626 35.061L5.1456 33.8316ZM4.43824 32.9762L5.80891 32.3669L5.57615 31.8433L4.20548 32.4526L2.83481 33.062L3.06757 33.5856L4.43824 32.9762ZM4.20548 32.4526L5.57615 31.8433L5.3434 31.3197L3.97273 31.9291L2.60206 32.5384L2.83481 33.062L4.20548 32.4526ZM3.97273 31.9291L5.3434 31.3197C5.18093 30.9543 5.01335 30.595 4.84065 30.242L3.49326 30.9012L2.14588 31.5604C2.30212 31.8798 2.45419 32.2057 2.60206 32.5384L3.97273 31.9291ZM3.49326 30.9012L4.84065 30.242L4.59394 29.7377L3.24656 30.3969L1.89917 31.0562L2.14588 31.5604L3.49326 30.9012ZM3.24656 30.3969L4.59394 29.7377L4.34723 29.2335L2.99985 29.8927L1.65246 30.5519L1.89917 31.0562L3.24656 30.3969ZM2.99985 29.8927L4.34723 29.2335C4.26351 29.0624 4.21369 28.8848 4.19621 28.6916L2.70232 28.8268L1.20842 28.962C1.2587 29.5177 1.40724 30.0507 1.65246 30.5519L2.99985 29.8927ZM2.70232 28.8268L4.19621 28.6916L4.14539 28.1299L2.6515 28.2651L1.1576 28.4003L1.20842 28.962L2.70232 28.8268ZM2.6515 28.2651L4.14539 28.1299L4.09457 27.5683L2.60067 27.7035L1.10678 27.8386L1.1576 28.4003L2.6515 28.2651ZM2.60067 27.7035L4.09457 27.5683C4.05816 27.1659 4.01088 26.7691 3.95259 26.378L2.46898 26.5991L0.985358 26.8202C1.03491 27.1527 1.07542 27.4921 1.10678 27.8386L2.60067 27.7035ZM2.46898 26.5991L3.95259 26.378L3.87172 25.8352L2.3881 26.0563L0.90448 26.2774L0.985358 26.8202L2.46898 26.5991ZM2.3881 26.0563L3.87172 25.8352L3.79084 25.2925L2.30722 25.5136L0.823603 25.7347L0.90448 26.2774L2.3881 26.0563ZM2.30722 25.5136L3.79084 25.2925C3.73615 24.9255 3.67872 24.5533 3.61856 24.1759L2.13726 24.412L0.655963 24.6482C0.714577 25.0159 0.770455 25.378 0.823603 25.7347L2.30722 25.5136ZM2.13726 24.412L3.61856 24.1759L3.52948 23.6171L2.04818 23.8532L0.566882 24.0893L0.655963 24.6482L2.13726 24.412ZM2.04818 23.8532L3.52948 23.6171L3.4404 23.0582L1.9591 23.2944L0.4778 23.5305L0.566882 24.0893L2.04818 23.8532ZM1.9591 23.2944L3.4404 23.0582C3.3964 22.7822 3.37989 22.5068 3.39049 22.2305L1.89159 22.173L0.392689 22.1155C0.374522 22.5893 0.403023 23.0614 0.4778 23.5305L1.9591 23.2944ZM1.89159 22.173L3.39049 22.2305L3.41206 21.668L1.91316 21.6105L0.41426 21.553L0.392689 22.1155L1.89159 22.173ZM1.91316 21.6105L3.41206 21.668L3.43363 21.1055L1.93473 21.048L0.435831 20.9905L0.41426 21.553L1.91316 21.6105ZM1.93473 21.048L3.43363 21.1055C3.44532 20.8005 3.47838 20.4942 3.53326 20.1861L2.05651 19.923L0.579759 19.6599C0.501032 20.1019 0.452896 20.5456 0.435831 20.9905L1.93473 21.048ZM2.05651 19.923L3.53326 20.1861L3.63347 19.6236L2.15672 19.3605L0.679966 19.0974L0.579759 19.6599L2.05651 19.923ZM2.15672 19.3605L3.63347 19.6236L3.73367 19.0611L2.25692 18.798L0.780174 18.5349L0.679966 19.0974L2.15672 19.3605ZM2.25692 18.798L3.73367 19.0611C3.85376 18.387 3.76814 17.724 3.51867 17.1031L2.12683 17.6623L0.734978 18.2216C0.792585 18.365 0.793696 18.459 0.780174 18.5349L2.25692 18.798ZM2.12683 17.6623L3.51867 17.1031L3.28837 16.5299L1.89652 17.0892L0.504672 17.6484L0.734978 18.2216L2.12683 17.6623ZM1.89652 17.0892L3.28837 16.5299L3.05806 15.9567L1.66621 16.516L0.274366 17.0752L0.504672 17.6484L1.89652 17.0892ZM1.66621 16.516L3.05806 15.9567C2.99843 15.8083 2.99174 15.6978 3.00718 15.598L1.52485 15.3684L0.0425235 15.1389C-0.060625 15.805 0.0269212 16.4594 0.274366 17.0752L1.66621 16.516ZM1.52485 15.3684L3.00718 15.598L3.09613 15.0236L1.6138 14.7941L0.131472 14.5645L0.0425235 15.1389L1.52485 15.3684ZM1.6138 14.7941L3.09613 15.0236L3.18508 14.4493L1.70275 14.2197L0.22042 13.9901L0.131472 14.5645L1.6138 14.7941ZM1.70275 14.2197L3.18508 14.4493C3.20664 14.3101 3.25777 14.1812 3.35545 14.0475L2.14413 13.1628L0.932804 12.2781C0.560579 12.7877 0.317459 13.3635 0.22042 13.9901L1.70275 14.2197ZM2.14413 13.1628L3.35545 14.0475L3.70788 13.565L2.49656 12.6803L1.28523 11.7956L0.932804 12.2781L2.14413 13.1628ZM2.49656 12.6803L3.70788 13.565L4.06031 13.0824L2.84898 12.1977L1.63766 11.313L1.28523 11.7956L2.49656 12.6803ZM2.84898 12.1977L4.06031 13.0824C4.34922 12.6868 4.59603 12.2731 4.7958 11.8408L3.4342 11.2115L2.0726 10.5822C1.96199 10.8215 1.81865 11.0652 1.63766 11.313L2.84898 12.1977ZM3.4342 11.2115L4.7958 11.8408L5.02859 11.3372L3.66699 10.7078L2.30539 10.0785L2.0726 10.5822L3.4342 11.2115ZM3.66699 10.7078L5.02859 11.3372L5.26138 10.8335L3.89978 10.2042L2.53818 9.57485L2.30539 10.0785L3.66699 10.7078ZM3.89978 10.2042L5.26138 10.8335C5.3558 10.6292 5.47611 10.4446 5.62476 10.2759L4.49927 9.28429L3.37378 8.29269C3.0335 8.67892 2.75415 9.10758 2.53818 9.57485L3.89978 10.2042ZM4.49927 9.28429L5.62476 10.2759L5.99146 9.85968L4.86597 8.86808L3.74048 7.87648L3.37378 8.29269L4.49927 9.28429ZM4.86597 8.86808L5.99146 9.85968L6.35816 9.44347L5.23267 8.45187L4.10719 7.46026L3.74048 7.87648L4.86597 8.86808ZM5.23267 8.45187L6.35816 9.44347C6.62734 9.13795 6.88488 8.82264 7.13073 8.49761L5.93442 7.59271L4.7381 6.68782C4.53723 6.95338 4.32694 7.21083 4.10719 7.46026L5.23267 8.45187ZM5.93442 7.59271L7.13073 8.49761L7.46577 8.05467L6.26946 7.14977L5.07314 6.24488L4.7381 6.68782L5.93442 7.59271ZM6.26946 7.14977L7.46577 8.05467L7.80081 7.61172L6.6045 6.70683L5.40818 5.80194L5.07314 6.24488L6.26946 7.14977ZM6.6045 6.70683L7.80081 7.61172C7.89055 7.49309 7.99631 7.40304 8.13104 7.33223L7.43322 6.00444L6.73539 4.67664C6.21189 4.95177 5.76517 5.32998 5.40818 5.80194L6.6045 6.70683ZM7.43322 6.00444L8.13104 7.33223L8.62472 7.07278L7.92689 5.74499L7.22907 4.41719L6.73539 4.67664L7.43322 6.00444ZM7.92689 5.74499L8.62472 7.07278L9.1184 6.81333L8.42057 5.48553L7.72275 4.15774L7.22907 4.41719L7.92689 5.74499ZM8.42057 5.48553L9.1184 6.81333C9.51659 6.60406 9.89544 6.36545 10.2541 6.09757L9.35657 4.89574L8.459 3.69392C8.22794 3.86649 7.9828 4.02107 7.72275 4.15774L8.42057 5.48553ZM9.35657 4.89574L10.2541 6.09757L10.6964 5.76723L9.79888 4.56541L8.90132 3.36358L8.459 3.69392L9.35657 4.89574ZM9.79888 4.56541L10.6964 5.76723L11.1388 5.4369L10.2412 4.23507L9.34364 3.03325L8.90132 3.36358L9.79888 4.56541ZM10.2412 4.23507L11.1388 5.4369C11.2966 5.31899 11.4659 5.23295 11.653 5.17512L11.2101 3.742L10.7672 2.30888C10.2522 2.46803 9.77552 2.7107 9.34364 3.03325L10.2412 4.23507ZM11.2101 3.742L11.653 5.17512L12.1796 5.01239L11.7367 3.57927L11.2938 2.14614L10.7672 2.30888L11.2101 3.742ZM11.7367 3.57927L12.1796 5.01239L12.7061 4.84966L12.2632 3.41654L11.8203 1.98341L11.2938 2.14614L11.7367 3.57927ZM12.2632 3.41654L12.7061 4.84966C13.2091 4.69422 13.6836 4.46065 14.129 4.16318L13.2959 2.91581L12.4628 1.66844C12.2334 1.82163 12.0195 1.92187 11.8203 1.98341L12.2632 3.41654ZM13.2959 2.91581L14.129 4.16318L14.635 3.82519L13.8019 2.57782L12.9688 1.33045L12.4628 1.66844L13.2959 2.91581ZM13.8019 2.57782L14.635 3.82519L15.1411 3.4872L14.308 2.23983L13.4749 0.992457L12.9688 1.33045L13.8019 2.57782ZM14.308 2.23983L15.1411 3.4872C15.3499 3.34775 15.5255 3.27662 15.6698 3.24314L15.3307 1.78196L14.9917 0.320768C14.4471 0.447131 13.9408 0.681254 13.4749 0.992457L14.308 2.23983ZM15.3307 1.78196L15.6698 3.24314L16.1865 3.12326L15.8475 1.66207L15.5084 0.200886L14.9917 0.320768L15.3307 1.78196ZM15.8475 1.66207L16.1865 3.12326L16.7032 3.00338L16.3642 1.54219L16.0251 0.0810037L15.5084 0.200886L15.8475 1.66207ZM16.3642 1.54219L16.7032 3.00338C16.837 2.97232 16.7081 3.02577 16.4701 2.98027C16.3302 2.95353 16.0344 2.86957 15.7686 2.59379C15.4741 2.28829 15.3809 1.92014 15.3809 1.64095H16.8809H18.3809C18.3809 1.28888 18.2661 0.861951 17.9285 0.511786C17.6196 0.19134 17.2593 0.0768073 17.0333 0.0336106C16.623 -0.0448108 16.2357 0.0321412 16.0251 0.0810037L16.3642 1.54219ZM16.8809 1.64095H15.3809V1.85959H16.8809H18.3809V1.64095H16.8809ZM16.8809 1.85959H15.3809V2.07823H16.8809H18.3809V1.85959H16.8809ZM16.8809 2.07823H15.3809C15.3809 2.46917 15.5197 2.87001 15.8142 3.18882C16.0783 3.47469 16.3834 3.60404 16.5838 3.66518C16.9587 3.77956 17.3331 3.76429 17.5684 3.74461L17.4434 2.24983L17.3183 0.755047C17.1787 0.766729 17.2717 0.738547 17.4592 0.795725C17.5658 0.828267 17.8006 0.917949 18.0178 1.15308C18.2655 1.42115 18.3809 1.76018 18.3809 2.07823H16.8809ZM17.4434 2.24983L17.5684 3.74461L18.1309 3.69756L18.0059 2.20278L17.8808 0.708L17.3183 0.755047L17.4434 2.24983Z" fill="#9DFFC7"/>
</svg>
