<svg width="80" height="57" viewBox="0 0 80 57" fill="none" xmlns="http://www.w3.org/2000/svg">
<path d="M77.8817 37.7688C79.4104 36.5857 79.6905 34.3874 78.5073 32.8588C77.3242 31.3301 75.1259 31.05 73.5973 32.2331L75.7395 35.001L77.8817 37.7688ZM75.6604 35.0622L77.6769 37.9229L77.7408 37.8779L77.8026 37.83L75.6604 35.0622ZM64.6325 45.4403L61.6429 43.6203L64.6325 45.4403ZM39.9081 50.2906L38.3769 53.4379L39.9081 50.2906ZM28.4264 33.3795L31.7761 32.365L28.4264 33.3795ZM18.7039 15.3535L15.404 16.52L18.7039 15.3535ZM15.1118 6.99449L18.1967 5.3412L18.1958 5.33953L15.1118 6.99449ZM13.2849 3.59008L10.1661 5.17858L10.1831 5.212L10.2009 5.24505L13.2849 3.59008ZM14.3216 0.172441C12.4833 -0.425163 10.5086 0.580619 9.91097 2.41892L0.172449 32.3757C-0.425155 34.214 0.580627 36.1887 2.41893 36.7863C4.25723 37.3839 6.23192 36.3782 6.82952 34.5399L15.486 7.91157L42.1143 16.568C43.9526 17.1656 45.9273 16.1599 46.5249 14.3216C47.1225 12.4833 46.1167 10.5086 44.2784 9.91096L14.3216 0.172441ZM75.7395 35.001L73.5973 32.2331L73.5182 32.2943L75.6604 35.0622L77.8026 37.83L77.8817 37.7688L75.7395 35.001ZM75.6604 35.0622L73.6439 32.2015C68.0386 36.1527 63.8782 39.9486 61.6429 43.6203L64.6325 45.4403L67.622 47.2604C69.0903 44.8487 72.2819 41.7258 77.6769 37.9229L75.6604 35.0622ZM64.6325 45.4403L61.6429 43.6203C60.2074 45.9783 58.298 47.4988 55.8305 48.321L56.9369 51.6415L58.0433 54.9621C62.1331 53.5993 65.3541 50.9857 67.622 47.2604L64.6325 45.4403ZM56.9369 51.6415L55.8305 48.321C52.7882 49.3348 50.4793 49.6708 48.7977 49.5597L48.5668 53.052L48.3359 56.5444C51.2572 56.7375 54.5284 56.1333 58.0433 54.9621L56.9369 51.6415ZM48.5668 53.052L48.7977 49.5597C47.1524 49.4509 44.7406 48.7495 41.4394 47.1434L39.9081 50.2906L38.3769 53.4379C42.0177 55.2093 45.3784 56.3489 48.3359 56.5444L48.5668 53.052ZM39.9081 50.2906L41.4394 47.1434C38.5784 45.7514 36.648 43.8627 35.4457 41.4973L32.3256 43.0833L29.2056 44.6692C31.1712 48.5361 34.2958 51.4523 38.3769 53.4379L39.9081 50.2906ZM32.3256 43.0833L35.4457 41.4973C33.9552 38.565 32.7322 35.5216 31.7761 32.365L28.4264 33.3795L25.0767 34.3941C26.1517 37.9435 27.5282 41.3694 29.2056 44.6692L32.3256 43.0833ZM28.4264 33.3795L31.7761 32.365C30.6336 28.5925 28.8397 25.164 26.4007 22.1033L23.6634 24.2844L20.9262 26.4656C22.8067 28.8255 24.1881 31.4604 25.0767 34.3941L28.4264 33.3795ZM23.6634 24.2844L26.4007 22.1033C24.4818 19.6952 23.0197 17.0607 22.0039 14.187L18.7039 15.3535L15.404 16.52C16.6814 20.1335 18.5256 23.453 20.9262 26.4656L23.6634 24.2844ZM18.7039 15.3535L22.0039 14.187C20.8147 10.8229 19.5495 7.86535 18.1967 5.3412L15.1118 6.99449L12.0269 8.64779C13.1705 10.7817 14.3 13.3968 15.404 16.52L18.7039 15.3535ZM15.1118 6.99449L18.1958 5.33953L16.3689 1.93512L13.2849 3.59008L10.2009 5.24505L12.0278 8.64946L15.1118 6.99449ZM13.2849 3.59008L16.4036 2.00158L16.3583 1.91248L13.2395 3.50098L10.1207 5.08948L10.1661 5.17858L13.2849 3.59008Z" fill="white"/>
</svg>
