<svg width="207" height="158" viewBox="0 0 207 158" fill="none" xmlns="http://www.w3.org/2000/svg">
<path d="M37.5389 4.95468C42.8515 5.03729 49.4285 5.0379 54.6846 5.15224C54.7583 5.15387 54.832 5.1555 54.9057 5.15713C57.0539 5.20463 59.2427 5.26269 61.891 5.33464C62.2283 5.3438 62.574 5.35332 62.9271 5.36294C66.0664 5.44852 69.9228 5.55421 75.1777 5.68838C92.8231 6.14876 106.736 6.16849 111.063 6.15704C119.742 6.14625 129.001 6.23817 141.635 6.35701C142.79 6.36779 143.974 6.37925 145.188 6.39028C146.171 6.39911 146.985 6.50675 147.008 6.63118C147.03 6.75566 146.251 6.84832 145.267 6.83793C144.079 6.82551 142.92 6.81326 141.791 6.80118C141.786 6.80112 141.781 6.80107 141.776 6.80101C129.063 6.66387 120.006 6.55995 111.531 6.55756C107.109 6.56264 92.8549 6.51931 74.7741 6.01477C69.4633 5.86961 65.5636 5.75597 62.4052 5.66401C62.0594 5.65394 61.7224 5.64404 61.3948 5.63453C61.3871 5.63429 61.3794 5.63405 61.3717 5.63381C58.7061 5.55646 56.6093 5.49675 54.5535 5.44731C54.5098 5.44633 54.4661 5.44535 54.4224 5.44436C49.1071 5.3184 42.6555 5.30705 37.5029 5.21624C36.5192 5.19906 35.7291 5.12747 35.7392 5.05642C35.7498 4.98541 36.5557 4.93995 37.5389 4.95468ZM147.7 151.542C142.571 151.76 135.747 151.741 129.722 151.654C123.654 151.565 118.163 151.403 115.579 151.303C113.052 151.206 110.246 151.178 106.897 151.165C106.129 151.162 105.332 151.159 104.508 151.157C101.787 151.149 98.7588 151.14 95.4352 151.104C83.226 150.97 75.2663 150.991 69.5816 151.023C68.4123 151.03 67.3243 151.037 66.3062 151.044C66.3044 151.044 66.3027 151.044 66.301 151.044C62.4577 151.071 59.5902 151.091 56.953 151.04C52.259 150.949 48.4258 150.868 43.8 150.706C37.4202 150.483 28.3332 150.568 22.4198 150.767C22.0953 150.777 21.7633 150.789 21.4275 150.8C20.4805 150.832 19.4851 150.866 18.4237 150.9C15.3561 151.018 11.0149 150.03 7.76515 145.684C6.1188 143.423 5.35924 140.785 5.34449 138.304C5.32255 135.353 5.31597 132.597 5.31415 130.011C5.31313 128.558 5.31396 127.171 5.31423 125.839C5.31495 122.477 5.31442 119.469 5.28769 116.635C5.12333 99.0598 5.13372 88.9243 5.19165 82.5541C5.23693 77.6549 5.31525 74.9181 5.37048 72.9438C5.38716 72.3472 5.40201 71.8202 5.4128 71.3241C5.50853 66.9001 5.52605 62.8385 5.54253 57.9525C5.54609 56.8682 5.54954 55.74 5.55336 54.5614C5.56583 50.6193 5.52004 47.6816 5.47026 45.378C5.44837 44.3704 5.4257 43.4837 5.4042 42.6476C5.40376 42.6322 5.40332 42.6168 5.40288 42.6013C5.39988 42.4848 5.39705 42.3691 5.39412 42.2543C5.39191 42.1676 5.38936 42.0812 5.38718 41.9946C5.38519 41.9605 5.38381 41.93 5.38263 41.9072C5.38171 41.8891 5.38103 41.8751 5.38059 41.866C5.38044 41.8643 5.38029 41.8626 5.38014 41.8609C5.37214 41.6968 5.36812 41.5556 5.36727 41.5267C5.3658 41.4761 5.36489 41.4313 5.36434 41.4084C5.36148 41.2874 5.35885 41.1315 5.35722 41.0279C5.35301 40.7615 5.34633 40.2987 5.3366 39.583C5.32486 38.96 5.31026 38.3621 5.29195 37.6137C5.29077 37.5665 5.28959 37.5194 5.28841 37.4723C5.27055 36.7424 5.24997 35.8882 5.22727 34.8165C5.20676 33.8413 5.25577 32.9444 5.33637 32.8137C5.417 32.6834 5.50033 33.3683 5.52303 34.3434C5.54635 35.3532 5.56727 36.1532 5.58651 36.8835C5.58776 36.9298 5.58902 36.9761 5.59027 37.0223C5.61033 37.7838 5.62933 38.5051 5.64524 39.2822C5.65056 39.5424 5.65559 39.8106 5.66001 40.0612C5.66998 40.5123 5.68359 41.0256 5.70041 41.6398C5.70378 41.7631 5.70707 41.8903 5.71065 42.0203C5.73365 42.8549 5.76061 43.8267 5.78644 44.9229C5.84661 47.4885 5.90262 50.7392 5.89646 55.0294C5.89475 56.1544 5.89339 57.2449 5.89176 58.3099C5.88382 63.215 5.87281 67.5793 5.77798 72.2754C5.7649 72.9197 5.74851 73.5377 5.73095 74.1984C5.6788 76.1569 5.61493 78.4953 5.58021 83.0246C5.5344 89.0929 5.53849 98.9873 5.72649 116.462C5.75873 119.437 5.76356 122.646 5.76733 126.065C5.76879 127.37 5.77057 128.708 5.77331 130.073C5.77851 132.657 5.78861 135.389 5.8143 138.304C5.83357 140.597 6.50704 143.012 7.95856 145.12C11.1289 149.566 15.4194 150.512 18.4237 150.392C19.2005 150.365 19.9445 150.34 20.6639 150.315C20.8113 150.309 20.9587 150.304 21.1061 150.299C21.2892 150.292 21.4709 150.286 21.6511 150.28C27.9524 150.061 37.6212 149.956 44.669 150.197C49.0917 150.348 52.7604 150.422 57.4286 150.509C59.7244 150.552 62.1774 150.533 65.9437 150.504C67.0009 150.496 68.1632 150.487 69.453 150.479C75.2395 150.442 83.3207 150.414 95.6665 150.542C98.8853 150.576 101.782 150.582 104.488 150.589C105.328 150.591 106.153 150.593 106.961 150.596C110.326 150.607 113.458 150.633 116.378 150.744C118.778 150.836 124.093 150.992 129.994 151.076C135.938 151.16 142.248 151.168 146.757 150.975C147.226 150.955 147.698 150.935 148.171 150.915C152.238 150.743 156.386 150.567 159.725 150.277C167.165 149.376 177.607 149.083 188.424 149.041C188.424 149.041 188.424 149.041 188.424 149.041C194.292 149.192 199.448 143.732 199.317 138.304C199.348 135.607 199.377 133.025 199.395 130.612C199.397 130.377 199.398 130.142 199.4 129.907C199.554 109.268 199.586 94.2676 199.596 89.1548C199.597 88.9163 199.597 88.6994 199.598 88.5043C199.598 88.3302 199.598 88.1727 199.598 88.0339C199.603 85.951 199.589 84.1082 199.575 82.1772C199.574 82.0718 199.573 81.9664 199.573 81.861C199.557 79.8206 199.544 77.6792 199.555 75.1482C199.599 65.7365 199.608 58.0643 199.614 51.4259C199.615 50.1969 199.617 49.0019 199.618 47.8369C199.618 47.8334 199.618 47.83 199.618 47.8266C199.623 42.7138 199.63 38.1782 199.654 33.874C199.694 27.0653 199.7 22.1734 199.696 18.3044C199.695 17.8553 199.668 17.4293 199.621 17.0211C199.509 16.0545 199.284 15.1858 198.989 14.3968C198.344 12.6925 197.409 11.3494 196.235 10.1964C194.03 8.05365 191.203 7.02972 188.424 7.03727C188.376 7.03731 188.328 7.03735 188.279 7.03739C187.947 7.03767 187.614 7.03765 187.282 7.03788C183.233 7.04069 179.224 7.0388 174.985 7.00169C174.001 6.993 173.186 6.87721 173.165 6.74379C173.145 6.61049 173.927 6.50854 174.91 6.51589C179.028 6.54711 182.939 6.545 186.986 6.53784C187.32 6.53726 187.656 6.53637 187.992 6.53573C188.135 6.53546 188.279 6.53518 188.424 6.53491C191.248 6.52064 194.195 7.54757 196.504 9.74482C197.698 10.894 198.652 12.199 199.364 13.9269C199.699 14.7526 199.97 15.6824 200.114 16.7435C200.181 17.2384 200.219 17.7549 200.221 18.3044C200.228 22.1886 200.226 27.0756 200.193 33.802C200.172 38.0543 200.168 42.5318 200.167 47.6415C200.167 48.8138 200.167 50.02 200.166 51.264C200.165 57.919 200.16 65.6308 200.122 75.0942C200.113 77.4856 200.126 79.5157 200.142 81.5473C200.143 81.6613 200.144 81.7753 200.145 81.8893C200.16 83.8033 200.176 85.7488 200.172 87.949C200.171 88.243 200.17 88.6183 200.17 89.0699C200.161 94.1904 200.138 109.251 199.987 129.966C199.987 130.031 199.986 130.095 199.986 130.159C199.964 133.14 199.945 135.841 199.929 138.304C199.629 145.426 194.716 148.425 191.548 149.435C190.46 149.777 189.409 149.925 188.424 149.947C188.424 149.947 188.424 149.947 188.424 149.947C185.722 149.993 183.486 150.011 181.539 150.021C180.995 150.023 180.48 150.026 179.989 150.028C177.867 150.038 176.191 150.046 174.515 150.087C169.447 150.214 165.812 150.419 161.414 150.799C157.685 151.122 153.118 151.314 149.117 151.482C149.111 151.482 149.105 151.483 149.099 151.483C148.624 151.503 148.157 151.522 147.7 151.542ZM4.87832 20.6967C4.87029 19.7135 4.92445 18.9242 4.9996 18.9331C5.07482 18.9431 5.14449 19.749 5.15485 20.7327C5.17909 23.0766 5.20272 25.4204 5.22574 27.7643C5.23554 28.7474 5.17759 29.537 5.09631 29.528C5.01495 29.5179 4.9428 28.7119 4.93518 27.7283C4.91678 25.3845 4.89783 23.0406 4.87832 20.6967ZM151.803 154.456C150.844 154.489 149.888 154.386 149.67 154.227C149.453 154.069 150.055 153.914 151.014 153.882C151.521 153.864 152.355 153.833 153.477 153.791C159.206 153.576 172.471 153.073 188.424 152.706C188.424 152.706 188.424 152.706 188.424 152.706C194.756 152.71 201.1 147.679 202.216 141.003C202.387 140.071 202.454 139.17 202.444 138.304C202.434 137.348 202.423 136.432 202.413 135.538C202.328 128.017 201.914 121.979 201.944 107.594C202.006 77.819 202.246 48.0559 202.415 18.3044C202.647 10.8546 195.942 4.04515 188.424 4.1938C165.596 4.09586 142.775 4.07027 119.961 4.13623C102.52 4.18473 85.1331 4.12336 67.6782 4.04363C53.1297 3.96957 26.4622 3.72055 20.1874 3.69202C19.2096 3.68635 18.4237 3.63292 18.4237 3.57242C18.4237 3.57242 18.4237 3.57242 18.4237 3.57242C18.4237 3.57204 18.4237 3.57165 18.4238 3.57127C18.4343 3.51033 19.2398 3.46357 20.2234 3.46679C26.4538 3.48104 53.0327 3.67415 67.5266 3.72147C84.9479 3.76844 102.299 3.80047 119.707 3.72556C142.592 3.62565 165.502 3.54425 188.424 3.49919C196.308 3.2897 203.448 10.397 203.264 18.3044C203.295 48.0928 203.268 77.8924 203.229 107.673C203.212 121.919 202.914 127.717 203 135.211C203.011 136.205 203.023 137.228 203.035 138.304C203.044 139.117 202.988 139.961 202.845 140.835C201.803 147.931 195.098 153.319 188.424 153.304C188.424 153.304 188.424 153.304 188.424 153.304C172.95 153.664 160.093 154.15 154.367 154.363C153.209 154.406 152.34 154.438 151.803 154.456ZM106.048 154.184C95.0641 154.218 79.4499 154.125 65.8048 154.046C59.1503 154.008 52.964 153.972 48.0112 153.954C40.3377 153.926 35.5069 153.796 30.7163 153.672C30.6649 153.671 30.6135 153.669 30.5621 153.668C26.9481 153.574 23.332 153.483 18.4237 153.436C16.8156 153.42 15.0683 153.161 13.2599 152.499C8.44149 150.892 3.23005 145.4 3.26805 138.304C3.24678 134.611 3.22227 130.779 3.19869 126.937C3.1987 126.928 3.19871 126.919 3.19871 126.911C3.12812 116.002 2.85738 104.937 2.89232 96.9412C3.00961 69.0768 3.27963 51.8955 3.44585 43.2081C3.60071 35.2841 3.56895 26.8057 3.56351 18.3044C3.35101 10.4023 10.506 3.46975 17.9209 3.5684C19.6152 3.66204 16.7226 3.53753 13.8071 4.50555C13.702 4.53971 13.5973 4.57504 13.4932 4.61151C12.5033 4.96597 11.6545 5.34736 10.5551 6.04031C8.97462 7.06779 7.97913 8.08474 7.16753 9.06795C6.4227 9.96337 3.8548 13.3439 3.87807 18.3044C3.88139 26.9568 3.85778 38.5405 3.76005 43.9125C3.60584 52.1573 3.80845 68.9779 3.80272 97.0209C3.80149 104.869 3.5743 115.712 3.65264 126.679C3.65285 126.709 3.65305 126.739 3.65326 126.769C3.68222 130.649 3.71217 134.541 3.73844 138.304C3.70591 145.124 8.7178 150.467 13.4185 152.034C15.1638 152.673 16.8585 152.925 18.4237 152.939C23.611 152.981 27.4094 153.073 31.1148 153.166C31.162 153.167 31.2091 153.168 31.2562 153.17C36.0023 153.288 40.6107 153.408 48.0009 153.428C53.0627 153.441 59.3212 153.471 66.0182 153.505C79.6048 153.572 95.0012 153.655 105.891 153.615C106.874 153.612 107.707 153.737 107.75 153.894C107.793 154.051 107.03 154.181 106.048 154.184ZM105.822 157.726C76.6247 158.204 47.2737 157.823 18.4237 157.073C16.3686 157.032 14.3222 156.651 12.4002 155.946C6.32836 154.031 -0.193091 147.076 0.00437546 138.304C0.0505912 134.569 0.0994995 130.7 0.149072 126.834C0.150833 126.709 0.152595 126.584 0.154358 126.458C0.294754 115.508 0.440033 104.606 0.539476 96.7792C0.894392 68.915 1.1838 51.6694 1.45477 42.9818C1.70715 34.8815 1.72647 32.6328 1.76567 29.2992C1.7668 29.2083 1.76793 29.1175 1.76906 29.0267C1.76889 29.0207 1.76872 29.0147 1.76854 29.0087C1.76605 28.8944 1.76497 28.7984 1.76459 28.749C1.76381 28.6483 1.76402 28.5663 1.7641 28.5356C1.76427 28.4646 1.76489 28.4051 1.76508 28.3839C1.76584 28.2973 1.76701 28.1983 1.76788 28.1345C1.77598 27.5409 1.80569 25.6818 1.83388 24.2087C1.86278 22.6991 1.88998 21.623 1.91904 20.4885C1.922 20.3737 1.92497 20.2588 1.92793 20.144C1.94236 19.5804 1.95742 18.9896 1.97379 18.3044C1.98762 17.6907 2.03299 17.0141 2.14638 16.2338C2.30171 15.175 2.57229 14.4592 2.60713 14.6027C2.64581 14.7471 2.46903 15.6874 2.35342 16.7317C2.28783 17.3029 2.25751 17.8231 2.24794 18.3044C2.2276 19.2619 2.20939 20.0364 2.19278 20.7379C2.19005 20.8519 2.18732 20.9658 2.18458 21.0798C2.15888 22.1657 2.1371 23.1172 2.11404 24.4555C2.08738 26.3933 2.07344 27.8339 2.06098 29.1501C2.02694 32.6012 2.0091 35.2001 1.75996 43.6837C1.51748 51.9282 1.2651 68.7248 0.950601 96.7689C0.862971 104.611 0.73349 115.525 0.607776 126.466C0.606339 126.595 0.604902 126.723 0.603466 126.852C0.559095 130.715 0.515193 134.576 0.473658 138.304C0.288514 146.856 6.64625 153.616 12.5471 155.477C14.4348 156.141 16.4308 156.482 18.4237 156.495C47.6032 156.747 76.2788 156.663 105.662 157.157C111.375 157.156 116.595 157.164 121.433 157.17C135.668 157.187 146.593 157.189 157.007 156.845C159.29 156.77 165.275 156.711 173.924 156.632C176.459 156.609 179.239 156.585 182.244 156.557C184.208 156.54 186.27 156.521 188.424 156.5C188.424 156.5 188.424 156.5 188.424 156.5C195.573 156.624 203.757 151.424 205.843 142.834C206.236 141.257 206.388 139.741 206.374 138.304C206.366 137.675 206.358 137.061 206.351 136.458C206.257 128.937 206.184 123 206.178 108.614C206.173 90.9143 206.235 61.2576 206.272 45.397C206.293 37.4533 206.32 32.9689 206.344 29.7964C206.351 28.9131 206.358 28.1363 206.364 27.4234C206.379 25.5612 206.391 24.1151 206.393 22.2198C206.395 20.8784 206.396 19.5765 206.395 18.3044C206.361 8.39149 198.405 0.438027 188.424 0.502083C184.934 0.545277 181.204 0.596061 177.044 0.653889C176.063 0.667401 175.208 0.570168 175.134 0.437058C175.06 0.303923 175.796 0.1838 176.777 0.168865C181.032 0.104757 184.847 0.0485611 188.424 0.000627279C198.612 -0.0866103 206.879 8.0592 206.919 18.3044C206.921 19.6046 206.922 20.9356 206.921 22.3072C206.92 24.286 206.909 25.8344 206.895 27.7294C206.889 28.432 206.884 29.1823 206.878 30.0201C206.856 33.1399 206.834 37.5773 206.819 45.4793C206.794 61.3115 206.75 90.925 206.76 108.571C206.771 122.816 206.843 128.637 206.938 136.131C206.946 136.838 206.956 137.56 206.965 138.304C206.978 139.674 206.845 141.12 206.501 142.626C204.489 151.693 195.9 157.233 188.424 157.093C188.424 157.093 188.424 157.093 188.424 157.093C186.361 157.113 184.385 157.131 182.498 157.148C179.497 157.175 176.724 157.199 174.199 157.222C165.376 157.301 159.752 157.358 157.796 157.422C147.017 157.776 135.617 157.77 121.25 157.746C116.466 157.738 111.351 157.728 105.822 157.726ZM120.627 0.974299C121.609 0.959902 122.46 1.04067 122.53 1.15454C122.599 1.26838 121.86 1.3711 120.879 1.38379C115.695 1.45144 111.969 1.50276 109.055 1.5427C103.663 1.61665 101.057 1.65151 97.1543 1.67713C87.0791 1.74334 77.3509 1.81605 68.5986 1.88499C54.0505 1.99961 42.1937 2.10304 35.9192 2.14766C34.9353 2.15449 34.1454 2.10301 34.1555 2.03261C34.1664 1.96227 34.972 1.89773 35.9551 1.88851C42.1855 1.83128 53.9531 1.70468 68.447 1.5634C77.2094 1.478 86.9696 1.38709 97.108 1.3034C100.893 1.2722 103.354 1.23552 108.626 1.15473C111.536 1.11015 115.305 1.0519 120.627 0.974299Z" fill="white"/>
</svg>
