<svg width="32" height="31" viewBox="0 0 32 31" fill="none" xmlns="http://www.w3.org/2000/svg">
<circle cx="16.2289" cy="16.2656" r="12.5" fill="#181717" fill-opacity="0.2"/>
<path d="M14.9008 0C16.2853 0.0710323 17.0953 1.23288 17.4321 1.84375L17.9321 2.75L18.2602 3.375L18.2914 3.35938C18.6367 3.31556 18.985 3.31869 19.3227 3.375L20.2914 3.6875L20.4789 3.78125L21.3227 3.21875L22.2289 2.625L23.1508 2.1875C23.5062 2.082 24.1801 1.97404 24.8852 2.32812C25.6366 2.70827 25.9439 3.37168 26.0571 3.8125C26.1648 4.23225 26.1612 4.63369 26.1352 4.90625L26.0258 5.89062L25.9321 6.89062C25.9139 7.08122 25.9182 7.23873 25.9164 7.35938L26.3852 7.29688L27.4946 7.14062H28.5571C28.9404 7.20903 29.8231 7.46521 30.2446 8.42188C30.6249 9.28573 30.3106 10.0517 30.1821 10.3281C30.0237 10.6671 29.8124 10.9618 29.6352 11.1719L28.8539 12.0938L28.7289 12.2188C29.152 12.569 29.5331 12.9868 29.7758 13.5312L29.9789 14L30.1821 14.4531C30.3044 14.7291 30.4412 15.0464 30.5102 15.2656L30.5571 15.3906L30.5883 15.5312C30.693 15.8643 30.7497 16.3188 30.7758 16.5938L30.8227 17.0938L30.8696 17.6094C30.9021 17.9528 30.9291 18.3149 30.9633 18.6875L31.0102 19.25L31.0727 19.7969C31.1477 20.6147 30.8334 21.4182 30.1821 21.9688C29.7532 22.3302 29.2593 22.4828 28.8539 22.5781L29.1508 23.0312C29.295 23.2602 29.4833 23.6023 29.5883 24C29.6807 24.3515 29.8339 25.2927 29.1039 26.0938C28.4359 26.8228 27.5611 26.8259 27.2758 26.8125C26.9045 26.7948 26.5559 26.7086 26.2914 26.625L23.9164 25.875L23.9008 25.8594L23.7602 26.4531L23.6039 27.0625C23.4927 27.4908 23.2678 28.0261 22.8071 28.4688C22.3107 28.9443 21.6927 29.1644 21.0883 29.1875L20.5883 29.2031H20.2758L19.9633 29.4688L19.5414 29.8125C19.0075 30.2547 18.3778 30.5605 17.6664 30.6719L16.6664 30.8281C15.2912 31.0429 14.3319 30.2254 13.8227 29.5L13.8071 29.4844L13.6039 29.6562C13.3188 29.8781 12.3475 30.5822 11.1508 30.125C9.98159 29.6772 9.70781 28.5433 9.63519 28.1875L9.60394 28.0938L9.55707 28.125C9.14018 28.2763 8.54873 28.4241 7.90082 28.3125C7.15463 28.1816 6.52147 27.7376 6.13519 27.1094L5.86957 26.6562L5.58832 26.2031C5.38062 25.8651 5.18607 25.5278 5.01019 25.1875L4.77582 24.7344L4.54144 24.2969C4.07831 23.3998 4.14144 22.4643 4.38519 21.7031L4.58832 21.0781L4.72894 20.6406L4.61957 20.4219C4.59082 20.4021 4.54502 20.373 4.49457 20.3438L3.88519 19.9844L3.27582 19.6406C2.67749 19.2936 2.13577 18.8499 1.68207 18.3281L1.22894 17.7969L0.760193 17.2656C0.434849 16.8902 0.118115 16.366 0.0258179 15.7031C-0.0703487 15.0098 0.111666 14.3797 0.416443 13.875L0.728943 13.3438L1.05707 12.8281L1.07269 12.7969V12.2031L1.05707 11.625C1.04953 10.6463 1.46475 9.77588 2.18207 9.14062L3.05707 8.35938C3.50435 7.96326 4.01118 7.63387 4.55707 7.39062L5.08832 7.15625L5.63519 6.92188C6.15705 6.68986 6.70096 6.55855 7.26019 6.51562L7.18207 5.82812C7.15451 5.57236 7.13944 5.19711 7.22894 4.79688C7.32127 4.38806 7.6062 3.68926 8.36957 3.28125C9.0929 2.89665 9.78396 3.01601 10.1352 3.125C10.3775 3.20117 10.5806 3.34753 10.7602 3.45312L10.7914 3.21875C10.8531 2.71562 10.991 2.12745 11.2914 1.59375C11.6215 1.00838 12.2158 0.399155 13.1352 0.234375L13.6977 0.140625L14.2758 0.03125L14.9008 0ZM14.4789 6.01562C14.4419 6.31427 14.3809 6.67787 14.2289 7.03125C14.076 7.3854 13.7747 7.85351 13.2289 8.1875C12.5104 8.62722 11.8294 8.55579 11.2914 8.39062C11.2415 8.64511 11.1994 8.92685 11.0571 9.1875C10.5702 10.0744 9.69867 10.4519 8.90082 10.4688L8.26019 10.4844H7.63519C7.47478 10.4881 7.3555 10.5209 7.26019 10.5625L6.71332 10.8125L6.18207 11.0469C6.01306 11.1222 5.85645 11.2175 5.71332 11.3438L5.27582 11.7344L5.05707 11.9219L5.07269 12.1719V12.75C5.07873 13.526 4.85636 14.2587 4.46332 14.9062L4.27582 15.2031L4.71332 15.7031C4.87386 15.8874 5.05617 16.0441 5.27582 16.1719L5.90082 16.5312L6.51019 16.8906C6.77766 17.0459 7.07384 17.2467 7.35394 17.5L8.08832 18.4219L8.46332 19.1719C8.94158 20.0975 8.79454 21.0443 8.58832 21.6875L8.40082 22.2969L8.24457 22.75L8.32269 22.9062L8.55707 23.3438C8.67765 23.5773 8.81527 23.8192 8.96332 24.0625L9.68207 23.8281L10.6821 23.6406C11.0738 23.6349 11.5107 23.707 11.9477 23.9531C12.5134 24.2729 12.8063 24.7561 12.9946 25.1875C13.3673 25.0075 13.8288 24.8584 14.3696 24.9062C14.8448 24.9494 15.2397 25.1109 15.5571 25.3281L16.2758 26.0625L16.6821 26.625L16.7758 26.75L16.9946 26.7188L17.4164 26.3906L17.8227 26.0469C18.4099 25.5597 19.137 25.2476 19.9477 25.2188L20.0571 24.8281C20.2105 24.2377 20.4919 23.5339 21.0727 22.9844L21.6664 22.4219L22.2289 22.0156C22.8059 21.7275 23.3883 21.7319 23.6821 21.75C23.7857 21.7565 23.89 21.7981 23.9946 21.8125C23.9544 21.5283 23.9349 21.2166 24.0102 20.8906C24.3267 19.5278 25.5319 19.1181 26.1352 19.0156L26.9633 18.8594C26.9357 18.5598 26.9117 18.2637 26.8852 17.9844L26.8383 17.4844L26.7914 16.9688C26.7768 16.8143 26.7538 16.707 26.7446 16.6406V16.625L26.7289 16.5938L26.6977 16.4688V16.4844C26.6918 16.4694 26.6798 16.4385 26.6664 16.4062C26.6343 16.3289 26.5883 16.219 26.5258 16.0781L26.3227 15.625L26.1508 15.25L25.6821 14.9531L25.1977 14.625C24.8175 14.3817 24.4351 14.0019 24.2289 13.4531C24.0298 12.9203 24.0631 12.4123 24.1508 12.0312C24.2056 11.7945 24.3001 11.5785 24.4008 11.375C24.3345 11.363 24.2639 11.3759 24.1977 11.3594C23.5536 11.1978 22.7061 10.7332 22.3852 9.70312L22.2289 9.23438L22.0883 8.76562C21.9639 8.36541 21.9225 7.93039 21.9164 7.5C21.7189 7.5964 21.537 7.73253 21.3227 7.79688C20.8625 7.93495 20.1101 8.05193 19.3383 7.67188L18.9321 7.46875L18.6664 7.32812L18.3383 7.375L17.8852 7.4375C16.9693 7.55374 16.2577 7.13609 15.8383 6.76562C15.4376 6.41058 15.1481 5.96922 14.9321 5.57812L14.6039 4.96875L14.4789 6.01562Z" fill="white"/>
</svg>
