<svg width="156" height="45" viewBox="0 0 156 45" fill="none" xmlns="http://www.w3.org/2000/svg">
<path d="M3 19.0918C1.34315 19.0918 0 20.4349 0 22.0918C0 23.7487 1.34315 25.0918 3 25.0918V22.0918V19.0918ZM3.1 22.0918V25.0918H3.35614L3.60857 25.0484L3.1 22.0918ZM6.05 21.5844L5.54143 18.6278L6.05 21.5844ZM31.5 19.9968L30.5082 17.1655L31.5 19.9968ZM79.5 23.5955L79.2252 26.5829L79.5 23.5955ZM100.5 20.3752L99.5259 23.2127L100.5 20.3752ZM127.5 22.4424L126.442 25.2496L127.5 22.4424ZM139.5 23.7407L139.413 20.742L139.5 23.7407ZM153 22.4338H156V22.0042L155.879 21.5918L153 22.4338ZM152.9 22.0918V19.0918H148.897L150.021 22.9338L152.9 22.0918ZM155.121 24.2131C156.293 23.0415 156.293 21.142 155.121 19.9705L136.029 0.878593C134.858 -0.29298 132.958 -0.29298 131.787 0.878593C130.615 2.05017 130.615 3.94966 131.787 5.12123L148.757 22.0918L131.787 39.0624C130.615 40.2339 130.615 42.1334 131.787 43.305C132.958 44.4766 134.858 44.4766 136.029 43.305L155.121 24.2131ZM3 22.0918V25.0918H3.1V22.0918V19.0918H3V22.0918ZM3.1 22.0918L3.60857 25.0484L6.55857 24.5409L6.05 21.5844L5.54143 18.6278L2.59143 19.1352L3.1 22.0918ZM6.05 21.5844L6.55857 24.5409C8.23766 24.2521 8.78233 24.5386 8.83447 24.5734L10.5 22.0782L12.1655 19.583C10.2177 18.2828 7.79567 18.24 5.54143 18.6278L6.05 21.5844ZM10.5 22.0782L8.83447 24.5734L10.3345 25.5746L12 23.0794L13.6655 20.5842L12.1655 19.583L10.5 22.0782ZM12 23.0794L10.3345 25.5746L11.8345 26.5759L13.5 24.0807L15.1655 21.5855L13.6655 20.5842L12 23.0794ZM13.5 24.0807L11.8345 26.5759C12.7018 27.1548 13.7297 27.5636 14.8856 27.6077C16.0489 27.6521 17.1123 27.3182 18.0267 26.7776L16.5 24.1951L14.9733 21.6127C14.9242 21.6417 14.9172 21.6382 14.9505 21.629C14.9868 21.619 15.0449 21.6094 15.1144 21.6121C15.1833 21.6147 15.2307 21.6281 15.2482 21.6342C15.2626 21.6393 15.235 21.6319 15.1655 21.5855L13.5 24.0807ZM16.5 24.1951L18.0267 26.7776L19.5267 25.8909L18 23.3084L16.4733 20.7259L14.9733 21.6127L16.5 24.1951ZM18 23.3084L19.5267 25.8909L21.0267 25.0041L19.5 22.4216L17.9733 19.8391L16.4733 20.7259L18 23.3084ZM19.5 22.4216L21.0267 25.0041C21.6355 24.6442 22.1071 24.542 22.4808 24.5444L22.5 21.5444L22.5192 18.5445C20.8929 18.5341 19.3645 19.0167 17.9733 19.8391L19.5 22.4216ZM22.5 21.5444L22.4808 24.5444L23.9808 24.554L24 21.554L24.0192 18.5541L22.5192 18.5445L22.5 21.5444ZM24 21.554L23.9808 24.554L25.4808 24.5635L25.5 21.5636L25.5192 18.5637L24.0192 18.5541L24 21.554ZM25.5 21.5636L25.4808 24.5635C26.8451 24.5722 28.1865 24.3363 29.4918 23.879L28.5 21.0477L27.5082 18.2164C26.8135 18.4598 26.1549 18.5677 25.5192 18.5637L25.5 21.5636ZM28.5 21.0477L29.4918 23.879L30.9918 23.3535L30 20.5222L29.0082 17.6909L27.5082 18.2164L28.5 21.0477ZM30 20.5222L30.9918 23.3535L32.4918 22.8281L31.5 19.9968L30.5082 17.1655L29.0082 17.6909L30 20.5222ZM31.5 19.9968L32.4918 22.8281C33.0136 22.6453 33.4772 22.6172 33.9359 22.705L34.5 19.7585L35.0641 16.812C33.5228 16.5169 31.9864 16.6476 30.5082 17.1655L31.5 19.9968ZM34.5 19.7585L33.9359 22.705L35.4359 22.9922L36 20.0457L36.5641 17.0992L35.0641 16.812L34.5 19.7585ZM36 20.0457L35.4359 22.9922L36.9359 23.2793L37.5 20.3329L38.0641 17.3864L36.5641 17.0992L36 20.0457ZM37.5 20.3329L36.9359 23.2793C37.8847 23.461 38.8343 23.6684 39.7848 23.9018L40.5 20.9883L41.2152 18.0748C40.1657 17.8171 39.1153 17.5876 38.0641 17.3864L37.5 20.3329ZM40.5 20.9883L39.7848 23.9018L41.2848 24.27L42 21.3565L42.7152 18.443L41.2152 18.0748L40.5 20.9883ZM42 21.3565L41.2848 24.27L42.7848 24.6382L43.5 21.7247L44.2152 18.8112L42.7152 18.443L42 21.3565ZM43.5 21.7247L42.7848 24.6382C43.8247 24.8934 44.8652 25.1262 45.9062 25.3364L46.5 22.3958L47.0938 19.4551C46.1348 19.2615 45.1753 19.0468 44.2152 18.8112L43.5 21.7247ZM46.5 22.3958L45.9062 25.3364L47.4062 25.6393L48 22.6987L48.5938 19.758L47.0938 19.4551L46.5 22.3958ZM48 22.6987L47.4062 25.6393L48.9062 25.9422L49.5 23.0015L50.0938 20.0609L48.5938 19.758L48 22.6987ZM49.5 23.0015L48.9062 25.9422C50.5649 26.2771 52.1993 26.0544 53.7252 25.3717L52.5 22.6333L51.2748 19.8949C50.8007 20.107 50.4351 20.1298 50.0938 20.0609L49.5 23.0015ZM52.5 22.6333L53.7252 25.3717L55.2252 24.7005L54 21.9621L52.7748 19.2238L51.2748 19.8949L52.5 22.6333ZM54 21.9621L55.2252 24.7005L56.7252 24.0294L55.5 21.291L54.2748 18.5526L52.7748 19.2238L54 21.9621ZM55.5 21.291L56.7252 24.0294C56.7553 24.0159 56.7537 24.0207 56.7245 24.0254C56.6937 24.0303 56.6566 24.0312 56.6218 24.0268C56.5884 24.0225 56.5801 24.0163 56.6017 24.0253C56.6252 24.035 56.6839 24.0628 56.777 24.1281L58.5 21.6722L60.223 19.2163C58.4778 17.992 56.3647 17.6175 54.2748 18.5526L55.5 21.291ZM58.5 21.6722L56.777 24.1281L58.277 25.1804L60 22.7246L61.723 20.2687L60.223 19.2163L58.5 21.6722ZM60 22.7246L58.277 25.1804L59.777 26.2328L61.5 23.7769L63.223 21.3211L61.723 20.2687L60 22.7246ZM61.5 23.7769L59.777 26.2328C60.7372 26.9064 61.9475 27.3517 63.315 27.2073C64.6393 27.0675 65.7115 26.4162 66.5225 25.676L64.5 23.4602L62.4775 21.2444C62.2885 21.4169 62.3607 21.2748 62.685 21.2405C62.8438 21.2237 62.9917 21.2424 63.1068 21.2767C63.2138 21.3086 63.2527 21.3419 63.223 21.3211L61.5 23.7769ZM64.5 23.4602L66.5225 25.676L68.0225 24.3068L66 22.091L63.9775 19.8753L62.4775 21.2444L64.5 23.4602ZM66 22.091L68.0225 24.3068L69.5225 22.9377L67.5 20.7219L65.4775 18.5061L63.9775 19.8753L66 22.091ZM67.5 20.7219L69.5225 22.9377C69.7238 22.7539 69.6848 22.8685 69.4081 22.9065C69.2705 22.9254 69.1347 22.9153 69.0213 22.8869C68.9144 22.8602 68.8684 22.8276 68.8862 22.8389L70.5 20.31L72.1138 17.781C71.1244 17.1496 69.917 16.7803 68.5919 16.9623C67.3152 17.1376 66.2761 17.7772 65.4775 18.5061L67.5 20.7219ZM70.5 20.31L68.8862 22.8389L70.3862 23.7961L72 21.2672L73.6138 18.7382L72.1138 17.781L70.5 20.31ZM72 21.2672L70.3862 23.7961L71.8862 24.7533L73.5 22.2244L75.1138 19.6954L73.6138 18.7382L72 21.2672ZM73.5 22.2244L71.8862 24.7533C73.2167 25.6024 74.6695 26.1639 76.2252 26.3069L76.5 23.3196L76.7748 20.3322C76.3305 20.2913 75.7833 20.1227 75.1138 19.6954L73.5 22.2244ZM76.5 23.3196L76.2252 26.3069L77.7252 26.4449L78 23.4575L78.2748 20.4701L76.7748 20.3322L76.5 23.3196ZM78 23.4575L77.7252 26.4449L79.2252 26.5829L79.5 23.5955L79.7748 20.6081L78.2748 20.4701L78 23.4575ZM79.5 23.5955L79.2252 26.5829C80.491 26.6993 81.7559 26.6471 83.0133 26.4287L82.5 23.473L81.9867 20.5172C81.244 20.6462 80.509 20.6756 79.7748 20.6081L79.5 23.5955ZM82.5 23.473L83.0133 26.4287L84.5133 26.1682L84 23.2125L83.4867 20.2567L81.9867 20.5172L82.5 23.473ZM84 23.2125L84.5133 26.1682L86.0133 25.9078L85.5 22.952L84.9867 19.9962L83.4867 20.2567L84 23.2125ZM85.5 22.952L86.0133 25.9078C86.4802 25.8267 86.9573 25.8609 87.4935 26.0519L88.5 23.2257L89.5065 20.3996C88.0427 19.8783 86.5198 19.73 84.9867 19.9962L85.5 22.952ZM88.5 23.2257L87.4935 26.0519L88.9935 26.5861L90 23.7599L91.0065 20.9338L89.5065 20.3996L88.5 23.2257ZM90 23.7599L88.9935 26.5861L90.4935 27.1203L91.5 24.2941L92.5065 21.468L91.0065 20.9338L90 23.7599ZM91.5 24.2941L90.4935 27.1203C92.724 27.9146 94.8108 27.2239 96.4133 25.897L94.5 23.5863L92.5867 21.2756C92.3513 21.4706 92.2589 21.4768 92.3111 21.4644C92.3382 21.4581 92.3808 21.4527 92.43 21.4556C92.4527 21.457 92.4719 21.4599 92.4863 21.4629C92.5005 21.4658 92.5075 21.4684 92.5065 21.468L91.5 24.2941ZM94.5 23.5863L96.4133 25.897L97.9133 24.655L96 22.3443L94.0867 20.0336L92.5867 21.2756L94.5 23.5863ZM96 22.3443L97.9133 24.655L99.4133 23.413L97.5 21.1023L95.5867 18.7916L94.0867 20.0336L96 22.3443ZM97.5 21.1023L99.4133 23.413C99.6516 23.2157 99.75 23.2046 99.7066 23.2151C99.6838 23.2206 99.645 23.2261 99.5987 23.2237C99.5773 23.2227 99.5592 23.2201 99.5454 23.2174C99.5318 23.2147 99.525 23.2124 99.5259 23.2127L100.5 20.3752L101.474 17.5378C99.2498 16.7741 97.179 17.4731 95.5867 18.7916L97.5 21.1023ZM100.5 20.3752L99.5259 23.2127L101.026 23.7276L102 20.8902L102.974 18.0528L101.474 17.5378L100.5 20.3752ZM102 20.8902L101.026 23.7276L102.526 24.2426L103.5 21.4052L104.474 18.5677L102.974 18.0528L102 20.8902ZM103.5 21.4052L102.526 24.2426C103.825 24.6885 105.157 24.9196 106.511 24.9146L106.5 21.9146L106.489 18.9146C105.843 18.917 105.175 18.8085 104.474 18.5677L103.5 21.4052ZM106.5 21.9146L106.511 24.9146L108.011 24.9091L108 21.9091L107.989 18.9091L106.489 18.9146L106.5 21.9146ZM108 21.9091L108.011 24.9091L109.511 24.9035L109.5 21.9036L109.489 18.9036L107.989 18.9091L108 21.9091ZM109.5 21.9036L109.511 24.9035C110.456 24.9 111.401 24.9225 112.347 24.9709L112.5 21.9748L112.653 18.9788C111.599 18.9248 110.544 18.8997 109.489 18.9036L109.5 21.9036ZM112.5 21.9748L112.347 24.9709L113.847 25.0477L114 22.0517L114.153 19.0556L112.653 18.9788L112.5 21.9748ZM114 22.0517L113.847 25.0477L115.347 25.1246L115.5 22.1285L115.653 19.1324L114.153 19.0556L114 22.0517ZM115.5 22.1285L115.347 25.1246C116.644 25.191 117.935 25.0654 119.209 24.7555L118.5 21.8405L117.791 18.9255C117.065 19.102 116.356 19.1684 115.653 19.1324L115.5 22.1285ZM118.5 21.8405L119.209 24.7555L120.709 24.3907L120 21.4757L119.291 18.5607L117.791 18.9255L118.5 21.8405ZM120 21.4757L120.709 24.3907L122.209 24.0259L121.5 21.1109L120.791 18.1959L119.291 18.5607L120 21.4757ZM121.5 21.1109L122.209 24.0259C122.599 23.9311 122.984 23.946 123.442 24.1187L124.5 21.3115L125.558 18.5044C124.016 17.9232 122.401 17.8043 120.791 18.1959L121.5 21.1109ZM124.5 21.3115L123.442 24.1187L124.942 24.6842L126 21.877L127.058 19.0698L125.558 18.5044L124.5 21.3115ZM126 21.877L124.942 24.6842L126.442 25.2496L127.5 22.4424L128.558 19.6353L127.058 19.0698L126 21.877ZM127.5 22.4424L126.442 25.2496C127.634 25.699 128.845 26.0165 130.073 26.193L130.5 23.2236L130.927 20.2541C130.155 20.1431 129.366 19.9398 128.558 19.6353L127.5 22.4424ZM130.5 23.2236L130.073 26.193L131.573 26.4087L132 23.4392L132.427 20.4698L130.927 20.2541L130.5 23.2236ZM132 23.4392L131.573 26.4087L133.073 26.6244L133.5 23.6549L133.927 20.6854L132.427 20.4698L132 23.4392ZM133.5 23.6549L133.073 26.6244C134.241 26.7923 135.413 26.8599 136.587 26.826L136.5 23.8273L136.413 20.8285C135.587 20.8524 134.759 20.805 133.927 20.6854L133.5 23.6549ZM136.5 23.8273L136.587 26.826L138.087 26.7828L138 23.784L137.913 20.7853L136.413 20.8285L136.5 23.8273ZM138 23.784L138.087 26.7828L139.587 26.7395L139.5 23.7407L139.413 20.742L137.913 20.7853L138 23.784ZM139.5 23.7407L139.587 26.7395C140.895 26.7017 142.185 26.4649 143.448 26.0441L142.5 23.1978L141.552 20.3516C140.815 20.597 140.105 20.722 139.413 20.742L139.5 23.7407ZM142.5 23.1978L143.448 26.0441L144.948 25.5445L144 22.6982L143.052 19.8519L141.552 20.3516L142.5 23.1978ZM144 22.6982L144.948 25.5445L146.448 25.0449L145.5 22.1986L144.552 19.3523L143.052 19.8519L144 22.6982ZM145.5 22.1986L146.448 25.0449C146.991 24.8642 147.483 24.8335 147.97 24.921L148.5 21.9682L149.03 19.0154C147.517 18.7439 146.009 18.8669 144.552 19.3523L145.5 22.1986ZM148.5 21.9682L147.97 24.921L149.47 25.1902L150 22.2374L150.53 19.2846L149.03 19.0154L148.5 21.9682ZM150 22.2374L149.47 25.1902L150.97 25.4594L151.5 22.5066L152.03 19.5538L150.53 19.2846L150 22.2374ZM151.5 22.5066L150.97 25.4594C151.493 25.5532 152.004 25.6315 152.429 25.6593C152.606 25.6709 152.977 25.6906 153.388 25.6239C153.567 25.5947 154.045 25.5072 154.555 25.1921C155.163 24.8156 156 23.9598 156 22.6048H153H150C150 22.0276 150.169 21.4642 150.483 20.9835C150.778 20.5316 151.135 20.252 151.398 20.0892C151.877 19.7934 152.308 19.7207 152.425 19.7016C152.71 19.6553 152.894 19.6769 152.821 19.6721C152.746 19.6672 152.507 19.6394 152.03 19.5538L151.5 22.5066ZM153 22.6048H156V22.4338H153H150V22.6048H153ZM153 22.4338L155.879 21.5918L155.779 21.2498L152.9 22.0918L150.021 22.9338L150.121 23.2758L153 22.4338ZM152.9 22.0918V25.0918H153V22.0918V19.0918H152.9V22.0918Z" fill="white"/>
</svg>
